<?xml version="1.0" encoding="utf-8"?>
<!-- Generator: Adobe Illustrator 21.1.0, SVG Export Plug-In . SVG Version: 6.00 Build 0)  -->
<svg version="1.1" id="Layer_1" xmlns="http://www.w3.org/2000/svg" xmlns:xlink="http://www.w3.org/1999/xlink" x="0px" y="0px"
	 viewBox="0 0 608 408" style="enable-background:new 0 0 608 408;" xml:space="preserve">
<style type="text/css">
	.st0{fill:#D18419;}
</style>
<g>
	<path class="st0" d="M1.9,0c1,0,1.9,0.7,1.9,1.9S2.9,3.8,1.9,3.8C0.9,3.9,0,3.1,0,1.9S0.9,0,1.9,0z M1.9,101.8c1,0,1.9,0.7,1.9,1.9
		c0,1.2-0.9,1.9-1.9,1.9S0,104.9,0,103.7C0,102.6,0.9,101.8,1.9,101.8z M8.4,0c1,0,1.9,0.7,1.9,1.9S9.4,3.8,8.4,3.8s-2-0.7-2-1.9
		S7.3,0,8.4,0z M8.4,101.8c1,0,1.9,0.7,1.9,1.9c0,1.2-0.9,1.9-1.9,1.9s-1.9-0.7-1.9-1.9C6.4,102.6,7.3,101.8,8.4,101.8z M14.4,5.7
		c1,0,1.9,0.7,1.9,1.9s-0.9,1.9-1.9,1.9s-1.9-0.7-1.9-1.9C12.4,6.4,13.3,5.7,14.4,5.7z M14.4,12.1c1,0,1.9,0.7,1.9,1.9s-0.9,2-1.9,2
		s-1.9-0.7-1.9-1.9S13.3,12.1,14.4,12.1z M14.4,18.6c1,0,1.9,0.7,1.9,1.9c0,1.2-0.9,1.9-1.9,1.9s-1.9-0.7-1.9-1.9
		C12.4,19.3,13.3,18.6,14.4,18.6z M14.4,25c1,0,1.9,0.7,1.9,1.9s-0.9,1.9-1.9,1.9s-1.9-0.7-1.9-1.9S13.3,25,14.4,25z M14.4,31.4
		c1,0,1.9,0.7,1.9,1.9s-0.9,1.9-1.9,1.9s-1.9-0.7-1.9-1.9C12.4,32.2,13.3,31.4,14.4,31.4z M14.4,37.9c1,0,1.9,0.7,1.9,1.9
		s-0.9,1.9-1.9,1.9s-1.9-0.7-1.9-1.9S13.3,37.9,14.4,37.9z M14.4,44.3c1,0,1.9,0.7,1.9,1.9s-0.9,1.9-1.9,1.9s-1.9-0.7-1.9-1.9
		C12.4,45.1,13.3,44.3,14.4,44.3z M14.4,50.8c1,0,1.9,0.7,1.9,1.9s-0.9,1.9-1.9,1.9s-1.9-0.7-1.9-1.9S13.3,50.8,14.4,50.8z
		 M14.4,57.2c1,0,1.9,0.7,1.9,1.9S15.4,61,14.4,61s-1.9-0.7-1.9-1.9C12.4,58,13.3,57.2,14.4,57.2z M14.4,63.6c1,0,1.9,0.7,1.9,1.9
		c0,1.2-0.9,1.9-1.9,1.9s-1.9-0.7-1.9-1.9C12.4,64.4,13.3,63.6,14.4,63.6z M14.4,70.1c1,0,1.9,0.7,1.9,1.9c0,1.2-0.9,1.9-1.9,1.9
		s-1.9-0.7-1.9-1.9C12.4,70.8,13.3,70.1,14.4,70.1z M14.4,76.5c1,0,1.9,0.7,1.9,1.9c0,1.2-0.9,1.9-1.9,1.9s-1.9-0.7-1.9-1.9
		C12.4,77.3,13.3,76.5,14.4,76.5z M14.4,83c1,0,1.9,0.7,1.9,1.9c0,1.2-0.9,1.9-1.9,1.9s-1.9-0.7-1.9-1.9C12.4,83.7,13.3,83,14.4,83z
		 M14.4,89.4c1,0,1.9,0.7,1.9,1.9c0,1.2-0.9,1.9-1.9,1.9s-1.9-0.7-1.9-1.9C12.4,90.2,13.3,89.4,14.4,89.4z M14.4,95.8
		c1,0,1.9,0.7,1.9,1.9c0,1.2-0.9,1.9-1.9,1.9s-1.9-0.7-1.9-1.9C12.4,96.6,13.3,95.8,14.4,95.8z M14.8,0c1,0,1.9,0.7,1.9,1.9
		s-0.9,1.9-1.9,1.9s-1.9-0.7-1.9-1.9C12.9,0.7,13.8,0,14.8,0z M14.8,101.8c1,0,1.9,0.7,1.9,1.9c0,1.2-0.9,1.9-1.9,1.9
		s-1.9-0.7-1.9-1.9C12.9,102.6,13.8,101.8,14.8,101.8z M21,0c1,0,1.9,0.7,1.9,1.9S22,3.8,21,3.8s-1.9-0.7-1.9-1.9
		C19,0.7,19.9,0,21,0z M21.3,101.8c1,0,1.9,0.7,1.9,1.9c0,1.2-0.9,1.9-1.9,1.9s-1.9-0.7-1.9-1.9C19.3,102.6,20.2,101.8,21.3,101.8z
		 M23.2,6c1,0,1.9,0.7,1.9,1.9s-0.9,1.9-1.9,1.9s-1.9-0.7-1.9-1.9C21.3,6.7,22.2,6,23.2,6z M25.3,12c1,0,1.9,0.7,1.9,1.9
		s-0.9,1.9-1.9,1.9s-1.9-0.7-1.9-1.9S24.3,12,25.3,12z M27.6,18c1,0,1.9,0.7,1.9,1.9s-0.9,1.9-1.9,1.9s-1.9-0.7-1.9-1.9
		S26.5,18,27.6,18z M27.7,101.8c1,0,1.9,0.7,1.9,1.9c0,1.2-0.9,1.9-1.9,1.9s-1.9-0.7-1.9-1.9C25.8,102.6,26.7,101.8,27.7,101.8z
		 M29.7,24c1,0,1.9,0.7,1.9,1.9c0,1.2-0.9,1.9-1.9,1.9s-1.9-0.7-1.9-1.9C27.7,24.7,28.6,24,29.7,24z M31.9,30c1,0,1.9,0.7,1.9,1.9
		s-0.9,1.9-1.9,1.9c-1,0-1.9-0.7-1.9-1.9S30.9,30,31.9,30z M34,35.9c1,0,1.9,0.7,1.9,1.9S35,39.7,34,39.7s-1.9-0.7-1.9-1.9
		S33,35.9,34,35.9z M36.3,41.9c1,0,1.9,0.7,1.9,1.9s-0.9,1.9-1.9,1.9s-1.9-0.7-1.9-1.9S35.2,41.9,36.3,41.9z M38.2,47.9
		c1,0,1.9,0.7,1.9,1.9s-0.9,1.9-1.9,1.9s-1.9-0.7-1.9-1.9C36.3,48.7,37.2,47.9,38.2,47.9z M40.5,53.9c1,0,1.9,0.7,1.9,1.9
		s-0.9,1.9-1.9,1.9s-1.9-0.7-1.9-1.9C38.5,54.7,39.4,53.9,40.5,53.9z M42.7,59.9c1,0,1.9,0.7,1.9,1.9s-0.9,1.9-1.9,1.9
		s-1.9-0.7-1.9-1.9S41.7,59.9,42.7,59.9z M44.8,65.9c1,0,1.9,0.7,1.9,1.9c0,1.2-0.9,1.9-1.9,1.9s-1.9-0.7-1.9-1.9
		C42.9,66.6,43.8,65.9,44.8,65.9z M47.1,71.9c1,0,1.9,0.7,1.9,1.9c0,1.2-0.9,1.9-1.9,1.9s-1.9-0.7-1.9-1.9
		C45.1,72.6,46,71.9,47.1,71.9z M49.2,77.9c1,0,1.9,0.7,1.9,1.9c0,1.2-0.9,1.9-1.9,1.9s-1.9-0.7-1.9-1.9
		C47.2,78.6,48.1,77.9,49.2,77.9z M51.4,83.9c1,0,1.9,0.7,1.9,1.9c0,1.2-0.9,1.9-1.9,1.9s-1.9-0.7-1.9-1.9S50.4,83.9,51.4,83.9z
		 M53.5,89.9c1,0,1.9,0.7,1.9,1.9c0,1.2-0.9,1.9-1.9,1.9s-1.9-0.7-1.9-1.9S52.5,89.9,53.5,89.9z M55.8,95.8c1,0,1.9,0.7,1.9,1.9
		c0,1.2-0.9,1.9-1.9,1.9s-1.9-0.7-1.9-1.9C53.8,96.6,54.7,95.8,55.8,95.8z M58.5,101.8c1,0,1.9,0.7,1.9,1.9c0,1.2-0.9,1.9-1.9,1.9
		s-1.9-0.7-1.9-1.9C56.5,102.6,57.4,101.8,58.5,101.8z M61.3,95.8c1,0,1.9,0.7,1.9,1.9c0,1.2-0.9,1.9-1.9,1.9s-1.9-0.7-1.9-1.9
		C59.4,96.6,60.3,95.8,61.3,95.8z M63.7,89.9c1,0,1.9,0.7,1.9,1.9c0,1.2-0.9,1.9-1.9,1.9s-1.9-0.7-1.9-1.9
		C61.8,90.6,62.7,89.9,63.7,89.9z M66,83.9c1,0,1.9,0.7,1.9,1.9c0,1.2-0.9,1.9-1.9,1.9s-1.9-0.7-1.9-1.9C64,84.6,64.9,83.9,66,83.9z
		 M68.2,77.9c1,0,1.9,0.7,1.9,1.9c0,1.2-0.9,1.9-1.9,1.9s-1.9-0.7-1.9-1.9C66.3,78.6,67.2,77.9,68.2,77.9z M70.5,71.9
		c1,0,1.9,0.7,1.9,1.9c0,1.2-0.9,1.9-1.9,1.9s-1.9-0.7-1.9-1.9C68.5,72.6,69.4,71.9,70.5,71.9z M72.9,65.9c1,0,1.9,0.7,1.9,1.9
		c0,1.2-0.9,1.9-1.9,1.9S71,69,71,67.8C70.9,66.6,71.8,65.9,72.9,65.9z M75.1,59.9c1,0,1.9,0.7,1.9,1.9s-0.9,1.9-1.9,1.9
		s-1.9-0.7-1.9-1.9S74.1,59.9,75.1,59.9z M77.4,53.9c1,0,1.9,0.7,1.9,1.9s-0.9,1.9-1.9,1.9s-1.9-0.7-1.9-1.9
		C75.4,54.7,76.3,53.9,77.4,53.9z M79.8,47.9c1,0,1.9,0.7,1.9,1.9s-0.9,1.9-1.9,1.9s-1.9-0.7-1.9-1.9C77.8,48.7,78.7,47.9,79.8,47.9
		z M81.9,41.9c1,0,1.9,0.7,1.9,1.9s-0.9,1.9-1.9,1.9S80,45,80,43.8S80.8,41.9,81.9,41.9z M84.1,35.9c1,0,1.9,0.7,1.9,1.9
		s-0.9,1.9-1.9,1.9s-1.9-0.7-1.9-1.9S83.1,35.9,84.1,35.9z M86.4,30c1,0,1.9,0.7,1.9,1.9s-0.9,1.9-1.9,1.9s-1.9-0.7-1.9-1.9
		C84.4,30.7,85.3,30,86.4,30z M88.8,24c1,0,1.9,0.7,1.9,1.9c0,1.2-0.9,1.9-1.9,1.9s-1.9-0.7-1.9-1.9C86.8,24.7,87.7,24,88.8,24z
		 M90.9,18c1,0,1.9,0.7,1.9,1.9s-0.9,1.9-1.9,1.9S89,21.1,89,19.9S89.8,18,90.9,18z M91.3,101.8c1,0,1.9,0.7,1.9,1.9
		c0,1.2-0.9,1.9-1.9,1.9s-1.9-0.7-1.9-1.9C89.4,102.6,90.3,101.8,91.3,101.8z M93.3,12c1,0,1.9,0.7,1.9,1.9s-0.9,1.9-1.9,1.9
		s-1.9-0.7-1.9-1.9S92.2,12,93.3,12z M95.5,6c1,0,1.9,0.7,1.9,1.9s-0.9,1.9-1.9,1.9s-1.9-0.7-1.9-1.9S94.5,6,95.5,6z M97.8,101.8
		c1,0,1.9,0.7,1.9,1.9c0,1.2-0.9,1.9-1.9,1.9s-1.9-0.7-1.9-1.9C95.8,102.6,96.7,101.8,97.8,101.8z M97.9,0c1,0,1.9,0.7,1.9,1.9
		s-0.9,1.9-1.9,1.9S96,3.1,96,1.9S96.9,0,97.9,0z M104.1,0c1,0,1.9,0.7,1.9,1.9s-0.9,1.9-1.9,1.9s-1.9-0.7-1.9-1.9
		C102.1,0.7,103,0,104.1,0z M104.2,101.8c1,0,1.9,0.7,1.9,1.9c0,1.2-0.9,1.9-1.9,1.9s-1.9-0.7-1.9-1.9
		C102.3,102.6,103.2,101.8,104.2,101.8z M104.5,5.7c1,0,1.9,0.7,1.9,1.9s-0.9,1.9-1.9,1.9s-1.9-0.7-1.9-1.9S103.5,5.7,104.5,5.7z
		 M104.5,12.1c1,0,1.9,0.7,1.9,1.9s-0.9,1.9-1.9,1.9s-1.9-0.7-1.9-1.9S103.5,12.1,104.5,12.1z M104.5,18.6c1,0,1.9,0.7,1.9,1.9
		c0,1.2-0.9,1.9-1.9,1.9s-1.9-0.7-1.9-1.9C102.6,19.3,103.5,18.6,104.5,18.6z M104.5,25c1,0,1.9,0.7,1.9,1.9s-0.9,1.9-1.9,1.9
		s-1.9-0.7-1.9-1.9S103.5,25,104.5,25z M104.5,31.4c1,0,1.9,0.7,1.9,1.9s-0.9,1.9-1.9,1.9s-1.9-0.7-1.9-1.9
		C102.6,32.2,103.5,31.4,104.5,31.4z M104.5,37.9c1,0,1.9,0.7,1.9,1.9s-0.9,1.9-1.9,1.9s-1.9-0.7-1.9-1.9S103.5,37.9,104.5,37.9z
		 M104.5,44.3c1,0,1.9,0.7,1.9,1.9s-0.9,1.9-1.9,1.9s-1.9-0.7-1.9-1.9C102.6,45.1,103.5,44.3,104.5,44.3z M104.5,50.8
		c1,0,1.9,0.7,1.9,1.9s-0.9,1.9-1.9,1.9s-1.9-0.7-1.9-1.9S103.5,50.8,104.5,50.8z M104.5,57.2c1,0,1.9,0.7,1.9,1.9s-0.9,1.9-1.9,1.9
		s-1.9-0.7-1.9-1.9C102.6,58,103.5,57.2,104.5,57.2z M104.5,63.6c1,0,1.9,0.7,1.9,1.9c0,1.2-0.9,1.9-1.9,1.9s-1.9-0.7-1.9-1.9
		C102.6,64.4,103.5,63.6,104.5,63.6z M104.5,70.1c1,0,1.9,0.7,1.9,1.9c0,1.2-0.9,1.9-1.9,1.9s-1.9-0.7-1.9-1.9
		C102.6,70.8,103.5,70.1,104.5,70.1z M104.5,76.5c1,0,1.9,0.7,1.9,1.9c0,1.2-0.9,1.9-1.9,1.9s-1.9-0.7-1.9-1.9
		C102.6,77.3,103.5,76.5,104.5,76.5z M104.5,83c1,0,1.9,0.7,1.9,1.9c0,1.2-0.9,1.9-1.9,1.9s-1.9-0.7-1.9-1.9S103.5,83,104.5,83z
		 M104.5,89.4c1,0,1.9,0.7,1.9,1.9c0,1.2-0.9,1.9-1.9,1.9s-1.9-0.7-1.9-1.9C102.6,90.2,103.5,89.4,104.5,89.4z M104.5,95.8
		c1,0,1.9,0.7,1.9,1.9c0,1.2-0.9,1.9-1.9,1.9s-1.9-0.7-1.9-1.9C102.6,96.6,103.5,95.8,104.5,95.8z M110.5,0c1,0,1.9,0.7,1.9,1.9
		s-0.9,1.9-1.9,1.9s-1.9-0.7-1.9-1.9C108.5,0.7,109.4,0,110.5,0z M110.6,101.8c1,0,1.9,0.7,1.9,1.9c0,1.2-0.9,1.9-1.9,1.9
		s-1.9-0.7-1.9-1.9C108.7,102.6,109.6,101.8,110.6,101.8z M116.9,0c1,0,1.9,0.7,1.9,1.9s-0.9,1.9-1.9,1.9S115,3.1,115,1.9
		S115.9,0,116.9,0z M117.1,101.8c1,0,1.9,0.7,1.9,1.9c0,1.2-0.9,1.9-1.9,1.9s-1.9-0.7-1.9-1.9C115.1,102.6,116,101.8,117.1,101.8z"
		/>
	<path class="st0" d="M129.7,64.5c1,0,1.9,0.7,1.9,1.9c0,1.2-0.9,1.9-1.9,1.9s-1.9-0.7-1.9-1.9C127.7,65.3,128.6,64.5,129.7,64.5z
		 M129.8,71c1,0,1.9,0.7,1.9,1.9c0,1.2-0.9,1.9-1.9,1.9s-1.9-0.7-1.9-1.9S128.8,71,129.8,71z M130,58.1c1,0,1.9,0.7,1.9,1.9
		s-0.9,2-1.9,2s-1.9-0.7-1.9-1.9S128.9,58.1,130,58.1z M131,77.4c1,0,1.9,0.7,1.9,1.9c0,1.2-0.9,1.9-1.9,1.9s-1.9-0.7-1.9-1.9
		C129.1,78.2,130,77.4,131,77.4z M131.2,51.7c1,0,1.9,0.7,1.9,1.9s-0.9,1.9-1.9,1.9s-1.9-0.7-1.9-1.9
		C129.2,52.4,130.1,51.7,131.2,51.7z M133.1,83.7c1,0,1.9,0.7,1.9,1.9c0,1.2-0.9,1.9-1.9,1.9s-1.9-0.7-1.9-1.9
		C131.2,84.5,132.1,83.7,133.1,83.7z M133.4,45.4c1,0,1.9,0.7,1.9,1.9s-0.9,1.9-1.9,1.9s-1.9-0.7-1.9-1.9
		C131.5,46.1,132.4,45.4,133.4,45.4z M135.2,61c1,0,1.9,0.7,1.9,1.9c0,1.2-0.9,1.9-1.9,1.9s-1.9-0.7-1.9-1.9
		C133.3,61.7,134.2,61,135.2,61z M136.3,89.6c1,0,1.9,0.7,1.9,1.9c0,1.2-0.9,1.9-1.9,1.9s-1.9-0.7-1.9-1.9
		C134.3,90.3,135.2,89.6,136.3,89.6z M136.6,39.7c1,0,1.9,0.7,1.9,1.9s-0.9,1.9-1.9,1.9s-1.9-0.7-1.9-1.9S135.5,39.7,136.6,39.7z
		 M140.3,94.6c1,0,1.9,0.7,1.9,1.9c0,1.2-0.9,1.9-1.9,1.9s-1.9-0.7-1.9-1.9C138.4,95.4,139.3,94.6,140.3,94.6z M140.6,34.7
		c1,0,1.9,0.7,1.9,1.9s-0.9,1.9-1.9,1.9s-1.9-0.7-1.9-1.9C138.7,35.5,139.6,34.7,140.6,34.7z M141.8,61c1,0,1.9,0.7,1.9,1.9
		c0,1.2-0.9,1.9-1.9,1.9s-1.9-0.7-1.9-1.9C139.9,61.7,140.8,61,141.8,61z M145.6,98.2c1,0,1.9,0.7,1.9,1.9c0,1.2-0.9,1.9-1.9,1.9
		s-1.9-0.7-1.9-1.9C143.6,99,144.5,98.2,145.6,98.2z M145.9,30.8c1,0,1.9,0.7,1.9,1.9s-0.9,1.9-1.9,1.9s-1.9-0.7-1.9-1.9
		C143.9,31.6,144.8,30.8,145.9,30.8z M148.4,61c1,0,1.9,0.7,1.9,1.9c0,1.2-0.9,1.9-1.9,1.9s-1.9-0.7-1.9-1.9
		C146.5,61.7,147.4,61,148.4,61z M151.4,100.8c1,0,1.9,0.7,1.9,1.9c0,1.2-0.9,1.9-1.9,1.9s-1.9-0.7-1.9-1.9S150.4,100.8,151.4,100.8
		z M151.9,28.2c1,0,1.9,0.7,1.9,1.9c0,1.2-0.9,1.9-1.9,1.9s-1.9-0.7-1.9-1.9C149.9,28.9,150.8,28.2,151.9,28.2z M155,61
		c1,0,1.9,0.7,1.9,1.9c0,1.2-0.9,1.9-1.9,1.9s-1.9-0.7-1.9-1.9C153.1,61.7,154,61,155,61z M157.7,102.3c1,0,1.9,0.7,1.9,1.9
		c0,1.2-0.9,1.9-1.9,1.9s-1.9-0.7-1.9-1.9S156.7,102.3,157.7,102.3z M158.5,26.7c1,0,1.9,0.7,1.9,1.9c0,1.2-0.9,1.9-1.9,1.9
		s-1.9-0.7-1.9-1.9C156.5,27.4,157.4,26.7,158.5,26.7z M161.6,61c1,0,1.9,0.7,1.9,1.9c0,1.2-0.9,1.9-1.9,1.9s-1.9-0.7-1.9-1.9
		C159.7,61.7,160.6,61,161.6,61z M164.2,102.7c1,0,1.9,0.7,1.9,1.9c0,1.2-0.9,1.9-1.9,1.9s-1.9-0.7-1.9-1.9
		C162.2,103.5,163.1,102.7,164.2,102.7z M164.8,26.4c1,0,1.9,0.7,1.9,1.9s-0.9,1.9-1.9,1.9s-1.9-0.7-1.9-1.9S163.7,26.4,164.8,26.4z
		 M168.2,61c1,0,1.9,0.7,1.9,1.9c0,1.2-0.9,1.9-1.9,1.9s-1.9-0.7-1.9-1.9C166.3,61.7,167.2,61,168.2,61z M170.6,102.4
		c1,0,1.9,0.7,1.9,1.9c0,1.2-0.9,1.9-1.9,1.9s-1.9-0.7-1.9-1.9C168.7,103.2,169.6,102.4,170.6,102.4z M171.2,26.8
		c1,0,1.9,0.7,1.9,1.9s-0.9,1.9-1.9,1.9s-1.9-0.7-1.9-1.9S170.2,26.8,171.2,26.8z M174.8,61c1,0,1.9,0.7,1.9,1.9
		c0,1.2-0.9,1.9-1.9,1.9s-1.9-0.7-1.9-1.9C172.9,61.7,173.8,61,174.8,61z M176.9,101.5c1,0,1.9,0.7,1.9,1.9c0,1.2-0.9,1.9-1.9,1.9
		s-1.9-0.7-1.9-1.9C175,102.3,175.9,101.5,176.9,101.5z M177.5,28.3c1,0,1.9,0.7,1.9,1.9s-0.9,1.9-1.9,1.9s-1.9-0.7-1.9-1.9
		S176.5,28.3,177.5,28.3z M181.4,61c1,0,1.9,0.7,1.9,1.9c0,1.2-0.9,1.9-1.9,1.9s-1.9-0.7-1.9-1.9C179.5,61.7,180.4,61,181.4,61z
		 M182.9,31.6c1,0,1.9,0.7,1.9,1.9s-0.9,1.9-1.9,1.9s-1.9-0.7-1.9-1.9S181.9,31.6,182.9,31.6z M182.9,99.7c1,0,1.9,0.7,1.9,1.9
		c0,1.2-0.9,1.9-1.9,1.9s-1.9-0.7-1.9-1.9C181,100.5,181.9,99.7,182.9,99.7z M187.4,36.1c1,0,1.9,0.7,1.9,1.9s-0.9,1.9-1.9,1.9
		s-1.9-0.7-1.9-1.9S186.4,36.1,187.4,36.1z M188,61c1,0,1.9,0.7,1.9,1.9c0,1.2-0.9,1.9-1.9,1.9s-1.9-0.7-1.9-1.9
		C186.1,61.7,187,61,188,61z M188.5,96.7c1,0,1.9,0.7,1.9,1.9c0,1.2-0.9,1.9-1.9,1.9s-1.9-0.7-1.9-1.9
		C186.5,97.5,187.4,96.7,188.5,96.7z M190.7,41.5c1,0,1.9,0.7,1.9,1.9s-0.9,1.9-1.9,1.9s-1.9-0.7-1.9-1.9S189.7,41.5,190.7,41.5z
		 M193,47.6c1,0,1.9,0.7,1.9,1.9s-0.9,1.9-1.9,1.9s-1.9-0.7-1.9-1.9C191,48.4,191.9,47.6,193,47.6z M193.4,92.8c1,0,1.9,0.7,1.9,1.9
		c0,1.2-0.9,1.9-1.9,1.9s-1.9-0.7-1.9-1.9C191.5,93.6,192.4,92.8,193.4,92.8z M194.2,54.2c1,0,1.9,0.7,1.9,1.9s-0.9,1.9-1.9,1.9
		s-1.9-0.7-1.9-1.9C192.2,55,193.1,54.2,194.2,54.2z M194.5,61c1,0,1.9,0.7,1.9,1.9c0,1.2-0.9,1.9-1.9,1.9s-1.9-0.7-1.9-1.9
		C192.5,61.7,193.4,61,194.5,61z"/>
	<path class="st0" d="M206.3,101.8c1,0,1.9,0.7,1.9,1.9c0,1.2-0.9,1.9-1.9,1.9s-1.9-0.7-1.9-1.9
		C204.4,102.6,205.3,101.8,206.3,101.8z M207.7,26.8c1,0,1.9,0.7,1.9,1.9s-0.9,1.9-1.9,1.9s-1.9-0.7-1.9-1.9S206.6,26.8,207.7,26.8z
		 M213.2,101.8c1,0,1.9,0.7,1.9,1.9c0,1.2-0.9,1.9-1.9,1.9s-1.9-0.7-1.9-1.9C211.3,102.6,212.2,101.8,213.2,101.8z M214.4,26.8
		c1,0,1.9,0.7,1.9,1.9s-0.9,1.9-1.9,1.9s-1.9-0.7-1.9-1.9S213.4,26.8,214.4,26.8z M217.6,96.7c1,0,1.9,0.7,1.9,1.9
		c0,1.2-0.9,1.9-1.9,1.9s-1.9-0.7-1.9-1.9C215.6,97.5,216.5,96.7,217.6,96.7z M220,101.8c1,0,1.9,0.7,1.9,1.9c0,1.2-0.9,1.9-1.9,1.9
		s-1.9-0.7-1.9-1.9C218,102.6,218.9,101.8,220,101.8z M220.4,32.3c1,0,1.9,0.7,1.9,1.9s-0.9,1.9-1.9,1.9s-1.9-0.7-1.9-1.9
		S219.4,32.3,220.4,32.3z M221.2,26.8c1,0,1.9,0.7,1.9,1.9s-0.9,1.9-1.9,1.9s-1.9-0.7-1.9-1.9S220.1,26.8,221.2,26.8z M221.3,91.8
		c1,0,1.9,0.7,1.9,1.9c0,1.2-0.9,1.9-1.9,1.9s-1.9-0.7-1.9-1.9C219.4,92.5,220.3,91.8,221.3,91.8z M224.2,37.1c1,0,1.9,0.7,1.9,1.9
		s-0.9,1.9-1.9,1.9s-1.9-0.7-1.9-1.9S223.1,37.1,224.2,37.1z M224.6,86.9c1,0,1.9,0.7,1.9,1.9c0,1.2-0.9,1.9-1.9,1.9
		s-1.9-0.7-1.9-1.9C222.7,87.6,223.6,86.9,224.6,86.9z M226.8,101.8c1,0,1.9,0.7,1.9,1.9c0,1.2-0.9,1.9-1.9,1.9s-1.9-0.7-1.9-1.9
		C224.9,102.6,225.8,101.8,226.8,101.8z M227.9,26.8c1,0,1.9,0.7,1.9,1.9s-0.9,1.9-1.9,1.9s-1.9-0.7-1.9-1.9S226.8,26.8,227.9,26.8z
		 M227.9,42.1c1,0,1.9,0.7,1.9,1.9s-0.9,1.9-1.9,1.9S226,45.2,226,44C225.9,42.8,226.8,42.1,227.9,42.1z M228.5,81.9
		c1,0,1.9,0.7,1.9,1.9c0,1.2-0.9,1.9-1.9,1.9s-1.9-0.7-1.9-1.9C226.5,82.7,227.4,81.9,228.5,81.9z M231.5,47.2c1,0,1.9,0.7,1.9,1.9
		s-0.9,1.9-1.9,1.9s-1.9-0.7-1.9-1.9C229.5,47.9,230.4,47.2,231.5,47.2z M231.8,77c1,0,1.9,0.7,1.9,1.9c0,1.2-0.9,1.9-1.9,1.9
		s-1.9-0.7-1.9-1.9C229.8,77.7,230.7,77,231.8,77z M235.2,52.1c1,0,1.9,0.7,1.9,1.9s-0.9,1.9-1.9,1.9s-1.9-0.7-1.9-1.9
		C233.3,52.9,234.2,52.1,235.2,52.1z M235.4,72c1,0,1.9,0.7,1.9,1.9c0,1.2-0.9,1.9-1.9,1.9s-1.9-0.7-1.9-1.9
		C233.4,72.8,234.3,72,235.4,72z M238.8,57.1c1,0,1.9,0.7,1.9,1.9s-0.9,1.9-1.9,1.9s-1.9-0.7-1.9-1.9S237.8,57.1,238.8,57.1z
		 M239,67.1c1,0,1.9,0.7,1.9,1.9c0,1.2-0.9,1.9-1.9,1.9s-1.9-0.7-1.9-1.9C237,67.8,237.9,67.1,239,67.1z M242.6,62
		c1,0,1.9,0.7,1.9,1.9c0,1.2-0.9,1.9-1.9,1.9s-1.9-0.7-1.9-1.9C240.6,62.7,241.5,62,242.6,62z M246.2,57.1c1,0,1.9,0.7,1.9,1.9
		s-0.9,1.9-1.9,1.9s-1.9-0.7-1.9-1.9S245.1,57.1,246.2,57.1z M246.3,67.1c1,0,1.9,0.7,1.9,1.9c0,1.2-0.9,1.9-1.9,1.9
		s-1.9-0.7-1.9-1.9C244.4,67.8,245.3,67.1,246.3,67.1z M249.6,52.1c1,0,1.9,0.7,1.9,1.9s-0.9,1.9-1.9,1.9s-1.9-0.7-1.9-1.9
		C247.7,52.9,248.6,52.1,249.6,52.1z M250.1,72c1,0,1.9,0.7,1.9,1.9c0,1.2-0.9,1.9-1.9,1.9s-1.9-0.7-1.9-1.9
		C248.1,72.8,249,72,250.1,72z M253.1,47.2c1,0,1.9,0.7,1.9,1.9s-0.9,1.9-1.9,1.9s-1.9-0.7-1.9-1.9C251.1,47.9,252,47.2,253.1,47.2z
		 M253.7,77c1,0,1.9,0.7,1.9,1.9c0,1.2-0.9,1.9-1.9,1.9s-1.9-0.7-1.9-1.9C251.7,77.7,252.6,77,253.7,77z M254.6,26.8
		c1,0,1.9,0.7,1.9,1.9s-0.9,1.9-1.9,1.9s-1.9-0.7-1.9-1.9S253.5,26.8,254.6,26.8z M256.7,42.1c1,0,1.9,0.7,1.9,1.9s-0.9,1.9-1.9,1.9
		s-1.9-0.7-1.9-1.9C254.7,42.8,255.6,42.1,256.7,42.1z M257.4,81.9c1,0,1.9,0.7,1.9,1.9c0,1.2-0.9,1.9-1.9,1.9s-1.9-0.7-1.9-1.9
		C255.5,82.7,256.4,81.9,257.4,81.9z M257.4,101.8c1,0,1.9,0.7,1.9,1.9c0,1.2-0.9,1.9-1.9,1.9s-1.9-0.7-1.9-1.9
		C255.5,102.6,256.4,101.8,257.4,101.8z M260,37.1c1,0,1.9,0.7,1.9,1.9s-0.9,2-1.9,2s-1.9-0.7-1.9-1.9S258.9,37.1,260,37.1z
		 M261.2,86.9c1,0,1.9,0.7,1.9,1.9c0,1.2-0.9,1.9-1.9,1.9s-1.9-0.7-1.9-1.9C259.2,87.6,260.1,86.9,261.2,86.9z M261.3,26.8
		c1,0,1.9,0.7,1.9,1.9s-0.9,1.9-1.9,1.9s-1.9-0.7-1.9-1.9S260.3,26.8,261.3,26.8z M263.4,32.3c1,0,1.9,0.7,1.9,1.9s-0.9,1.9-1.9,1.9
		s-1.9-0.7-1.9-1.9S262.4,32.3,263.4,32.3z M264.3,101.8c1,0,1.9,0.7,1.9,1.9c0,1.2-0.9,1.9-1.9,1.9s-1.9-0.7-1.9-1.9
		C262.4,102.6,263.3,101.8,264.3,101.8z M264.6,91.8c1,0,1.9,0.7,1.9,1.9c0,1.2-0.9,1.9-1.9,1.9s-1.9-0.7-1.9-1.9
		S263.6,91.8,264.6,91.8z M268.1,26.8c1,0,1.9,0.7,1.9,1.9s-0.9,1.9-1.9,1.9s-1.9-0.7-1.9-1.9S267,26.8,268.1,26.8z M268.4,96.7
		c1,0,1.9,0.7,1.9,1.9c0,1.2-0.9,1.9-1.9,1.9s-1.9-0.7-1.9-1.9C266.4,97.5,267.3,96.7,268.4,96.7z M271.2,101.8c1,0,1.9,0.7,1.9,1.9
		c0,1.2-0.9,1.9-1.9,1.9s-1.9-0.7-1.9-1.9C269.3,102.6,270.2,101.8,271.2,101.8z M274.8,26.8c1,0,1.9,0.7,1.9,1.9s-0.9,1.9-1.9,1.9
		s-1.9-0.7-1.9-1.9S273.8,26.8,274.8,26.8z M278.1,101.8c1,0,1.9,0.7,1.9,1.9c0,1.2-0.9,1.9-1.9,1.9s-1.9-0.7-1.9-1.9
		C276.2,102.6,277.1,101.8,278.1,101.8z"/>
	<path class="st0" d="M287,26.8c1,0,1.9,0.7,1.9,1.9s-0.9,1.9-1.9,1.9s-1.9-0.7-1.9-1.9S285.9,26.8,287,26.8z M287.9,101.8
		c1,0,1.9,0.7,1.9,1.9c0,1.2-0.9,1.9-1.9,1.9s-1.9-0.7-1.9-1.9C285.9,102.6,286.8,101.8,287.9,101.8z M293.6,26.8
		c1,0,1.9,0.7,1.9,1.9s-0.9,1.9-1.9,1.9s-1.9-0.7-1.9-1.9S292.5,26.8,293.6,26.8z M294.5,101.8c1,0,1.9,0.7,1.9,1.9
		c0,1.2-0.9,1.9-1.9,1.9s-1.9-0.7-1.9-1.9C292.5,102.6,293.4,101.8,294.5,101.8z M299.3,9c1,0,1.9,0.7,1.9,1.9s-0.9,1.9-1.9,1.9
		s-1.9-0.7-1.9-1.9C297.3,9.7,298.2,9,299.3,9z M300,26.8c1,0,1.9,0.7,1.9,1.9s-0.9,1.9-1.9,1.9s-1.9-0.7-1.9-1.9S299,26.8,300,26.8
		z M300,33.8c1,0,1.9,0.7,1.9,1.9s-0.9,1.9-1.9,1.9s-1.9-0.7-1.9-1.9S299,33.8,300,33.8z M300,40.7c1,0,1.9,0.7,1.9,1.9
		s-0.9,1.9-1.9,1.9s-1.9-0.7-1.9-1.9S299,40.7,300,40.7z M300,47.6c1,0,1.9,0.7,1.9,1.9s-0.9,1.9-1.9,1.9s-1.9-0.7-1.9-1.9
		C298.1,48.4,299,47.6,300,47.6z M300,54.5c1,0,1.9,0.7,1.9,1.9s-0.9,1.9-1.9,1.9s-1.9-0.7-1.9-1.9S299,54.5,300,54.5z M300,61.3
		c1,0,1.9,0.7,1.9,1.9s-0.9,1.9-1.9,1.9s-1.9-0.7-1.9-1.9C298.1,62,299,61.3,300,61.3z M300,67.8c1,0,1.9,0.7,1.9,1.9
		c0,1.2-0.9,1.9-1.9,1.9s-1.9-0.7-1.9-1.9C298.1,68.6,299,67.8,300,67.8z M300,74.6c1,0,1.9,0.7,1.9,1.9c0,1.2-0.9,1.9-1.9,1.9
		s-1.9-0.7-1.9-1.9C298.1,75.3,299,74.6,300,74.6z M300,81.3c1,0,1.9,0.7,1.9,1.9c0,1.2-0.9,1.9-1.9,1.9s-1.9-0.7-1.9-1.9
		C298.1,82.1,299,81.3,300,81.3z M300,88.2c1,0,1.9,0.7,1.9,1.9c0,1.2-0.9,1.9-1.9,1.9s-1.9-0.7-1.9-1.9C298.1,89,299,88.2,300,88.2
		z M300,95.1c1,0,1.9,0.7,1.9,1.9s-0.8,2-1.9,2c-1,0-1.9-0.7-1.9-1.9S299,95.1,300,95.1z M301.1,101.8c1,0,1.9,0.7,1.9,1.9
		c0,1.2-0.9,1.9-1.9,1.9s-1.9-0.7-1.9-1.9C299.1,102.6,300,101.8,301.1,101.8z M307.7,101.8c1,0,1.9,0.7,1.9,1.9
		c0,1.2-0.9,1.9-1.9,1.9s-1.9-0.7-1.9-1.9C305.7,102.6,306.6,101.8,307.7,101.8z M314.3,101.8c1,0,1.9,0.7,1.9,1.9
		c0,1.2-0.9,1.9-1.9,1.9s-1.9-0.7-1.9-1.9C312.3,102.6,313.2,101.8,314.3,101.8z"/>
	<path class="st0" d="M325.8,64.5c1,0,1.9,0.7,1.9,1.9c0,1.2-0.9,1.9-1.9,1.9s-1.9-0.7-1.9-1.9C323.9,65.3,324.8,64.5,325.8,64.5z
		 M326,71c1,0,1.9,0.7,1.9,1.9c0,1.2-0.9,1.9-1.9,1.9s-1.9-0.7-1.9-1.9C324,71.7,324.9,71,326,71z M326.1,58.1c1,0,1.9,0.7,1.9,1.9
		s-0.9,1.9-1.9,1.9s-1.9-0.7-1.9-1.9S325.1,58.1,326.1,58.1z M327.2,77.4c1,0,1.9,0.7,1.9,1.9c0,1.2-0.9,1.9-1.9,1.9
		s-1.9-0.7-1.9-1.9C325.2,78.2,326.1,77.4,327.2,77.4z M327.3,51.7c1,0,1.9,0.7,1.9,1.9s-0.9,1.9-1.9,1.9s-1.9-0.7-1.9-1.9
		S326.3,51.7,327.3,51.7z M329.3,83.7c1,0,1.9,0.7,1.9,1.9c0,1.2-0.9,1.9-1.9,1.9s-1.9-0.7-1.9-1.9
		C327.3,84.5,328.2,83.7,329.3,83.7z M329.6,45.4c1,0,1.9,0.7,1.9,1.9s-0.9,1.9-1.9,1.9s-1.9-0.7-1.9-1.9
		C327.6,46.1,328.5,45.4,329.6,45.4z M332.4,89.6c1,0,1.9,0.7,1.9,1.9c0,1.2-0.9,1.9-1.9,1.9s-1.9-0.7-1.9-1.9
		C330.5,90.3,331.4,89.6,332.4,89.6z M332.7,39.7c1,0,1.9,0.7,1.9,1.9s-0.9,1.9-1.9,1.9s-1.9-0.7-1.9-1.9S331.7,39.7,332.7,39.7z
		 M336.5,94.6c1,0,1.9,0.7,1.9,1.9c0,1.2-0.9,1.9-1.9,1.9s-1.9-0.7-1.9-1.9C334.5,95.4,335.4,94.6,336.5,94.6z M336.7,34.7
		c1,0,1.9,0.7,1.9,1.9s-0.9,1.9-1.9,1.9s-1.9-0.7-1.9-1.9C334.8,35.5,335.7,34.7,336.7,34.7z M341.7,98.2c1,0,1.9,0.7,1.9,1.9
		c0,1.2-0.9,1.9-1.9,1.9s-1.9-0.7-1.9-1.9C339.7,99,340.6,98.2,341.7,98.2z M342,30.8c1,0,1.9,0.7,1.9,1.9s-0.9,1.9-1.9,1.9
		s-1.9-0.7-1.9-1.9C340,31.6,340.9,30.8,342,30.8z M347.5,100.8c1,0,1.9,0.7,1.9,1.9c0,1.2-0.9,1.9-1.9,1.9s-1.9-0.7-1.9-1.9
		S346.5,100.8,347.5,100.8z M348,28.2c1,0,1.9,0.7,1.9,1.9c0,1.2-0.9,1.9-1.9,1.9s-1.9-0.7-1.9-1.9C346,28.9,346.9,28.2,348,28.2z
		 M353.8,102.3c1,0,1.9,0.7,1.9,1.9c0,1.2-0.9,1.9-1.9,1.9s-1.9-0.7-1.9-1.9S352.8,102.3,353.8,102.3z M354.6,26.8
		c1,0,1.9,0.7,1.9,1.9s-0.9,1.9-1.9,1.9s-1.9-0.7-1.9-1.9S353.5,26.8,354.6,26.8z M360.3,102.7c1,0,1.9,0.7,1.9,1.9
		c0,1.2-0.9,1.9-1.9,1.9s-1.9-0.7-1.9-1.9C358.3,103.5,359.2,102.7,360.3,102.7z M361.2,26.4c1,0,1.9,0.7,1.9,1.9s-0.9,1.9-1.9,1.9
		s-1.9-0.7-1.9-1.9S360.1,26.4,361.2,26.4z M366.7,102.4c1,0,1.9,0.7,1.9,1.9c0,1.2-0.9,1.9-1.9,1.9s-1.9-0.7-1.9-1.9
		C364.8,103.2,365.7,102.4,366.7,102.4z M367.6,26.4c1,0,1.9,0.7,1.9,1.9s-0.9,1.9-1.9,1.9s-1.9-0.7-1.9-1.9S366.6,26.4,367.6,26.4z
		 M373,101.2c1,0,1.9,0.7,1.9,1.9c0,1.2-0.9,1.9-1.9,1.9s-1.9-0.7-1.9-1.9C371.1,102,372,101.2,373,101.2z M373.9,26.8
		c1,0,1.9,0.7,1.9,1.9s-0.9,1.9-1.9,1.9S372,30,372,28.8S372.9,26.8,373.9,26.8z M378.9,99c1,0,1.9,0.7,1.9,1.9
		c0,1.2-0.9,1.9-1.9,1.9s-1.9-0.7-1.9-1.9C376.9,99.7,377.8,99,378.9,99z M380.1,28c1,0,1.9,0.7,1.9,1.9s-0.9,1.9-1.9,1.9
		s-1.9-0.7-1.9-1.9S379,28,380.1,28z M384.1,95.7c1,0,1.9,0.7,1.9,1.9c0,1.2-0.9,1.9-1.9,1.9s-1.9-0.7-1.9-1.9
		C382.2,96.4,383.1,95.7,384.1,95.7z M386.1,30.1c1,0,1.9,0.7,1.9,1.9c0,1.2-0.9,1.9-1.9,1.9s-1.9-0.7-1.9-1.9
		C384.1,30.8,385,30.1,386.1,30.1z M386.1,36.4c1,0,1.9,0.7,1.9,1.9s-0.9,1.9-1.9,1.9s-1.9-0.7-1.9-1.9S385,36.4,386.1,36.4z
		 M386.1,42.7c1,0,1.9,0.7,1.9,1.9s-0.9,1.9-1.9,1.9s-1.9-0.7-1.9-1.9S385,42.7,386.1,42.7z M388.6,91.2c1,0,1.9,0.7,1.9,1.9
		c0,1.2-0.9,1.9-1.9,1.9s-1.9-0.7-1.9-1.9C386.7,92,387.6,91.2,388.6,91.2z"/>
	<path class="st0" d="M401.8,82.5c1,0,1.9,0.7,1.9,1.9c0,1.2-0.9,1.9-1.9,1.9s-1.9-0.7-1.9-1.9C399.9,83.3,400.8,82.5,401.8,82.5z
		 M402.6,76.1c1,0,1.9,0.7,1.9,1.9c0,1.2-0.9,1.9-1.9,1.9s-1.9-0.7-1.9-1.9C400.6,76.8,401.5,76.1,402.6,76.1z M402.7,88.8
		c1,0,1.9,0.7,1.9,1.9c0,1.2-0.9,1.9-1.9,1.9s-1.9-0.7-1.9-1.9C400.8,89.6,401.7,88.8,402.7,88.8z M405.3,70.1c1,0,1.9,0.7,1.9,1.9
		c0,1.2-0.9,1.9-1.9,1.9s-1.9-0.7-1.9-1.9C403.3,70.8,404.2,70.1,405.3,70.1z M405.4,94.6c1,0,1.9,0.7,1.9,1.9
		c0,1.2-0.9,1.9-1.9,1.9s-1.9-0.7-1.9-1.9C403.5,95.4,404.4,94.6,405.4,94.6z M407.8,32.5c1,0,1.9,0.7,1.9,1.9s-0.9,1.9-1.9,1.9
		s-1.9-0.7-1.9-1.9S406.8,32.5,407.8,32.5z M409.9,98.8c1,0,1.9,0.7,1.9,1.9c0,1.2-0.9,1.9-1.9,1.9s-1.9-0.7-1.9-1.9
		C408,99.6,408.9,98.8,409.9,98.8z M410.2,65.9c1,0,1.9,0.7,1.9,1.9c0,1.2-0.9,1.9-1.9,1.9s-1.9-0.7-1.9-1.9
		C408.3,66.6,409.2,65.9,410.2,65.9z M413.8,29.7c1,0,1.9,0.7,1.9,1.9s-0.9,1.9-1.9,1.9s-1.9-0.7-1.9-1.9
		C411.9,30.4,412.8,29.7,413.8,29.7z M415.5,101.2c1,0,1.9,0.7,1.9,1.9c0,1.2-0.9,1.9-1.9,1.9s-1.9-0.7-1.9-1.9
		C413.5,102,414.4,101.2,415.5,101.2z M416.1,63.2c1,0,1.9,0.7,1.9,1.9s-0.9,1.9-1.9,1.9s-1.9-0.7-1.9-1.9
		C414.1,63.9,415,63.2,416.1,63.2z M420.1,27.9c1,0,1.9,0.7,1.9,1.9s-0.9,1.9-1.9,1.9s-1.9-0.7-1.9-1.9S419.1,27.9,420.1,27.9z
		 M421.6,102.3c1,0,1.9,0.7,1.9,1.9c0,1.2-0.9,1.9-1.9,1.9s-1.9-0.7-1.9-1.9S420.6,102.3,421.6,102.3z M422.5,61.7
		c1,0,1.9,0.7,1.9,1.9s-0.9,1.9-1.9,1.9s-1.9-0.7-1.9-1.9C420.6,62.4,421.5,61.7,422.5,61.7z M426.9,26.7c1,0,1.9,0.7,1.9,1.9
		c0,1.2-0.9,1.9-1.9,1.9s-1.9-0.7-1.9-1.9C424.9,27.4,425.8,26.7,426.9,26.7z M428.1,102.4c1,0,1.9,0.7,1.9,1.9
		c0,1.2-0.9,1.9-1.9,1.9s-1.9-0.7-1.9-1.9C426.1,103.2,427,102.4,428.1,102.4z M429.3,61.1c1,0,1.9,0.7,1.9,1.9
		c0,1.2-0.9,1.9-1.9,1.9s-1.9-0.7-1.9-1.9S428.2,61.1,429.3,61.1z M433.3,26.4c1,0,1.9,0.7,1.9,1.9s-0.9,1.9-1.9,1.9
		s-1.9-0.7-1.9-1.9S432.3,26.4,433.3,26.4z M434.2,101.4c1,0,1.9,0.7,1.9,1.9c0,1.2-0.9,1.9-1.9,1.9s-1.9-0.7-1.9-1.9
		C432.3,102.1,433.2,101.4,434.2,101.4z M435.9,61.3c1,0,1.9,0.7,1.9,1.9s-0.9,1.9-1.9,1.9s-1.9-0.7-1.9-1.9
		C433.9,62,434.8,61.3,435.9,61.3z M439.8,26.7c1,0,1.9,0.7,1.9,1.9c0,1.2-0.9,1.9-1.9,1.9s-1.9-0.7-1.9-1.9
		C437.8,27.4,438.7,26.7,439.8,26.7z M440.1,99.1c1,0,1.9,0.7,1.9,1.9c0,1.2-0.9,1.9-1.9,1.9s-1.9-0.7-1.9-1.9
		C438.1,99.9,439,99.1,440.1,99.1z M442.6,62c1,0,1.9,0.7,1.9,1.9c0,1.2-0.9,1.9-1.9,1.9s-1.9-0.7-1.9-1.9
		C440.7,62.7,441.6,62,442.6,62z M445.5,96c1,0,1.9,0.7,1.9,1.9c0,1.2-0.9,1.9-1.9,1.9s-1.9-0.7-1.9-1.9
		C443.5,96.7,444.4,96,445.5,96z M446.1,28.2c1,0,1.9,0.7,1.9,1.9c0,1.2-0.9,1.9-1.9,1.9s-1.9-0.7-1.9-1.9
		C444.1,28.9,445,28.2,446.1,28.2z M449.2,63.2c1,0,1.9,0.7,1.9,1.9s-0.9,1.9-1.9,1.9s-1.9-0.7-1.9-1.9
		C447.2,63.9,448.1,63.2,449.2,63.2z M449.9,91.8c1,0,1.9,0.7,1.9,1.9c0,1.2-0.9,1.9-1.9,1.9s-1.9-0.7-1.9-1.9
		S448.9,91.8,449.9,91.8z M451.3,31.7c1,0,1.9,0.7,1.9,1.9s-0.9,1.9-1.9,1.9s-1.9-0.7-1.9-1.9C449.3,32.5,450.2,31.7,451.3,31.7z
		 M454,37.6c1,0,1.9,0.7,1.9,1.9s-0.9,1.9-1.9,1.9s-1.9-0.7-1.9-1.9S452.9,37.6,454,37.6z M455.2,44c1,0,1.9,0.7,1.9,1.9
		s-0.9,1.9-1.9,1.9s-1.9-0.7-1.9-1.9C453.2,44.8,454.1,44,455.2,44z M455.5,50.6c1,0,1.9,0.7,1.9,1.9s-0.9,1.9-1.9,1.9
		s-1.9-0.7-1.9-1.9C453.5,51.4,454.4,50.6,455.5,50.6z M455.5,57.2c1,0,1.9,0.7,1.9,1.9s-0.9,1.9-1.9,1.9s-1.9-0.7-1.9-1.9
		C453.5,58,454.4,57.2,455.5,57.2z M455.5,63.8c1,0,1.9,0.7,1.9,1.9s-0.9,1.9-1.9,1.9s-1.9-0.7-1.9-1.9
		C453.5,64.5,454.4,63.8,455.5,63.8z M455.5,70.4c1,0,1.9,0.7,1.9,1.9c0,1.2-0.9,1.9-1.9,1.9s-1.9-0.7-1.9-1.9
		C453.5,71.1,454.4,70.4,455.5,70.4z M455.5,77c1,0,1.9,0.7,1.9,1.9c0,1.2-0.9,1.9-1.9,1.9s-1.9-0.7-1.9-1.9
		C453.5,77.7,454.4,77,455.5,77z M455.5,83.6c1,0,1.9,0.7,1.9,1.9c0,1.2-0.9,1.9-1.9,1.9s-1.9-0.7-1.9-1.9
		C453.5,84.3,454.4,83.6,455.5,83.6z M455.5,90.2c1,0,1.9,0.7,1.9,1.9c0,1.2-0.9,1.9-1.9,1.9s-1.9-0.7-1.9-1.9
		C453.5,90.9,454.4,90.2,455.5,90.2z M455.5,97c1,0,1.9,0.7,1.9,1.9c0,1.2-0.9,1.9-1.9,1.9s-1.9-0.7-1.9-1.9
		C453.5,97.8,454.4,97,455.5,97z M459.5,102c1,0,1.9,0.7,1.9,1.9c0,1.2-0.9,1.9-1.9,1.9s-1.9-0.7-1.9-1.9S458.5,102,459.5,102z
		 M465.7,101.8c1,0,1.9,0.7,1.9,1.9c0,1.2-0.9,1.9-1.9,1.9s-1.9-0.7-1.9-1.9C463.7,102.6,464.6,101.8,465.7,101.8z"/>
	<path class="st0" d="M474.7,26.8c1,0,1.9,0.7,1.9,1.9s-0.9,1.9-1.9,1.9s-1.9-0.7-1.9-1.9S473.6,26.8,474.7,26.8z M476.2,101.8
		c1,0,1.9,0.7,1.9,1.9c0,1.2-0.9,1.9-1.9,1.9s-1.9-0.7-1.9-1.9C474.2,102.6,475.1,101.8,476.2,101.8z M481,26.8c1,0,1.9,0.7,1.9,1.9
		s-0.9,1.9-1.9,1.9s-1.9-0.7-1.9-1.9S479.9,26.8,481,26.8z M482.8,101.8c1,0,1.9,0.7,1.9,1.9c0,1.2-0.9,1.9-1.9,1.9
		s-1.9-0.7-1.9-1.9C480.8,102.6,481.7,101.8,482.8,101.8z M487.3,26.8c1,0,1.9,0.7,1.9,1.9s-0.9,1.9-1.9,1.9s-1.9-0.7-1.9-1.9
		S486.2,26.8,487.3,26.8z M487.3,33.7c1,0,1.9,0.7,1.9,1.9s-0.9,1.9-1.9,1.9s-1.9-0.7-1.9-1.9C485.3,34.4,486.2,33.7,487.3,33.7z
		 M487.3,40.6c1,0,1.9,0.7,1.9,1.9s-0.9,1.9-1.9,1.9s-1.9-0.7-1.9-1.9C485.3,41.3,486.2,40.6,487.3,40.6z M487.3,47.5
		c1,0,1.9,0.7,1.9,1.9s-0.9,1.9-1.9,1.9s-1.9-0.7-1.9-1.9S486.2,47.5,487.3,47.5z M487.3,54.4c1,0,1.9,0.7,1.9,1.9s-0.9,1.9-1.9,1.9
		s-1.9-0.7-1.9-1.9S486.2,54.4,487.3,54.4z M487.3,61.3c1,0,1.9,0.7,1.9,1.9s-0.9,1.9-1.9,1.9s-1.9-0.7-1.9-1.9
		C485.3,62,486.2,61.3,487.3,61.3z M487.3,68.1c1,0,1.9,0.7,1.9,1.9c0,1.2-0.9,1.9-1.9,1.9s-1.9-0.7-1.9-1.9
		C485.3,68.9,486.2,68.1,487.3,68.1z M487.3,75c1,0,1.9,0.7,1.9,1.9c0,1.2-0.9,1.9-1.9,1.9s-1.9-0.7-1.9-1.9
		C485.3,75.8,486.2,75,487.3,75z M487.3,81.9c1,0,1.9,0.7,1.9,1.9c0,1.2-0.9,1.9-1.9,1.9s-1.9-0.7-1.9-1.9
		C485.3,82.7,486.2,81.9,487.3,81.9z M487.3,88.8c1,0,1.9,0.7,1.9,1.9c0,1.2-0.9,1.9-1.9,1.9s-1.9-0.7-1.9-1.9
		C485.3,89.6,486.2,88.8,487.3,88.8z M487.3,95.7c1,0,1.9,0.7,1.9,1.9c0,1.2-0.9,1.9-1.9,1.9s-1.9-0.7-1.9-1.9
		C485.3,96.4,486.2,95.7,487.3,95.7z M489.4,101.8c1,0,1.9,0.7,1.9,1.9c0,1.2-0.9,1.9-1.9,1.9s-1.9-0.7-1.9-1.9
		C487.4,102.6,488.3,101.8,489.4,101.8z M493,39.1c1,0,1.9,0.7,1.9,1.9s-0.9,1.9-1.9,1.9s-1.9-0.7-1.9-1.9
		C491,39.8,491.9,39.1,493,39.1z M496,101.8c1,0,1.9,0.7,1.9,1.9c0,1.2-0.9,1.9-1.9,1.9s-1.9-0.7-1.9-1.9
		C494,102.6,494.9,101.8,496,101.8z M498.1,35c1,0,1.9,0.7,1.9,1.9s-0.9,1.9-1.9,1.9s-1.9-0.7-1.9-1.9C496.1,35.8,497,35,498.1,35z
		 M502.6,101.8c1,0,1.9,0.7,1.9,1.9c0,1.2-0.9,1.9-1.9,1.9s-1.9-0.7-1.9-1.9C500.6,102.6,501.5,101.8,502.6,101.8z M503.5,31.9
		c1,0,1.9,0.7,1.9,1.9s-0.9,1.9-1.9,1.9s-1.9-0.7-1.9-1.9S502.4,31.9,503.5,31.9z M509.3,29.2c1,0,1.9,0.7,1.9,1.9s-0.9,1.9-1.9,1.9
		s-1.9-0.7-1.9-1.9C507.4,30,508.3,29.2,509.3,29.2z M515.6,27.3c1,0,1.9,0.7,1.9,1.9s-0.9,1.9-1.9,1.9s-1.9-0.7-1.9-1.9
		S514.6,27.3,515.6,27.3z M522.1,26.4c1,0,1.9,0.7,1.9,1.9s-0.9,1.9-1.9,1.9s-1.9-0.7-1.9-1.9S521,26.4,522.1,26.4z M528.7,26.4
		c1,0,1.9,0.7,1.9,1.9s-0.9,1.9-1.9,1.9s-1.9-0.7-1.9-1.9S527.6,26.4,528.7,26.4z M528.7,101.8c1,0,1.9,0.7,1.9,1.9
		c0,1.2-0.9,1.9-1.9,1.9s-1.9-0.7-1.9-1.9C526.7,102.6,527.6,101.8,528.7,101.8z M535.1,27.6c1,0,1.9,0.7,1.9,1.9s-0.9,1.9-1.9,1.9
		s-1.9-0.7-1.9-1.9S534.1,27.6,535.1,27.6z M535.3,101.8c1,0,1.9,0.7,1.9,1.9c0,1.2-0.9,1.9-1.9,1.9s-1.9-0.7-1.9-1.9
		C533.3,102.6,534.2,101.8,535.3,101.8z M540.1,31.4c1,0,1.9,0.7,1.9,1.9s-0.9,1.9-1.9,1.9s-1.9-0.7-1.9-1.9
		C538.1,32.2,539,31.4,540.1,31.4z M541.9,101.8c1,0,1.9,0.7,1.9,1.9c0,1.2-0.9,1.9-1.9,1.9s-1.9-0.7-1.9-1.9
		C539.9,102.6,540.8,101.8,541.9,101.8z M542.8,37c1,0,1.9,0.7,1.9,1.9s-0.9,1.9-1.9,1.9s-1.9-0.7-1.9-1.9
		C540.8,37.7,541.7,37,542.8,37z M544,43c1,0,1.9,0.7,1.9,1.9s-0.9,1.9-1.9,1.9s-1.9-0.7-1.9-1.9S542.9,43,544,43z M544.3,49.6
		c1,0,1.9,0.7,1.9,1.9s-0.9,1.9-1.9,1.9s-1.9-0.7-1.9-1.9C542.3,50.3,543.2,49.6,544.3,49.6z M544.3,56.2c1,0,1.9,0.7,1.9,1.9
		s-0.9,1.9-1.9,1.9s-1.9-0.7-1.9-1.9C542.3,56.9,543.2,56.2,544.3,56.2z M544.3,62.7c1,0,1.9,0.7,1.9,1.9s-0.9,1.9-1.9,1.9
		s-1.9-0.7-1.9-1.9C542.3,63.5,543.2,62.7,544.3,62.7z M544.3,69.3c1,0,1.9,0.7,1.9,1.9c0,1.2-0.9,1.9-1.9,1.9s-1.9-0.7-1.9-1.9
		C542.3,70.1,543.2,69.3,544.3,69.3z M544.3,75.9c1,0,1.9,0.7,1.9,1.9c0,1.2-0.9,1.9-1.9,1.9s-1.9-0.7-1.9-1.9
		C542.3,76.7,543.2,75.9,544.3,75.9z M544.3,82.5c1,0,1.9,0.7,1.9,1.9c0,1.2-0.9,1.9-1.9,1.9s-1.9-0.7-1.9-1.9
		C542.3,83.3,543.2,82.5,544.3,82.5z M544.3,89.1c1,0,1.9,0.7,1.9,1.9c0,1.2-0.9,1.9-1.9,1.9s-1.9-0.7-1.9-1.9
		C542.3,89.9,543.2,89.1,544.3,89.1z M544.3,95.7c1,0,1.9,0.7,1.9,1.9c0,1.2-0.9,1.9-1.9,1.9s-1.9-0.7-1.9-1.9
		C542.3,96.4,543.2,95.7,544.3,95.7z M548.5,101.8c1,0,1.9,0.7,1.9,1.9c0,1.2-0.9,1.9-1.9,1.9s-1.9-0.7-1.9-1.9
		C546.5,102.6,547.4,101.8,548.5,101.8z M555.1,101.8c1,0,1.9,0.7,1.9,1.9c0,1.2-0.9,1.9-1.9,1.9s-1.9-0.7-1.9-1.9
		C553.1,102.6,554,101.8,555.1,101.8z"/>
	<path class="st0" d="M1.9,150.8c1,0,1.9,0.7,1.9,1.9s-0.9,1.9-1.9,1.9S0,153.9,0,152.7S0.9,150.8,1.9,150.8z M1.9,252.6
		c1,0,1.9,0.7,1.9,1.9s-0.9,1.9-1.9,1.9S0,255.7,0,254.5S0.9,252.6,1.9,252.6z M8.4,150.8c1,0,1.9,0.7,1.9,1.9s-0.9,1.9-1.9,1.9
		s-1.9-0.7-1.9-1.9C6.4,151.5,7.3,150.8,8.4,150.8z M8.4,252.6c1,0,1.9,0.7,1.9,1.9s-0.9,1.9-1.9,1.9s-1.9-0.7-1.9-1.9
		C6.4,253.3,7.3,252.6,8.4,252.6z M14.8,150.8c1,0,1.9,0.7,1.9,1.9s-0.9,1.9-1.9,1.9s-1.9-0.7-1.9-1.9
		C12.9,151.5,13.8,150.8,14.8,150.8z M14.8,252.6c1,0,1.9,0.7,1.9,1.9s-0.9,1.9-1.9,1.9s-1.9-0.7-1.9-1.9
		C12.9,253.3,13.8,252.6,14.8,252.6z M15.4,156.6c1,0,1.9,0.7,1.9,1.9s-0.9,1.9-1.9,1.9s-1.9-0.7-1.9-1.9
		C13.5,157.4,14.4,156.6,15.4,156.6z M15.4,163c1,0,1.9,0.7,1.9,1.9s-0.9,1.9-1.9,1.9s-1.9-0.7-1.9-1.9
		C13.5,163.8,14.4,163,15.4,163z M15.4,169.5c1,0,1.9,0.7,1.9,1.9s-0.9,1.9-1.9,1.9s-1.9-0.7-1.9-1.9S14.4,169.5,15.4,169.5z
		 M15.4,175.9c1,0,1.9,0.7,1.9,1.9s-0.9,1.9-1.9,1.9s-1.9-0.7-1.9-1.9C13.5,176.7,14.4,175.9,15.4,175.9z M15.4,182.4
		c1,0,1.9,0.7,1.9,1.9s-0.9,1.9-1.9,1.9s-1.9-0.7-1.9-1.9S14.4,182.4,15.4,182.4z M15.4,188.8c1,0,1.9,0.7,1.9,1.9s-0.9,1.9-1.9,1.9
		s-1.9-0.7-1.9-1.9S14.4,188.8,15.4,188.8z M15.4,195.2c1,0,1.9,0.7,1.9,1.9s-0.9,1.9-1.9,1.9s-1.9-0.7-1.9-1.9
		C13.5,196,14.4,195.2,15.4,195.2z M15.4,201.7c1,0,1.9,0.7,1.9,1.9s-0.9,1.9-1.9,1.9s-1.9-0.7-1.9-1.9S14.4,201.7,15.4,201.7z
		 M15.4,208.1c1,0,1.9,0.7,1.9,1.9s-0.9,1.9-1.9,1.9s-1.9-0.7-1.9-1.9S14.4,208.1,15.4,208.1z M15.4,214.6c1,0,1.9,0.7,1.9,1.9
		s-0.9,1.9-1.9,1.9s-1.9-0.7-1.9-1.9S14.4,214.6,15.4,214.6z M15.4,221c1,0,1.9,0.7,1.9,1.9s-0.9,1.9-1.9,1.9s-1.9-0.7-1.9-1.9
		S14.4,221,15.4,221z M15.4,227.4c1,0,1.9,0.7,1.9,1.9s-0.9,1.9-1.9,1.9s-1.9-0.7-1.9-1.9C13.5,228.2,14.4,227.4,15.4,227.4z
		 M15.4,233.9c1,0,1.9,0.7,1.9,1.9s-0.9,1.9-1.9,1.9s-1.9-0.7-1.9-1.9C13.5,234.6,14.4,233.9,15.4,233.9z M15.4,240.3
		c1,0,1.9,0.7,1.9,1.9s-0.9,1.9-1.9,1.9s-1.9-0.7-1.9-1.9C13.5,241.1,14.4,240.3,15.4,240.3z M15.4,246.8c1,0,1.9,0.7,1.9,1.9
		s-0.9,1.9-1.9,1.9s-1.9-0.7-1.9-1.9S14.4,246.8,15.4,246.8z M20.7,210.8c1,0,1.9,0.7,1.9,1.9s-0.9,1.9-1.9,1.9s-1.9-0.7-1.9-1.9
		C18.7,211.6,19.6,210.8,20.7,210.8z M21.3,150.8c1,0,1.9,0.7,1.9,1.9s-0.9,1.9-1.9,1.9s-1.9-0.7-1.9-1.9
		C19.3,151.5,20.2,150.8,21.3,150.8z M21.3,252.6c1,0,1.9,0.7,1.9,1.9s-0.9,1.9-1.9,1.9s-1.9-0.7-1.9-1.9
		C19.3,253.3,20.2,252.6,21.3,252.6z M25.3,205.9c1,0,1.9,0.7,1.9,1.9s-0.9,1.9-1.9,1.9s-1.9-0.7-1.9-1.9S24.3,205.9,25.3,205.9z
		 M27.7,150.8c1,0,1.9,0.7,1.9,1.9s-0.9,1.9-1.9,1.9s-1.9-0.7-1.9-1.9C25.8,151.5,26.7,150.8,27.7,150.8z M27.7,252.6
		c1,0,1.9,0.7,1.9,1.9s-0.9,1.9-1.9,1.9s-1.9-0.7-1.9-1.9C25.8,253.3,26.7,252.6,27.7,252.6z M30,200.9c1,0,1.9,0.7,1.9,1.9
		s-0.9,1.9-1.9,1.9s-1.9-0.7-1.9-1.9C28,201.7,28.9,200.9,30,200.9z M34.2,150.8c1,0,1.9,0.7,1.9,1.9s-0.9,1.9-1.9,1.9
		s-1.9-0.7-1.9-1.9C32.2,151.5,33.1,150.8,34.2,150.8z M34.2,252.6c1,0,1.9,0.7,1.9,1.9s-0.9,1.9-1.9,1.9s-1.9-0.7-1.9-1.9
		C32.2,253.3,33.1,252.6,34.2,252.6z M34.5,196c1,0,1.9,0.7,1.9,1.9s-0.9,1.9-1.9,1.9s-1.9-0.7-1.9-1.9S33.4,196,34.5,196z
		 M39.1,191c1,0,1.9,0.7,1.9,1.9s-0.9,1.9-1.9,1.9s-1.9-0.7-1.9-1.9C37.2,191.8,38.1,191,39.1,191z M41.8,196.9c1,0,1.9,0.7,1.9,1.9
		s-0.9,1.9-1.9,1.9s-1.9-0.7-1.9-1.9C39.9,197.6,40.8,196.9,41.8,196.9z M43.8,186.1c1,0,1.9,0.7,1.9,1.9s-0.9,1.9-1.9,1.9
		s-1.9-0.7-1.9-1.9C41.8,186.9,42.7,186.1,43.8,186.1z M45.6,202.4c1,0,1.9,0.7,1.9,1.9s-0.9,1.9-1.9,1.9s-1.9-0.7-1.9-1.9
		C43.6,203.2,44.5,202.4,45.6,202.4z M48.4,181.2c1,0,1.9,0.7,1.9,1.9s-0.9,1.9-1.9,1.9s-1.9-0.7-1.9-1.9S47.4,181.2,48.4,181.2z
		 M49.2,208c1,0,1.9,0.7,1.9,1.9s-0.9,1.9-1.9,1.9s-1.9-0.7-1.9-1.9C47.2,208.7,48.1,208,49.2,208z M52.9,213.5c1,0,1.9,0.7,1.9,1.9
		s-0.9,1.9-1.9,1.9s-1.9-0.7-1.9-1.9C51,214.3,51.9,213.5,52.9,213.5z M53.1,176.2c1,0,1.9,0.7,1.9,1.9s-0.9,1.9-1.9,1.9
		s-1.9-0.7-1.9-1.9C51.1,177,52,176.2,53.1,176.2z M56.7,219.1c1,0,1.9,0.7,1.9,1.9s-0.9,1.9-1.9,1.9s-1.9-0.7-1.9-1.9
		C54.7,219.8,55.6,219.1,56.7,219.1z M57.6,171.3c1,0,1.9,0.7,1.9,1.9s-0.9,1.9-1.9,1.9s-1.9-0.7-1.9-1.9S56.5,171.3,57.6,171.3z
		 M60.3,224.6c1,0,1.9,0.7,1.9,1.9s-0.9,1.9-1.9,1.9s-1.9-0.7-1.9-1.9C58.3,225.3,59.2,224.6,60.3,224.6z M61.9,150.8
		c1,0,1.9,0.7,1.9,1.9s-0.9,1.9-1.9,1.9s-1.9-0.7-1.9-1.9S60.9,150.8,61.9,150.8z M62.2,166.3c1,0,1.9,0.7,1.9,1.9s-0.9,1.9-1.9,1.9
		s-1.9-0.7-1.9-1.9C60.3,167.1,61.2,166.3,62.2,166.3z M64,230.1c1,0,1.9,0.7,1.9,1.9s-0.9,1.9-1.9,1.9s-1.9-0.7-1.9-1.9
		C62.1,230.9,63,230.1,64,230.1z M66.9,161.4c1,0,1.9,0.7,1.9,1.9s-0.9,1.9-1.9,1.9s-1.9-0.7-1.9-1.9S65.8,161.4,66.9,161.4z
		 M67.8,235.7c1,0,1.9,0.7,1.9,1.9s-0.9,1.9-1.9,1.9s-1.9-0.7-1.9-1.9C65.8,236.4,66.7,235.7,67.8,235.7z M68.4,150.8
		c1,0,1.9,0.7,1.9,1.9s-0.9,1.9-1.9,1.9s-1.9-0.7-1.9-1.9C66.4,151.5,67.3,150.8,68.4,150.8z M71.4,241.2c1,0,1.9,0.7,1.9,1.9
		s-0.9,1.9-1.9,1.9s-1.9-0.7-1.9-1.9C69.4,242,70.3,241.2,71.4,241.2z M71.5,156.5c1,0,1.9,0.7,1.9,1.9s-0.9,1.9-1.9,1.9
		s-1.9-0.7-1.9-1.9S70.5,156.5,71.5,156.5z M74.8,150.8c1,0,1.9,0.7,1.9,1.9s-0.9,1.9-1.9,1.9s-1.9-0.7-1.9-1.9
		S73.8,150.8,74.8,150.8z M75,246.8c1,0,1.9,0.7,1.9,1.9s-0.9,1.9-1.9,1.9s-1.9-0.7-1.9-1.9C73,247.5,73.9,246.8,75,246.8z
		 M77.7,252.6c1,0,1.9,0.7,1.9,1.9s-0.9,1.9-1.9,1.9s-1.9-0.7-1.9-1.9C75.7,253.3,76.6,252.6,77.7,252.6z M81.3,150.8
		c1,0,1.9,0.7,1.9,1.9s-0.9,1.9-1.9,1.9s-1.9-0.7-1.9-1.9C79.3,151.5,80.2,150.8,81.3,150.8z M84.1,252.6c1,0,1.9,0.7,1.9,1.9
		s-0.9,1.9-1.9,1.9s-1.9-0.7-1.9-1.9S83.1,252.6,84.1,252.6z M87.7,150.8c1,0,1.9,0.7,1.9,1.9s-0.9,1.9-1.9,1.9s-1.9-0.7-1.9-1.9
		C85.8,151.5,86.7,150.8,87.7,150.8z M90.6,252.6c1,0,1.9,0.7,1.9,1.9s-0.9,1.9-1.9,1.9s-1.9-0.7-1.9-1.9
		C88.6,253.3,89.5,252.6,90.6,252.6z"/>
	<path class="st0" d="M99.7,177.6c1,0,1.9,0.7,1.9,1.9s-0.9,1.9-1.9,1.9s-1.9-0.7-1.9-1.9S98.7,177.6,99.7,177.6z M100.6,252.6
		c1,0,1.9,0.7,1.9,1.9s-0.9,1.9-1.9,1.9s-1.9-0.7-1.9-1.9S99.6,252.6,100.6,252.6z M106.3,177.6c1,0,1.9,0.7,1.9,1.9
		s-0.9,1.9-1.9,1.9s-1.9-0.7-1.9-1.9S105.3,177.6,106.3,177.6z M107.2,252.6c1,0,1.9,0.7,1.9,1.9s-0.9,1.9-1.9,1.9s-1.9-0.7-1.9-1.9
		C105.3,253.3,106.2,252.6,107.2,252.6z M112,159.7c1,0,1.9,0.7,1.9,1.9s-0.9,1.9-1.9,1.9s-1.9-0.7-1.9-1.9
		C110.1,160.5,111,159.7,112,159.7z M112.8,177.6c1,0,1.9,0.7,1.9,1.9s-0.9,1.9-1.9,1.9s-1.9-0.7-1.9-1.9S111.7,177.6,112.8,177.6z
		 M112.8,184.6c1,0,1.9,0.7,1.9,1.9s-0.9,1.9-1.9,1.9s-1.9-0.7-1.9-1.9S111.7,184.6,112.8,184.6z M112.8,191.5c1,0,1.9,0.7,1.9,1.9
		s-0.9,1.9-1.9,1.9s-1.9-0.7-1.9-1.9C110.8,192.2,111.7,191.5,112.8,191.5z M112.8,198.4c1,0,1.9,0.7,1.9,1.9s-0.9,1.9-1.9,1.9
		s-1.9-0.7-1.9-1.9C110.8,199.1,111.7,198.4,112.8,198.4z M112.8,205.3c1,0,1.9,0.7,1.9,1.9s-0.9,1.9-1.9,1.9s-1.9-0.7-1.9-1.9
		S111.7,205.3,112.8,205.3z M112.8,212c1,0,1.9,0.7,1.9,1.9s-0.9,1.9-1.9,1.9s-1.9-0.7-1.9-1.9C110.8,212.8,111.7,212,112.8,212z
		 M112.8,218.6c1,0,1.9,0.7,1.9,1.9s-0.9,1.9-1.9,1.9s-1.9-0.7-1.9-1.9C110.8,219.4,111.7,218.6,112.8,218.6z M112.8,225.3
		c1,0,1.9,0.7,1.9,1.9s-0.9,1.9-1.9,1.9s-1.9-0.7-1.9-1.9C110.8,226.1,111.7,225.3,112.8,225.3z M112.8,232.1c1,0,1.9,0.7,1.9,1.9
		s-0.9,1.9-1.9,1.9s-1.9-0.7-1.9-1.9C110.8,232.8,111.7,232.1,112.8,232.1z M112.8,239c1,0,1.9,0.7,1.9,1.9s-0.9,1.9-1.9,1.9
		s-1.9-0.7-1.9-1.9C110.8,239.7,111.7,239,112.8,239z M112.8,245.9c1,0,1.9,0.7,1.9,1.9s-0.9,1.9-1.9,1.9s-1.9-0.7-1.9-1.9
		S111.7,245.9,112.8,245.9z M113.8,252.6c1,0,1.9,0.7,1.9,1.9s-0.9,1.9-1.9,1.9s-1.9-0.7-1.9-1.9S112.8,252.6,113.8,252.6z
		 M120.4,252.6c1,0,1.9,0.7,1.9,1.9s-0.9,1.9-1.9,1.9s-1.9-0.7-1.9-1.9C118.4,253.3,119.3,252.6,120.4,252.6z M127,252.6
		c1,0,1.9,0.7,1.9,1.9s-0.9,1.9-1.9,1.9s-1.9-0.7-1.9-1.9C125,253.3,125.9,252.6,127,252.6z"/>
	<path class="st0" d="M134.6,177.6c1,0,1.9,0.7,1.9,1.9s-0.9,1.9-1.9,1.9s-1.9-0.7-1.9-1.9S133.6,177.6,134.6,177.6z M141.1,177.6
		c1,0,1.9,0.7,1.9,1.9s-0.9,1.9-1.9,1.9s-1.9-0.7-1.9-1.9S140,177.6,141.1,177.6z M147.2,157.5c1,0,1.9,0.7,1.9,1.9
		s-0.9,1.9-1.9,1.9s-1.9-0.7-1.9-1.9S146.2,157.5,147.2,157.5z M147.2,164.2c1,0,1.9,0.7,1.9,1.9s-0.9,1.9-1.9,1.9s-1.9-0.7-1.9-1.9
		S146.2,164.2,147.2,164.2z M147.2,170.8c1,0,1.9,0.7,1.9,1.9s-0.9,1.9-1.9,1.9s-1.9-0.7-1.9-1.9
		C145.3,171.6,146.2,170.8,147.2,170.8z M147.2,177.6c1,0,1.9,0.7,1.9,1.9s-0.9,1.9-1.9,1.9s-1.9-0.7-1.9-1.9
		S146.2,177.6,147.2,177.6z M147.2,184.2c1,0,1.9,0.7,1.9,1.9s-0.9,1.9-1.9,1.9s-1.9-0.7-1.9-1.9S146.2,184.2,147.2,184.2z
		 M147.2,190.9c1,0,1.9,0.7,1.9,1.9s-0.9,1.9-1.9,1.9s-1.9-0.7-1.9-1.9S146.2,190.9,147.2,190.9z M147.2,197.5c1,0,1.9,0.7,1.9,1.9
		s-0.9,1.9-1.9,1.9s-1.9-0.7-1.9-1.9S146.2,197.5,147.2,197.5z M147.2,204.2c1,0,1.9,0.7,1.9,1.9s-0.9,1.9-1.9,1.9s-1.9-0.7-1.9-1.9
		C145.3,205,146.2,204.2,147.2,204.2z M147.2,210.8c1,0,1.9,0.7,1.9,1.9s-0.9,1.9-1.9,1.9s-1.9-0.7-1.9-1.9
		C145.3,211.6,146.2,210.8,147.2,210.8z M147.2,217.6c1,0,1.9,0.7,1.9,1.9s-0.9,1.9-1.9,1.9s-1.9-0.7-1.9-1.9
		S146.2,217.6,147.2,217.6z M147.2,224.1c1,0,1.9,0.7,1.9,1.9s-0.9,1.9-1.9,1.9s-1.9-0.7-1.9-1.9
		C145.3,224.9,146.2,224.1,147.2,224.1z M147.2,230.9c1,0,1.9,0.7,1.9,1.9s-0.9,1.9-1.9,1.9s-1.9-0.7-1.9-1.9
		C145.3,231.6,146.2,230.9,147.2,230.9z M147.2,237.3c1,0,1.9,0.7,1.9,1.9s-0.9,1.9-1.9,1.9s-1.9-0.7-1.9-1.9
		S146.2,237.3,147.2,237.3z M147.8,243.6c1,0,1.9,0.7,1.9,1.9s-0.9,1.9-1.9,1.9s-1.9-0.7-1.9-1.9S146.8,243.6,147.8,243.6z
		 M150.4,249.2c1,0,1.9,0.7,1.9,1.9s-0.9,1.9-1.9,1.9s-1.9-0.7-1.9-1.9C148.4,249.9,149.3,249.2,150.4,249.2z M153.2,177.6
		c1,0,1.9,0.7,1.9,1.9s-0.9,1.9-1.9,1.9s-1.9-0.7-1.9-1.9S152.2,177.6,153.2,177.6z M155.6,252.4c1,0,1.9,0.7,1.9,1.9
		s-0.9,1.9-1.9,1.9s-1.9-0.7-1.9-1.9S154.6,252.4,155.6,252.4z M159.5,177.6c1,0,1.9,0.7,1.9,1.9s-0.9,1.9-1.9,1.9s-1.9-0.7-1.9-1.9
		S158.5,177.6,159.5,177.6z M161.8,253.5c1,0,1.9,0.7,1.9,1.9c0,1.2-0.9,1.9-1.9,1.9s-1.9-0.7-1.9-1.9S160.7,253.5,161.8,253.5z
		 M165.8,177.6c1,0,1.9,0.7,1.9,1.9s-0.9,1.9-1.9,1.9s-1.9-0.7-1.9-1.9S164.8,177.6,165.8,177.6z M167.9,253c1,0,1.9,0.7,1.9,1.9
		c0,1.2-0.9,1.9-1.9,1.9s-1.9-0.7-1.9-1.9C166,253.8,166.9,253,167.9,253z M172.1,177.6c1,0,1.9,0.7,1.9,1.9s-0.9,1.9-1.9,1.9
		s-1.9-0.7-1.9-1.9S171.1,177.6,172.1,177.6z M173.8,251.1c1,0,1.9,0.7,1.9,1.9s-0.9,1.9-1.9,1.9s-1.9-0.7-1.9-1.9
		C171.8,251.8,172.7,251.1,173.8,251.1z"/>
	<path class="st0" d="M185.6,215.3c1,0,1.9,0.7,1.9,1.9s-0.9,1.9-1.9,1.9s-1.9-0.7-1.9-1.9C183.7,216.1,184.6,215.3,185.6,215.3z
		 M185.8,221.7c1,0,1.9,0.7,1.9,1.9s-0.9,1.9-1.9,1.9s-1.9-0.7-1.9-1.9S184.7,221.7,185.8,221.7z M185.9,208.9c1,0,1.9,0.7,1.9,1.9
		s-0.9,1.9-1.9,1.9s-1.9-0.7-1.9-1.9C184,209.6,184.9,208.9,185.9,208.9z M187,228.2c1,0,1.9,0.7,1.9,1.9S188,232,187,232
		s-1.9-0.7-1.9-1.9C185,228.9,185.9,228.2,187,228.2z M187.1,202.4c1,0,1.9,0.7,1.9,1.9s-0.9,1.9-1.9,1.9s-1.9-0.7-1.9-1.9
		C185.2,203.2,186.1,202.4,187.1,202.4z M189.1,234.5c1,0,1.9,0.7,1.9,1.9s-0.9,1.9-1.9,1.9s-1.9-0.7-1.9-1.9
		C187.1,235.2,188,234.5,189.1,234.5z M189.4,196.1c1,0,1.9,0.7,1.9,1.9s-0.9,1.9-1.9,1.9s-1.9-0.7-1.9-1.9
		C187.4,196.9,188.3,196.1,189.4,196.1z M192.2,240.3c1,0,1.9,0.7,1.9,1.9s-0.9,1.9-1.9,1.9s-1.9-0.7-1.9-1.9
		C190.3,241.1,191.2,240.3,192.2,240.3z M192.5,190.4c1,0,1.9,0.7,1.9,1.9s-0.9,1.9-1.9,1.9s-1.9-0.7-1.9-1.9
		C190.6,191.2,191.5,190.4,192.5,190.4z M196.3,245.4c1,0,1.9,0.7,1.9,1.9s-0.9,1.9-1.9,1.9s-1.9-0.7-1.9-1.9
		C194.3,246.2,195.2,245.4,196.3,245.4z M196.6,185.5c1,0,1.9,0.7,1.9,1.9s-0.9,1.9-1.9,1.9s-1.9-0.7-1.9-1.9
		C194.6,186.3,195.5,185.5,196.6,185.5z M201.5,249c1,0,1.9,0.7,1.9,1.9s-0.9,1.9-1.9,1.9s-1.9-0.7-1.9-1.9S200.5,249,201.5,249z
		 M201.8,181.6c1,0,1.9,0.7,1.9,1.9s-0.9,1.9-1.9,1.9s-1.9-0.7-1.9-1.9C199.9,182.4,200.8,181.6,201.8,181.6z M207.4,251.5
		c1,0,1.9,0.7,1.9,1.9s-0.9,1.9-1.9,1.9s-1.9-0.7-1.9-1.9C205.4,252.3,206.3,251.5,207.4,251.5z M207.8,178.9c1,0,1.9,0.7,1.9,1.9
		s-0.9,1.9-1.9,1.9s-1.9-0.7-1.9-1.9C205.9,179.7,206.8,178.9,207.8,178.9z M213.7,253c1,0,1.9,0.7,1.9,1.9c0,1.2-0.9,1.9-1.9,1.9
		s-1.9-0.7-1.9-1.9C211.7,253.8,212.6,253,213.7,253z M214.4,177.6c1,0,1.9,0.7,1.9,1.9s-0.9,1.9-1.9,1.9s-1.9-0.7-1.9-1.9
		S213.4,177.6,214.4,177.6z M220.1,253.5c1,0,1.9,0.7,1.9,1.9c0,1.2-0.9,1.9-1.9,1.9s-1.9-0.7-1.9-1.9S219.1,253.5,220.1,253.5z
		 M221,177.1c1,0,1.9,0.7,1.9,1.9s-0.9,1.9-1.9,1.9s-1.9-0.7-1.9-1.9C219.1,177.9,220,177.1,221,177.1z M226.5,253.2
		c1,0,1.9,0.7,1.9,1.9s-0.9,1.9-1.9,1.9s-1.9-0.7-1.9-1.9C224.6,253.9,225.5,253.2,226.5,253.2z M227.4,177.1c1,0,1.9,0.7,1.9,1.9
		s-0.9,1.9-1.9,1.9s-1.9-0.7-1.9-1.9C225.5,177.9,226.4,177.1,227.4,177.1z M232.8,252c1,0,1.9,0.7,1.9,1.9s-0.9,1.9-1.9,1.9
		s-1.9-0.7-1.9-1.9C230.9,252.7,231.8,252,232.8,252z M233.7,177.6c1,0,1.9,0.7,1.9,1.9s-0.9,1.9-1.9,1.9s-1.9-0.7-1.9-1.9
		S232.7,177.6,233.7,177.6z M238.7,249.8c1,0,1.9,0.7,1.9,1.9s-0.9,1.9-1.9,1.9s-1.9-0.7-1.9-1.9
		C236.7,250.5,237.6,249.8,238.7,249.8z M239.9,178.8c1,0,1.9,0.7,1.9,1.9s-0.9,1.9-1.9,1.9s-1.9-0.7-1.9-1.9
		C237.9,179.5,238.8,178.8,239.9,178.8z M243.9,246.5c1,0,1.9,0.7,1.9,1.9s-0.9,1.9-1.9,1.9s-1.9-0.7-1.9-1.9
		S242.9,246.5,243.9,246.5z M245.9,180.9c1,0,1.9,0.7,1.9,1.9s-0.9,1.9-1.9,1.9s-1.9-0.7-1.9-1.9S244.8,180.9,245.9,180.9z
		 M245.9,187.2c1,0,1.9,0.7,1.9,1.9s-0.9,1.9-1.9,1.9s-1.9-0.7-1.9-1.9S244.8,187.2,245.9,187.2z M245.9,193.4c1,0,1.9,0.7,1.9,1.9
		s-0.9,1.9-1.9,1.9s-1.9-0.7-1.9-1.9S244.8,193.4,245.9,193.4z M248.4,242c1,0,1.9,0.7,1.9,1.9s-0.9,1.9-1.9,1.9s-1.9-0.7-1.9-1.9
		S247.4,242,248.4,242z"/>
	<path class="st0" d="M258.5,150.8c1,0,1.9,0.7,1.9,1.9s-0.9,1.9-1.9,1.9s-1.9-0.7-1.9-1.9C256.5,151.5,257.4,150.8,258.5,150.8z
		 M260.6,252.6c1,0,1.9,0.7,1.9,1.9s-0.9,1.9-1.9,1.9s-1.9-0.7-1.9-1.9C258.6,253.3,259.5,252.6,260.6,252.6z M265.1,150.8
		c1,0,1.9,0.7,1.9,1.9s-0.9,1.9-1.9,1.9s-1.9-0.7-1.9-1.9C263.1,151.5,264,150.8,265.1,150.8z M267.2,252.6c1,0,1.9,0.7,1.9,1.9
		s-0.9,1.9-1.9,1.9s-1.9-0.7-1.9-1.9C265.2,253.3,266.1,252.6,267.2,252.6z M271.7,150.8c1,0,1.9,0.7,1.9,1.9s-0.9,1.9-1.9,1.9
		s-1.9-0.7-1.9-1.9C269.7,151.5,270.6,150.8,271.7,150.8z M271.7,157.2c1,0,1.9,0.7,1.9,1.9s-0.9,1.9-1.9,1.9s-1.9-0.7-1.9-1.9
		C269.7,157.9,270.6,157.2,271.7,157.2z M271.7,163.6c1,0,1.9,0.7,1.9,1.9s-0.9,1.9-1.9,1.9s-1.9-0.7-1.9-1.9
		S270.6,163.6,271.7,163.6z M271.7,170.1c1,0,1.9,0.7,1.9,1.9s-0.9,1.9-1.9,1.9s-1.9-0.7-1.9-1.9
		C269.7,170.8,270.6,170.1,271.7,170.1z M271.7,176.5c1,0,1.9,0.7,1.9,1.9s-0.9,1.9-1.9,1.9s-1.9-0.7-1.9-1.9
		C269.7,177.3,270.6,176.5,271.7,176.5z M271.7,183c1,0,1.9,0.7,1.9,1.9s-0.9,1.9-1.9,1.9s-1.9-0.7-1.9-1.9
		C269.7,183.7,270.6,183,271.7,183z M271.7,189.4c1,0,1.9,0.7,1.9,1.9s-0.9,1.9-1.9,1.9s-1.9-0.7-1.9-1.9S270.6,189.4,271.7,189.4z
		 M271.7,195.8c1,0,1.9,0.7,1.9,1.9s-0.9,1.9-1.9,1.9s-1.9-0.7-1.9-1.9C269.7,196.6,270.6,195.8,271.7,195.8z M271.7,202.3
		c1,0,1.9,0.7,1.9,1.9s-0.9,1.9-1.9,1.9s-1.9-0.7-1.9-1.9C269.7,203,270.6,202.3,271.7,202.3z M271.7,208.7c1,0,1.9,0.7,1.9,1.9
		s-0.9,1.9-1.9,1.9s-1.9-0.7-1.9-1.9C269.7,209.5,270.6,208.7,271.7,208.7z M271.7,215.2c1,0,1.9,0.7,1.9,1.9s-0.9,1.9-1.9,1.9
		s-1.9-0.7-1.9-1.9C269.7,215.9,270.6,215.2,271.7,215.2z M271.7,221.6c1,0,1.9,0.7,1.9,1.9s-0.9,1.9-1.9,1.9s-1.9-0.7-1.9-1.9
		C269.7,222.3,270.6,221.6,271.7,221.6z M271.7,228c1,0,1.9,0.7,1.9,1.9s-0.9,1.9-1.9,1.9s-1.9-0.7-1.9-1.9S270.6,228,271.7,228z
		 M271.7,234.5c1,0,1.9,0.7,1.9,1.9s-0.9,1.9-1.9,1.9s-1.9-0.7-1.9-1.9C269.7,235.2,270.6,234.5,271.7,234.5z M271.7,240.9
		c1,0,1.9,0.7,1.9,1.9s-0.9,1.9-1.9,1.9s-1.9-0.7-1.9-1.9C269.7,241.7,270.6,240.9,271.7,240.9z M271.7,247.4c1,0,1.9,0.7,1.9,1.9
		s-0.9,1.9-1.9,1.9s-1.9-0.7-1.9-1.9C269.7,248.1,270.6,247.4,271.7,247.4z M273.8,252.6c1,0,1.9,0.7,1.9,1.9s-0.9,1.9-1.9,1.9
		s-1.9-0.7-1.9-1.9C271.8,253.3,272.7,252.6,273.8,252.6z M277.4,189.8c1,0,1.9,0.7,1.9,1.9s-0.9,1.9-1.9,1.9s-1.9-0.7-1.9-1.9
		C275.4,190.6,276.3,189.8,277.4,189.8z M280.4,252.6c1,0,1.9,0.7,1.9,1.9s-0.9,1.9-1.9,1.9s-1.9-0.7-1.9-1.9
		C278.4,253.3,279.3,252.6,280.4,252.6z M282.5,185.8c1,0,1.9,0.7,1.9,1.9s-0.9,1.9-1.9,1.9s-1.9-0.7-1.9-1.9
		C280.5,186.6,281.4,185.8,282.5,185.8z M287,252.6c1,0,1.9,0.7,1.9,1.9s-0.9,1.9-1.9,1.9s-1.9-0.7-1.9-1.9
		C285,253.3,285.9,252.6,287,252.6z M287.9,182.7c1,0,1.9,0.7,1.9,1.9s-0.9,1.9-1.9,1.9s-1.9-0.7-1.9-1.9S286.8,182.7,287.9,182.7z
		 M293.7,180c1,0,1.9,0.7,1.9,1.9s-0.9,1.9-1.9,1.9s-1.9-0.7-1.9-1.9C291.8,180.7,292.7,180,293.7,180z M300,178
		c1,0,1.9,0.7,1.9,1.9s-0.9,1.9-1.9,1.9s-1.9-0.7-1.9-1.9S299,178,300,178z M306.5,177.1c1,0,1.9,0.7,1.9,1.9s-0.9,1.9-1.9,1.9
		s-1.9-0.7-1.9-1.9C304.5,177.9,305.4,177.1,306.5,177.1z M313.1,177.1c1,0,1.9,0.7,1.9,1.9s-0.9,1.9-1.9,1.9s-1.9-0.7-1.9-1.9
		C311.1,177.9,312,177.1,313.1,177.1z M313.1,252.6c1,0,1.9,0.7,1.9,1.9s-0.9,1.9-1.9,1.9s-1.9-0.7-1.9-1.9
		C311.1,253.3,312,252.6,313.1,252.6z M319.5,178.3c1,0,1.9,0.7,1.9,1.9s-0.9,1.9-1.9,1.9s-1.9-0.7-1.9-1.9S318.5,178.3,319.5,178.3
		z M319.7,252.6c1,0,1.9,0.7,1.9,1.9s-0.9,1.9-1.9,1.9s-1.9-0.7-1.9-1.9C317.7,253.3,318.6,252.6,319.7,252.6z M324.5,182.2
		c1,0,1.9,0.7,1.9,1.9s-0.9,1.9-1.9,1.9s-1.9-0.7-1.9-1.9C322.5,183,323.4,182.2,324.5,182.2z M326.3,252.6c1,0,1.9,0.7,1.9,1.9
		s-0.9,1.9-1.9,1.9s-1.9-0.7-1.9-1.9C324.3,253.3,325.2,252.6,326.3,252.6z M327.2,187.8c1,0,1.9,0.7,1.9,1.9s-0.9,1.9-1.9,1.9
		s-1.9-0.7-1.9-1.9C325.2,188.5,326.1,187.8,327.2,187.8z M328.4,193.7c1,0,1.9,0.7,1.9,1.9s-0.9,1.9-1.9,1.9s-1.9-0.7-1.9-1.9
		S327.3,193.7,328.4,193.7z M328.7,200.3c1,0,1.9,0.7,1.9,1.9s-0.9,1.9-1.9,1.9s-1.9-0.7-1.9-1.9
		C326.7,201.1,327.6,200.3,328.7,200.3z M328.7,206.9c1,0,1.9,0.7,1.9,1.9s-0.9,1.9-1.9,1.9s-1.9-0.7-1.9-1.9
		C326.7,207.7,327.6,206.9,328.7,206.9z M328.7,213.5c1,0,1.9,0.7,1.9,1.9s-0.9,1.9-1.9,1.9s-1.9-0.7-1.9-1.9
		C326.7,214.3,327.6,213.5,328.7,213.5z M328.7,220.1c1,0,1.9,0.7,1.9,1.9s-0.9,1.9-1.9,1.9s-1.9-0.7-1.9-1.9
		C326.7,220.8,327.6,220.1,328.7,220.1z M328.7,226.7c1,0,1.9,0.7,1.9,1.9s-0.9,1.9-1.9,1.9s-1.9-0.7-1.9-1.9
		C326.7,227.4,327.6,226.7,328.7,226.7z M328.7,233.3c1,0,1.9,0.7,1.9,1.9s-0.9,1.9-1.9,1.9s-1.9-0.7-1.9-1.9
		C326.7,234,327.6,233.3,328.7,233.3z M328.7,239.9c1,0,1.9,0.7,1.9,1.9s-0.9,1.9-1.9,1.9s-1.9-0.7-1.9-1.9S327.6,239.9,328.7,239.9
		z M328.7,246.5c1,0,1.9,0.7,1.9,1.9s-0.9,1.9-1.9,1.9s-1.9-0.7-1.9-1.9S327.6,246.5,328.7,246.5z M332.9,252.6c1,0,1.9,0.7,1.9,1.9
		s-0.9,1.9-1.9,1.9s-1.9-0.7-1.9-1.9C330.9,253.3,331.8,252.6,332.9,252.6z M339.4,252.6c1,0,1.9,0.7,1.9,1.9s-0.9,1.9-1.9,1.9
		s-1.9-0.7-1.9-1.9S338.4,252.6,339.4,252.6z"/>
	<path class="st0" d="M351,215.3c1,0,1.9,0.7,1.9,1.9s-0.9,1.9-1.9,1.9s-1.9-0.7-1.9-1.9C349,216.1,349.9,215.3,351,215.3z
		 M351.1,221.7c1,0,1.9,0.7,1.9,1.9s-0.9,1.9-1.9,1.9s-1.9-0.7-1.9-1.9S350.1,221.7,351.1,221.7z M351.3,208.9c1,0,1.9,0.7,1.9,1.9
		s-0.9,1.9-1.9,1.9s-1.9-0.7-1.9-1.9C349.3,209.6,350.2,208.9,351.3,208.9z M352.3,228.2c1,0,1.9,0.7,1.9,1.9s-0.9,1.9-1.9,1.9
		s-1.9-0.7-1.9-1.9S351.3,228.2,352.3,228.2z M352.5,202.4c1,0,1.9,0.7,1.9,1.9s-0.9,1.9-1.9,1.9s-1.9-0.7-1.9-1.9
		C350.5,203.2,351.4,202.4,352.5,202.4z M354.4,234.5c1,0,1.9,0.7,1.9,1.9s-0.9,1.9-1.9,1.9s-1.9-0.7-1.9-1.9
		S353.4,234.5,354.4,234.5z M354.7,196.1c1,0,1.9,0.7,1.9,1.9s-0.9,1.9-1.9,1.9s-1.9-0.7-1.9-1.9
		C352.8,196.9,353.7,196.1,354.7,196.1z M356.5,211.7c1,0,1.9,0.7,1.9,1.9s-0.9,1.9-1.9,1.9s-1.9-0.7-1.9-1.9
		C354.6,212.5,355.5,211.7,356.5,211.7z M357.6,240.3c1,0,1.9,0.7,1.9,1.9s-0.9,1.9-1.9,1.9s-1.9-0.7-1.9-1.9
		C355.6,241.1,356.5,240.3,357.6,240.3z M357.9,190.4c1,0,1.9,0.7,1.9,1.9s-0.9,1.9-1.9,1.9s-1.9-0.7-1.9-1.9
		C355.9,191.2,356.8,190.4,357.9,190.4z M361.6,245.4c1,0,1.9,0.7,1.9,1.9s-0.9,1.9-1.9,1.9s-1.9-0.7-1.9-1.9
		C359.7,246.2,360.6,245.4,361.6,245.4z M361.9,185.5c1,0,1.9,0.7,1.9,1.9s-0.9,1.9-1.9,1.9s-1.9-0.7-1.9-1.9
		C360,186.3,360.9,185.5,361.9,185.5z M363.1,211.7c1,0,1.9,0.7,1.9,1.9s-0.9,1.9-1.9,1.9s-1.9-0.7-1.9-1.9
		C361.2,212.5,362.1,211.7,363.1,211.7z M366.9,249c1,0,1.9,0.7,1.9,1.9s-0.9,1.9-1.9,1.9s-1.9-0.7-1.9-1.9S365.8,249,366.9,249z
		 M367.2,181.6c1,0,1.9,0.7,1.9,1.9s-0.9,1.9-1.9,1.9s-1.9-0.7-1.9-1.9C365.2,182.4,366.1,181.6,367.2,181.6z M369.7,211.7
		c1,0,1.9,0.7,1.9,1.9s-0.9,1.9-1.9,1.9s-1.9-0.7-1.9-1.9C367.8,212.5,368.7,211.7,369.7,211.7z M372.7,251.5c1,0,1.9,0.7,1.9,1.9
		s-0.9,1.9-1.9,1.9s-1.9-0.7-1.9-1.9C370.8,252.3,371.7,251.5,372.7,251.5z M373.2,178.9c1,0,1.9,0.7,1.9,1.9s-0.9,1.9-1.9,1.9
		s-1.9-0.7-1.9-1.9C371.2,179.7,372.1,178.9,373.2,178.9z M376.3,211.7c1,0,1.9,0.7,1.9,1.9s-0.9,1.9-1.9,1.9s-1.9-0.7-1.9-1.9
		C374.4,212.5,375.3,211.7,376.3,211.7z M379,253c1,0,1.9,0.7,1.9,1.9c0,1.2-0.9,1.9-1.9,1.9s-1.9-0.7-1.9-1.9
		C377.1,253.8,378,253,379,253z M379.8,177.4c1,0,1.9,0.7,1.9,1.9s-0.9,1.9-1.9,1.9s-1.9-0.7-1.9-1.9
		C377.8,178.2,378.7,177.4,379.8,177.4z M382.9,211.7c1,0,1.9,0.7,1.9,1.9s-0.9,1.9-1.9,1.9s-1.9-0.7-1.9-1.9
		C381,212.5,381.9,211.7,382.9,211.7z M385.5,253.5c1,0,1.9,0.7,1.9,1.9c0,1.2-0.9,1.9-1.9,1.9s-1.9-0.7-1.9-1.9
		S384.4,253.5,385.5,253.5z M386.1,177.1c1,0,1.9,0.7,1.9,1.9s-0.9,1.9-1.9,1.9s-1.9-0.7-1.9-1.9C384.1,177.9,385,177.1,386.1,177.1
		z M389.5,211.7c1,0,1.9,0.7,1.9,1.9s-0.9,1.9-1.9,1.9s-1.9-0.7-1.9-1.9C387.6,212.5,388.5,211.7,389.5,211.7z M391.9,253.2
		c1,0,1.9,0.7,1.9,1.9s-0.9,1.9-1.9,1.9s-1.9-0.7-1.9-1.9C390,253.9,390.9,253.2,391.9,253.2z M392.5,177.6c1,0,1.9,0.7,1.9,1.9
		s-0.9,1.9-1.9,1.9s-1.9-0.7-1.9-1.9S391.5,177.6,392.5,177.6z M396.1,211.7c1,0,1.9,0.7,1.9,1.9s-0.9,1.9-1.9,1.9s-1.9-0.7-1.9-1.9
		C394.2,212.5,395.1,211.7,396.1,211.7z M398.2,252.3c1,0,1.9,0.7,1.9,1.9s-0.9,1.9-1.9,1.9s-1.9-0.7-1.9-1.9
		C396.3,253,397.2,252.3,398.2,252.3z M398.8,179.1c1,0,1.9,0.7,1.9,1.9s-0.9,1.9-1.9,1.9s-1.9-0.7-1.9-1.9S397.8,179.1,398.8,179.1
		z M402.7,211.7c1,0,1.9,0.7,1.9,1.9s-0.9,1.9-1.9,1.9s-1.9-0.7-1.9-1.9C400.8,212.5,401.7,211.7,402.7,211.7z M404.2,182.4
		c1,0,1.9,0.7,1.9,1.9s-0.9,1.9-1.9,1.9s-1.9-0.7-1.9-1.9S403.2,182.4,404.2,182.4z M404.2,250.5c1,0,1.9,0.7,1.9,1.9
		s-0.9,1.9-1.9,1.9s-1.9-0.7-1.9-1.9S403.2,250.5,404.2,250.5z M408.7,186.9c1,0,1.9,0.7,1.9,1.9s-0.9,1.9-1.9,1.9s-1.9-0.7-1.9-1.9
		S407.7,186.9,408.7,186.9z M409.3,211.7c1,0,1.9,0.7,1.9,1.9s-0.9,1.9-1.9,1.9s-1.9-0.7-1.9-1.9
		C407.4,212.5,408.3,211.7,409.3,211.7z M409.8,247.5c1,0,1.9,0.7,1.9,1.9s-0.9,1.9-1.9,1.9s-1.9-0.7-1.9-1.9
		C407.8,248.3,408.7,247.5,409.8,247.5z M412,192.2c1,0,1.9,0.7,1.9,1.9S413,196,412,196s-1.9-0.7-1.9-1.9S411,192.2,412,192.2z
		 M414.3,198.4c1,0,1.9,0.7,1.9,1.9s-0.9,1.9-1.9,1.9s-1.9-0.7-1.9-1.9C412.3,199.1,413.2,198.4,414.3,198.4z M414.7,243.6
		c1,0,1.9,0.7,1.9,1.9s-0.9,1.9-1.9,1.9s-1.9-0.7-1.9-1.9S413.7,243.6,414.7,243.6z M415.5,205c1,0,1.9,0.7,1.9,1.9
		s-0.9,1.9-1.9,1.9s-1.9-0.7-1.9-1.9C413.5,205.7,414.4,205,415.5,205z M415.8,211.7c1,0,1.9,0.7,1.9,1.9s-0.9,1.9-1.9,1.9
		s-1.9-0.7-1.9-1.9C413.8,212.5,414.7,211.7,415.8,211.7z"/>
	<path class="st0" d="M426.9,177.6c1,0,1.9,0.7,1.9,1.9s-0.9,1.9-1.9,1.9s-1.9-0.7-1.9-1.9S425.8,177.6,426.9,177.6z M428.4,252.6
		c1,0,1.9,0.7,1.9,1.9s-0.9,1.9-1.9,1.9s-1.9-0.7-1.9-1.9C426.4,253.3,427.3,252.6,428.4,252.6z M433.2,177.6c1,0,1.9,0.7,1.9,1.9
		s-0.9,1.9-1.9,1.9s-1.9-0.7-1.9-1.9S432.1,177.6,433.2,177.6z M435,252.6c1,0,1.9,0.7,1.9,1.9s-0.9,1.9-1.9,1.9s-1.9-0.7-1.9-1.9
		C433,253.3,433.9,252.6,435,252.6z M439.5,177.6c1,0,1.9,0.7,1.9,1.9s-0.9,1.9-1.9,1.9s-1.9-0.7-1.9-1.9S438.4,177.6,439.5,177.6z
		 M439.5,184.5c1,0,1.9,0.7,1.9,1.9s-0.9,1.9-1.9,1.9s-1.9-0.7-1.9-1.9C437.5,185.2,438.4,184.5,439.5,184.5z M439.5,191.3
		c1,0,1.9,0.7,1.9,1.9s-0.9,1.9-1.9,1.9s-1.9-0.7-1.9-1.9C437.5,192.1,438.4,191.3,439.5,191.3z M439.5,198.2c1,0,1.9,0.7,1.9,1.9
		s-0.9,1.9-1.9,1.9s-1.9-0.7-1.9-1.9S438.4,198.2,439.5,198.2z M439.5,205.1c1,0,1.9,0.7,1.9,1.9s-0.9,1.9-1.9,1.9s-1.9-0.7-1.9-1.9
		C437.5,205.9,438.4,205.1,439.5,205.1z M439.5,212c1,0,1.9,0.7,1.9,1.9s-0.9,1.9-1.9,1.9s-1.9-0.7-1.9-1.9
		C437.5,212.8,438.4,212,439.5,212z M439.5,218.9c1,0,1.9,0.7,1.9,1.9s-0.9,1.9-1.9,1.9s-1.9-0.7-1.9-1.9S438.4,218.9,439.5,218.9z
		 M439.5,225.8c1,0,1.9,0.7,1.9,1.9s-0.9,1.9-1.9,1.9s-1.9-0.7-1.9-1.9S438.4,225.8,439.5,225.8z M439.5,232.7c1,0,1.9,0.7,1.9,1.9
		s-0.9,1.9-1.9,1.9s-1.9-0.7-1.9-1.9C437.5,233.4,438.4,232.7,439.5,232.7z M439.5,239.6c1,0,1.9,0.7,1.9,1.9s-0.9,1.9-1.9,1.9
		s-1.9-0.7-1.9-1.9C437.5,240.3,438.4,239.6,439.5,239.6z M439.5,246.5c1,0,1.9,0.7,1.9,1.9s-0.9,1.9-1.9,1.9s-1.9-0.7-1.9-1.9
		S438.4,246.5,439.5,246.5z M441.6,252.6c1,0,1.9,0.7,1.9,1.9s-0.9,1.9-1.9,1.9s-1.9-0.7-1.9-1.9
		C439.6,253.3,440.5,252.6,441.6,252.6z M445.2,189.8c1,0,1.9,0.7,1.9,1.9s-0.9,1.9-1.9,1.9s-1.9-0.7-1.9-1.9
		C443.2,190.6,444.1,189.8,445.2,189.8z M448.2,252.6c1,0,1.9,0.7,1.9,1.9s-0.9,1.9-1.9,1.9s-1.9-0.7-1.9-1.9
		C446.2,253.3,447.1,252.6,448.2,252.6z M450.3,185.8c1,0,1.9,0.7,1.9,1.9s-0.9,1.9-1.9,1.9s-1.9-0.7-1.9-1.9
		C448.3,186.6,449.2,185.8,450.3,185.8z M454.7,252.6c1,0,1.9,0.7,1.9,1.9s-0.9,1.9-1.9,1.9s-1.9-0.7-1.9-1.9
		C452.8,253.3,453.7,252.6,454.7,252.6z M455.6,182.7c1,0,1.9,0.7,1.9,1.9s-0.9,1.9-1.9,1.9s-1.9-0.7-1.9-1.9
		S454.6,182.7,455.6,182.7z M461.5,180c1,0,1.9,0.7,1.9,1.9s-0.9,1.9-1.9,1.9s-1.9-0.7-1.9-1.9C459.5,180.7,460.4,180,461.5,180z
		 M467.8,178c1,0,1.9,0.7,1.9,1.9s-0.9,1.9-1.9,1.9s-1.9-0.7-1.9-1.9S466.7,178,467.8,178z M474.2,177.1c1,0,1.9,0.7,1.9,1.9
		s-0.9,1.9-1.9,1.9s-1.9-0.7-1.9-1.9C472.3,177.9,473.2,177.1,474.2,177.1z M480.8,177.1c1,0,1.9,0.7,1.9,1.9s-0.9,1.9-1.9,1.9
		s-1.9-0.7-1.9-1.9C478.9,177.9,479.8,177.1,480.8,177.1z M480.8,252.6c1,0,1.9,0.7,1.9,1.9s-0.9,1.9-1.9,1.9s-1.9-0.7-1.9-1.9
		S479.8,252.6,480.8,252.6z M487.3,178.3c1,0,1.9,0.7,1.9,1.9s-0.9,1.9-1.9,1.9s-1.9-0.7-1.9-1.9S486.2,178.3,487.3,178.3z
		 M487.4,252.6c1,0,1.9,0.7,1.9,1.9s-0.9,1.9-1.9,1.9s-1.9-0.7-1.9-1.9S486.4,252.6,487.4,252.6z M492.2,182.2c1,0,1.9,0.7,1.9,1.9
		s-0.9,1.9-1.9,1.9s-1.9-0.7-1.9-1.9C490.3,183,491.2,182.2,492.2,182.2z M494,252.6c1,0,1.9,0.7,1.9,1.9s-0.9,1.9-1.9,1.9
		s-1.9-0.7-1.9-1.9S493,252.6,494,252.6z M494.9,187.8c1,0,1.9,0.7,1.9,1.9s-0.9,1.9-1.9,1.9s-1.9-0.7-1.9-1.9
		S493.9,187.8,494.9,187.8z M496.1,193.7c1,0,1.9,0.7,1.9,1.9s-0.9,1.9-1.9,1.9s-1.9-0.7-1.9-1.9S495.1,193.7,496.1,193.7z
		 M496.4,200.3c1,0,1.9,0.7,1.9,1.9s-0.9,1.9-1.9,1.9s-1.9-0.7-1.9-1.9C494.5,201.1,495.4,200.3,496.4,200.3z M496.4,206.9
		c1,0,1.9,0.7,1.9,1.9s-0.9,1.9-1.9,1.9s-1.9-0.7-1.9-1.9C494.5,207.7,495.4,206.9,496.4,206.9z M496.4,213.5c1,0,1.9,0.7,1.9,1.9
		s-0.9,1.9-1.9,1.9s-1.9-0.7-1.9-1.9C494.5,214.3,495.4,213.5,496.4,213.5z M496.4,220.1c1,0,1.9,0.7,1.9,1.9s-0.9,1.9-1.9,1.9
		s-1.9-0.7-1.9-1.9S495.4,220.1,496.4,220.1z M496.4,226.7c1,0,1.9,0.7,1.9,1.9s-0.9,1.9-1.9,1.9s-1.9-0.7-1.9-1.9
		S495.4,226.7,496.4,226.7z M496.4,233.3c1,0,1.9,0.7,1.9,1.9s-0.9,1.9-1.9,1.9s-1.9-0.7-1.9-1.9S495.4,233.3,496.4,233.3z
		 M496.4,239.9c1,0,1.9,0.7,1.9,1.9s-0.9,1.9-1.9,1.9s-1.9-0.7-1.9-1.9S495.4,239.9,496.4,239.9z M496.4,246.5c1,0,1.9,0.7,1.9,1.9
		s-0.9,1.9-1.9,1.9s-1.9-0.7-1.9-1.9S495.4,246.5,496.4,246.5z M500.6,252.6c1,0,1.9,0.7,1.9,1.9s-0.9,1.9-1.9,1.9s-1.9-0.7-1.9-1.9
		S499.6,252.6,500.6,252.6z M507.2,252.6c1,0,1.9,0.7,1.9,1.9s-0.9,1.9-1.9,1.9s-1.9-0.7-1.9-1.9
		C505.3,253.3,506.2,252.6,507.2,252.6z"/>
	<path class="st0" d="M3.4,373.6c1,0,1.9,0.7,1.9,1.9c0,1.2-0.9,1.9-1.9,1.9s-1.9-0.7-1.9-1.9C1.5,374.3,2.4,373.6,3.4,373.6z
		 M3.7,379.7c1,0,1.9,0.7,1.9,1.9c0,1.2-0.9,1.9-1.9,1.9s-1.9-0.7-1.9-1.9C1.8,380.4,2.7,379.7,3.7,379.7z M3.9,367.6
		c1,0,1.9,0.7,1.9,1.9c0,1.2-0.9,1.9-1.9,1.9S2,370.7,2,369.5C1.9,368.3,2.8,367.6,3.9,367.6z M5.2,385.8c1,0,1.9,0.7,1.9,1.9
		s-0.9,1.9-1.9,1.9s-1.9-0.7-1.9-1.9S4.2,385.8,5.2,385.8z M5.8,361.3c1,0,1.9,0.7,1.9,1.9c0,1.2-0.9,1.9-1.9,1.9s-1.9-0.7-1.9-1.9
		S4.8,361.3,5.8,361.3z M8.1,391.4c1,0,1.9,0.7,1.9,1.9s-0.9,1.9-1.9,1.9s-1.9-0.7-1.9-1.9S7,391.4,8.1,391.4z M9.1,355.9
		c1,0,1.9,0.7,1.9,1.9s-0.9,1.9-1.9,1.9s-1.9-0.7-1.9-1.9S8.1,355.9,9.1,355.9z M12.6,396.2c1,0,1.9,0.7,1.9,1.9
		c0,1.2-0.9,1.9-1.9,1.9s-1.9-0.7-1.9-1.9C10.6,396.9,11.5,396.2,12.6,396.2z M13.3,351.4c1,0,1.9,0.7,1.9,1.9
		c0,1.2-0.9,1.9-1.9,1.9s-1.9-0.7-1.9-1.9C11.4,352.1,12.3,351.4,13.3,351.4z M18,399.9c1,0,1.9,0.7,1.9,1.9s-0.9,1.9-1.9,1.9
		s-1.9-0.7-1.9-1.9S16.9,399.9,18,399.9z M18.6,347.5c1,0,1.9,0.7,1.9,1.9s-0.9,1.9-1.9,1.9s-1.9-0.7-1.9-1.9S17.5,347.5,18.6,347.5
		z M21.9,320.8c1,0,1.9,0.7,1.9,1.9c0,1.2-0.9,1.9-1.9,1.9s-1.9-0.7-1.9-1.9C19.9,321.6,20.8,320.8,21.9,320.8z M22.3,327.1
		c1,0,1.9,0.7,1.9,1.9c0,1.2-0.9,1.9-1.9,1.9s-1.9-0.7-1.9-1.9C20.4,327.9,21.3,327.1,22.3,327.1z M22.9,314.7c1,0,1.9,0.7,1.9,1.9
		s-0.9,1.9-1.9,1.9s-1.9-0.7-1.9-1.9S21.9,314.7,22.9,314.7z M23.8,402.3c1,0,1.9,0.7,1.9,1.9c0,1.2-0.9,1.9-1.9,1.9
		s-1.9-0.7-1.9-1.9C21.9,403.1,22.8,402.3,23.8,402.3z M24,344.5c1,0,1.9,0.7,1.9,1.9s-0.9,1.9-1.9,1.9s-1.9-0.7-1.9-1.9
		S22.9,344.5,24,344.5z M24.3,333.3c1,0,1.9,0.7,1.9,1.9c0,1.2-0.9,1.9-1.9,1.9s-1.9-0.7-1.9-1.9C22.3,334,23.2,333.3,24.3,333.3z
		 M25.9,309.2c1,0,1.9,0.7,1.9,1.9s-0.9,1.9-1.9,1.9s-1.9-0.7-1.9-1.9S24.9,309.2,25.9,309.2z M27.3,339c1,0,1.9,0.7,1.9,1.9
		s-0.9,1.9-1.9,1.9s-1.9-0.7-1.9-1.9S26.2,339,27.3,339z M30.1,403.7c1,0,1.9,0.7,1.9,1.9c0,1.2-0.9,1.9-1.9,1.9s-1.9-0.7-1.9-1.9
		C28.2,404.4,29.1,403.7,30.1,403.7z M30.4,305c1,0,1.9,0.7,1.9,1.9c0,1.2-0.9,1.9-1.9,1.9s-1.9-0.7-1.9-1.9S29.4,305,30.4,305z
		 M30.9,344.4c1,0,1.9,0.7,1.9,1.9c0,1.2-0.9,1.9-1.9,1.9s-1.9-0.7-1.9-1.9C28.9,345.1,29.8,344.4,30.9,344.4z M35.2,349.4
		c1,0,1.9,0.7,1.9,1.9c0,1.2-0.9,1.9-1.9,1.9s-1.9-0.7-1.9-1.9C33.3,350.2,34.2,349.4,35.2,349.4z M36.3,302.1c1,0,1.9,0.7,1.9,1.9
		s-0.9,1.9-1.9,1.9s-1.9-0.7-1.9-1.9S35.2,302.1,36.3,302.1z M36.6,404.1c1,0,1.9,0.7,1.9,1.9c0,1.2-0.9,1.9-1.9,1.9
		s-1.9-0.7-1.9-1.9C34.6,404.9,35.5,404.1,36.6,404.1z M39.7,354.4c1,0,1.9,0.7,1.9,1.9c0,1.2-0.9,1.9-1.9,1.9s-1.9-0.7-1.9-1.9
		S38.7,354.4,39.7,354.4z M42.9,301.1c1,0,1.9,0.7,1.9,1.9c0,1.2-0.9,1.9-1.9,1.9S41,304.2,41,303C40.9,301.8,41.8,301.1,42.9,301.1
		z M43.2,403.8c1,0,1.9,0.7,1.9,1.9c0,1.2-0.9,1.9-1.9,1.9s-1.9-0.7-1.9-1.9C41.2,404.6,42.1,403.8,43.2,403.8z M43.9,359.2
		c1,0,1.9,0.7,1.9,1.9c0,1.2-0.9,1.9-1.9,1.9s-1.9-0.7-1.9-1.9C42,359.9,42.9,359.2,43.9,359.2z M48.4,364.3c1,0,1.9,0.7,1.9,1.9
		c0,1.2-0.9,1.9-1.9,1.9s-1.9-0.7-1.9-1.9S47.4,364.3,48.4,364.3z M49.5,301.2c1,0,1.9,0.7,1.9,1.9c0,1.2-0.9,1.9-1.9,1.9
		s-1.9-0.7-1.9-1.9C47.5,302,48.4,301.2,49.5,301.2z M49.6,402.3c1,0,1.9,0.7,1.9,1.9c0,1.2-0.9,1.9-1.9,1.9s-1.9-0.7-1.9-1.9
		C47.7,403.1,48.6,402.3,49.6,402.3z M52.8,369.1c1,0,1.9,0.7,1.9,1.9c0,1.2-0.9,1.9-1.9,1.9s-1.9-0.7-1.9-1.9
		C50.8,369.8,51.7,369.1,52.8,369.1z M55.6,302.3c1,0,1.9,0.7,1.9,1.9c0,1.2-0.9,1.9-1.9,1.9s-1.9-0.7-1.9-1.9
		C53.7,303,54.6,302.3,55.6,302.3z M55.6,399.6c1,0,1.9,0.7,1.9,1.9c0,1.2-0.9,1.9-1.9,1.9s-1.9-0.7-1.9-1.9
		C53.7,400.4,54.6,399.6,55.6,399.6z M57.3,373.9c1,0,1.9,0.7,1.9,1.9c0,1.2-0.9,1.9-1.9,1.9s-1.9-0.7-1.9-1.9
		C55.3,374.6,56.2,373.9,57.3,373.9z M60.7,395.7c1,0,1.9,0.7,1.9,1.9s-0.9,1.9-1.9,1.9s-1.9-0.7-1.9-1.9S59.7,395.7,60.7,395.7z
		 M61.2,305c1,0,1.9,0.7,1.9,1.9c0,1.2-0.9,1.9-1.9,1.9s-1.9-0.7-1.9-1.9C59.2,305.7,60.1,305,61.2,305z M61.6,378.9
		c1,0,1.9,0.7,1.9,1.9c0,1.2-0.9,1.9-1.9,1.9s-1.9-0.7-1.9-1.9C59.7,379.7,60.6,378.9,61.6,378.9z M64.8,391.2c1,0,1.9,0.7,1.9,1.9
		c0,1.2-0.9,1.9-1.9,1.9s-1.9-0.7-1.9-1.9C62.8,392,63.7,391.2,64.8,391.2z M66,383.7c1,0,1.9,0.7,1.9,1.9c0,1.2-0.9,1.9-1.9,1.9
		s-1.9-0.7-1.9-1.9C64,384.5,64.9,383.7,66,383.7z M66.7,302c1,0,1.9,0.7,1.9,1.9c0,1.2-0.9,1.9-1.9,1.9s-1.9-0.7-1.9-1.9
		C64.8,302.7,65.7,302,66.7,302z M66.7,308.6c1,0,1.9,0.7,1.9,1.9c0,1.2-0.9,1.9-1.9,1.9s-1.9-0.7-1.9-1.9
		C64.8,309.3,65.7,308.6,66.7,308.6z M66.7,315.2c1,0,1.9,0.7,1.9,1.9c0,1.2-0.9,1.9-1.9,1.9s-1.9-0.7-1.9-1.9
		C64.8,315.9,65.7,315.2,66.7,315.2z M66.7,321.7c1,0,1.9,0.7,1.9,1.9s-0.9,1.9-1.9,1.9s-1.9-0.7-1.9-1.9S65.7,321.7,66.7,321.7z
		 M68.7,351.1c1,0,1.9,0.7,1.9,1.9c0,1.2-0.9,1.9-1.9,1.9s-1.9-0.7-1.9-1.9C66.7,351.8,67.6,351.1,68.7,351.1z M70.3,388.5
		c1,0,1.9,0.7,1.9,1.9c0,1.2-0.9,1.9-1.9,1.9s-1.9-0.7-1.9-1.9C68.4,389.3,69.3,388.5,70.3,388.5z M72.1,382.5c1,0,1.9,0.7,1.9,1.9
		s-0.9,1.9-1.9,1.9s-1.9-0.7-1.9-1.9S71.1,382.5,72.1,382.5z M74.5,393.5c1,0,1.9,0.7,1.9,1.9c0,1.2-0.9,1.9-1.9,1.9
		s-1.9-0.7-1.9-1.9S73.5,393.5,74.5,393.5z M74.8,351.1c1,0,1.9,0.7,1.9,1.9c0,1.2-0.9,1.9-1.9,1.9s-1.9-0.7-1.9-1.9
		C72.9,351.8,73.8,351.1,74.8,351.1z M75.1,376.4c1,0,1.9,0.7,1.9,1.9c0,1.2-0.9,1.9-1.9,1.9s-1.9-0.7-1.9-1.9
		C73.2,377.2,74.1,376.4,75.1,376.4z M77.4,369.8c1,0,1.9,0.7,1.9,1.9c0,1.2-0.9,1.9-1.9,1.9s-1.9-0.7-1.9-1.9
		C75.4,370.6,76.3,369.8,77.4,369.8z M79,398.4c1,0,1.9,0.7,1.9,1.9s-0.9,1.9-1.9,1.9s-1.9-0.7-1.9-1.9S78,398.4,79,398.4z
		 M79.3,363.4c1,0,1.9,0.7,1.9,1.9s-0.9,1.9-1.9,1.9s-1.9-0.7-1.9-1.9S78.3,363.4,79.3,363.4z M81,351.1c1,0,1.9,0.7,1.9,1.9
		c0,1.2-0.9,1.9-1.9,1.9s-1.9-0.7-1.9-1.9C79,351.8,79.9,351.1,81,351.1z M81,356.9c1,0,1.9,0.7,1.9,1.9c0,1.2-0.9,1.9-1.9,1.9
		s-1.9-0.7-1.9-1.9C79,357.7,79.9,356.9,81,356.9z M83.1,403.4c1,0,1.9,0.7,1.9,1.9c0,1.2-0.9,1.9-1.9,1.9s-1.9-0.7-1.9-1.9
		C81.1,404.1,82,403.4,83.1,403.4z M87.4,351.1c1,0,1.9,0.7,1.9,1.9c0,1.2-0.9,1.9-1.9,1.9s-1.9-0.7-1.9-1.9
		C85.5,351.8,86.4,351.1,87.4,351.1z M89.5,403.4c1,0,1.9,0.7,1.9,1.9c0,1.2-0.9,1.9-1.9,1.9s-1.9-0.7-1.9-1.9
		S88.5,403.4,89.5,403.4z M93.7,351.1c1,0,1.9,0.7,1.9,1.9c0,1.2-0.9,1.9-1.9,1.9s-1.9-0.7-1.9-1.9
		C91.8,351.8,92.7,351.1,93.7,351.1z M96,403.4c1,0,1.9,0.7,1.9,1.9c0,1.2-0.9,1.9-1.9,1.9s-1.9-0.7-1.9-1.9
		C94,404.1,94.9,403.4,96,403.4z"/>
	<path class="st0" d="M133.4,301.5c1,0,1.9,0.7,1.9,1.9c0,1.2-0.9,1.9-1.9,1.9s-1.9-0.7-1.9-1.9
		C131.5,302.3,132.4,301.5,133.4,301.5z M133.4,403.4c1,0,1.9,0.7,1.9,1.9c0,1.2-0.9,1.9-1.9,1.9s-1.9-0.7-1.9-1.9
		S132.4,403.4,133.4,403.4z M139.9,301.5c1,0,1.9,0.7,1.9,1.9c0,1.2-0.9,1.9-1.9,1.9s-1.9-0.7-1.9-1.9
		C137.9,302.3,138.8,301.5,139.9,301.5z M140,403.4c1,0,1.9,0.7,1.9,1.9c0,1.2-0.9,1.9-1.9,1.9s-1.9-0.7-1.9-1.9
		S139,403.4,140,403.4z M146.2,307.4c1,0,1.9,0.7,1.9,1.9c0,1.2-0.9,1.9-1.9,1.9s-1.9-0.7-1.9-1.9
		C144.2,308.1,145.1,307.4,146.2,307.4z M146.2,313.8c1,0,1.9,0.7,1.9,1.9c0,1.2-0.9,1.9-1.9,1.9s-1.9-0.7-1.9-1.9
		C144.2,314.6,145.1,313.8,146.2,313.8z M146.2,320.2c1,0,1.9,0.7,1.9,1.9s-0.9,1.9-1.9,1.9s-1.9-0.7-1.9-1.9
		S145.1,320.2,146.2,320.2z M146.2,326.7c1,0,1.9,0.7,1.9,1.9c0,1.2-0.9,1.9-1.9,1.9s-1.9-0.7-1.9-1.9
		C144.2,327.4,145.1,326.7,146.2,326.7z M146.2,333.1c1,0,1.9,0.7,1.9,1.9s-0.9,1.9-1.9,1.9s-1.9-0.7-1.9-1.9
		S145.1,333.1,146.2,333.1z M146.2,339.6c1,0,1.9,0.7,1.9,1.9c0,1.2-0.9,1.9-1.9,1.9s-1.9-0.7-1.9-1.9
		C144.2,340.3,145.1,339.6,146.2,339.6z M146.2,346c1,0,1.9,0.7,1.9,1.9s-0.9,1.9-1.9,1.9s-1.9-0.7-1.9-1.9S145.1,346,146.2,346z
		 M146.2,352.4c1,0,1.9,0.7,1.9,1.9c0,1.2-0.9,1.9-1.9,1.9s-1.9-0.7-1.9-1.9C144.2,353.2,145.1,352.4,146.2,352.4z M146.2,358.9
		c1,0,1.9,0.7,1.9,1.9c0,1.2-0.9,1.9-1.9,1.9s-1.9-0.7-1.9-1.9C144.2,359.6,145.1,358.9,146.2,358.9z M146.2,365.3
		c1,0,1.9,0.7,1.9,1.9c0,1.2-0.9,1.9-1.9,1.9s-1.9-0.7-1.9-1.9C144.2,366.1,145.1,365.3,146.2,365.3z M146.2,371.8
		c1,0,1.9,0.7,1.9,1.9s-0.9,1.9-1.9,1.9s-1.9-0.7-1.9-1.9S145.1,371.8,146.2,371.8z M146.2,378.2c1,0,1.9,0.7,1.9,1.9
		c0,1.2-0.9,1.9-1.9,1.9s-1.9-0.7-1.9-1.9C144.2,378.9,145.1,378.2,146.2,378.2z M146.2,384.6c1,0,1.9,0.7,1.9,1.9s-0.9,1.9-1.9,1.9
		s-1.9-0.7-1.9-1.9S145.1,384.6,146.2,384.6z M146.2,391.1c1,0,1.9,0.7,1.9,1.9s-0.9,1.9-1.9,1.9s-1.9-0.7-1.9-1.9
		S145.1,391.1,146.2,391.1z M146.2,397.5c1,0,1.9,0.7,1.9,1.9c0,1.2-0.9,1.9-1.9,1.9s-1.9-0.7-1.9-1.9
		C144.2,398.3,145.1,397.5,146.2,397.5z M146.3,301.5c1,0,1.9,0.7,1.9,1.9c0,1.2-0.9,1.9-1.9,1.9s-1.9-0.7-1.9-1.9
		C144.4,302.3,145.3,301.5,146.3,301.5z M146.6,403.4c1,0,1.9,0.7,1.9,1.9c0,1.2-0.9,1.9-1.9,1.9s-1.9-0.7-1.9-1.9
		C144.7,404.1,145.6,403.4,146.6,403.4z M151.6,349.7c1,0,1.9,0.7,1.9,1.9s-0.9,1.9-1.9,1.9s-1.9-0.7-1.9-1.9
		S150.5,349.7,151.6,349.7z M152.6,301.5c1,0,1.9,0.7,1.9,1.9c0,1.2-0.9,1.9-1.9,1.9s-1.9-0.7-1.9-1.9
		C150.7,302.3,151.6,301.5,152.6,301.5z M153.2,403.4c1,0,1.9,0.7,1.9,1.9c0,1.2-0.9,1.9-1.9,1.9s-1.9-0.7-1.9-1.9
		S152.2,403.4,153.2,403.4z M157.7,349.7c1,0,1.9,0.7,1.9,1.9s-0.9,1.9-1.9,1.9s-1.9-0.7-1.9-1.9S156.7,349.7,157.7,349.7z
		 M158.9,301.5c1,0,1.9,0.7,1.9,1.9c0,1.2-0.9,1.9-1.9,1.9s-1.9-0.7-1.9-1.9C157,302.3,157.9,301.5,158.9,301.5z M159.8,403.4
		c1,0,1.9,0.7,1.9,1.9c0,1.2-0.9,1.9-1.9,1.9s-1.9-0.7-1.9-1.9C157.9,404.1,158.8,403.4,159.8,403.4z M163.9,349.7
		c1,0,1.9,0.7,1.9,1.9s-0.9,1.9-1.9,1.9s-1.9-0.7-1.9-1.9S162.8,349.7,163.9,349.7z M165.4,301.5c1,0,1.9,0.7,1.9,1.9
		c0,1.2-0.9,1.9-1.9,1.9s-1.9-0.7-1.9-1.9C163.4,302.3,164.3,301.5,165.4,301.5z M166.4,403.4c1,0,1.9,0.7,1.9,1.9
		c0,1.2-0.9,1.9-1.9,1.9s-1.9-0.7-1.9-1.9S165.4,403.4,166.4,403.4z M170,349.7c1,0,1.9,0.7,1.9,1.9s-0.9,1.9-1.9,1.9
		s-1.9-0.7-1.9-1.9S169,349.7,170,349.7z M172,301.5c1,0,1.9,0.7,1.9,1.9c0,1.2-0.9,1.9-1.9,1.9s-1.9-0.7-1.9-1.9
		C170,302.3,170.9,301.5,172,301.5z M173.2,403.4c1,0,1.9,0.7,1.9,1.9c0,1.2-0.9,1.9-1.9,1.9s-1.9-0.7-1.9-1.9
		C171.2,404.1,172.1,403.4,173.2,403.4z M176.2,349.7c1,0,1.9,0.7,1.9,1.9s-0.9,1.9-1.9,1.9s-1.9-0.7-1.9-1.9
		S175.1,349.7,176.2,349.7z M178.4,302c1,0,1.9,0.7,1.9,1.9c0,1.2-0.9,1.9-1.9,1.9s-1.9-0.7-1.9-1.9S177.4,302,178.4,302z
		 M179.9,402.9c1,0,1.9,0.7,1.9,1.9c0,1.2-0.9,1.9-1.9,1.9s-1.9-0.7-1.9-1.9C178,403.7,178.9,402.9,179.9,402.9z M182.2,349.7
		c1,0,1.9,0.7,1.9,1.9s-0.9,1.9-1.9,1.9s-1.9-0.7-1.9-1.9S181.1,349.7,182.2,349.7z M184.7,302.9c1,0,1.9,0.7,1.9,1.9
		s-0.9,1.9-1.9,1.9s-1.9-0.7-1.9-1.9S183.7,302.9,184.7,302.9z M186.5,402.3c1,0,1.9,0.7,1.9,1.9c0,1.2-0.9,1.9-1.9,1.9
		s-1.9-0.7-1.9-1.9C184.6,403.1,185.5,402.3,186.5,402.3z M187.9,346.6c1,0,1.9,0.7,1.9,1.9c0,1.2-0.9,1.9-1.9,1.9s-1.9-0.7-1.9-1.9
		C185.9,347.3,186.8,346.6,187.9,346.6z M187.9,351.8c1,0,1.9,0.7,1.9,1.9c0,1.2-0.9,1.9-1.9,1.9s-1.9-0.7-1.9-1.9
		C185.9,352.6,186.8,351.8,187.9,351.8z M190.3,305.3c1,0,1.9,0.7,1.9,1.9c0,1.2-0.9,1.9-1.9,1.9s-1.9-0.7-1.9-1.9
		C188.3,306,189.2,305.3,190.3,305.3z M192.7,400.5c1,0,1.9,0.7,1.9,1.9s-0.9,1.9-1.9,1.9s-1.9-0.7-1.9-1.9S191.6,400.5,192.7,400.5
		z M193.4,343.5c1,0,1.9,0.7,1.9,1.9s-0.9,1.9-1.9,1.9s-1.9-0.7-1.9-1.9S192.4,343.5,193.4,343.5z M193.6,353.9c1,0,1.9,0.7,1.9,1.9
		c0,1.2-0.9,1.9-1.9,1.9s-1.9-0.7-1.9-1.9C191.6,354.7,192.5,353.9,193.6,353.9z M195.2,308.7c1,0,1.9,0.7,1.9,1.9
		c0,1.2-0.9,1.9-1.9,1.9s-1.9-0.7-1.9-1.9C193.3,309.5,194.2,308.7,195.2,308.7z M197.8,338.8c1,0,1.9,0.7,1.9,1.9
		c0,1.2-0.9,1.9-1.9,1.9s-1.9-0.7-1.9-1.9C195.8,339.6,196.7,338.8,197.8,338.8z M198.2,397.2c1,0,1.9,0.7,1.9,1.9s-0.9,1.9-1.9,1.9
		s-1.9-0.7-1.9-1.9S197.2,397.2,198.2,397.2z M198.5,357.4c1,0,1.9,0.7,1.9,1.9s-0.9,1.9-1.9,1.9s-1.9-0.7-1.9-1.9
		S197.5,357.4,198.5,357.4z M198.7,314c1,0,1.9,0.7,1.9,1.9s-0.9,1.9-1.9,1.9s-1.9-0.7-1.9-1.9S197.6,314,198.7,314z M200.2,332.8
		c1,0,1.9,0.7,1.9,1.9c0,1.2-0.9,1.9-1.9,1.9s-1.9-0.7-1.9-1.9C198.2,333.6,199.1,332.8,200.2,332.8z M200.6,320.1
		c1,0,1.9,0.7,1.9,1.9c0,1.2-0.9,1.9-1.9,1.9s-1.9-0.7-1.9-1.9C198.7,320.8,199.6,320.1,200.6,320.1z M201.2,326.5
		c1,0,1.9,0.7,1.9,1.9c0,1.2-0.9,1.9-1.9,1.9s-1.9-0.7-1.9-1.9C199.3,327.3,200.2,326.5,201.2,326.5z M202.4,392.3
		c1,0,1.9,0.7,1.9,1.9c0,1.2-0.9,1.9-1.9,1.9s-1.9-0.7-1.9-1.9S201.4,392.3,202.4,392.3z M202.7,361.9c1,0,1.9,0.7,1.9,1.9
		s-0.9,1.9-1.9,1.9s-1.9-0.7-1.9-1.9S201.7,361.9,202.7,361.9z M205.3,386.4c1,0,1.9,0.7,1.9,1.9c0,1.2-0.9,1.9-1.9,1.9
		s-1.9-0.7-1.9-1.9C203.3,387.2,204.2,386.4,205.3,386.4z M205.4,367.4c1,0,1.9,0.7,1.9,1.9s-0.9,1.9-1.9,1.9s-1.9-0.7-1.9-1.9
		S204.4,367.4,205.4,367.4z M206.5,373.7c1,0,1.9,0.7,1.9,1.9s-0.9,1.9-1.9,1.9s-1.9-0.7-1.9-1.9S205.4,373.7,206.5,373.7z
		 M206.6,380c1,0,1.9,0.7,1.9,1.9s-0.9,1.9-1.9,1.9s-1.9-0.7-1.9-1.9S205.6,380,206.6,380z"/>
	<path class="st0" d="M220.7,384c1,0,1.9,0.7,1.9,1.9s-0.9,1.9-1.9,1.9s-1.9-0.7-1.9-1.9S219.7,384,220.7,384z M221.5,377.6
		c1,0,1.9,0.7,1.9,1.9c0,1.2-0.9,1.9-1.9,1.9s-1.9-0.7-1.9-1.9C219.5,378.3,220.4,377.6,221.5,377.6z M221.6,390.3
		c1,0,1.9,0.7,1.9,1.9s-0.9,1.9-1.9,1.9s-1.9-0.7-1.9-1.9S220.6,390.3,221.6,390.3z M224.1,371.6c1,0,1.9,0.7,1.9,1.9
		c0,1.2-0.9,1.9-1.9,1.9s-1.9-0.7-1.9-1.9C222.2,372.4,223.1,371.6,224.1,371.6z M224.3,396.2c1,0,1.9,0.7,1.9,1.9
		c0,1.2-0.9,1.9-1.9,1.9s-1.9-0.7-1.9-1.9C222.3,396.9,223.2,396.2,224.3,396.2z M226.7,334c1,0,1.9,0.7,1.9,1.9
		c0,1.2-0.9,1.9-1.9,1.9s-1.9-0.7-1.9-1.9C224.7,334.8,225.6,334,226.7,334z M228.8,400.4c1,0,1.9,0.7,1.9,1.9
		c0,1.2-0.9,1.9-1.9,1.9s-1.9-0.7-1.9-1.9C226.8,401.1,227.7,400.4,228.8,400.4z M229.1,367.4c1,0,1.9,0.7,1.9,1.9s-0.9,1.9-1.9,1.9
		s-1.9-0.7-1.9-1.9S228,367.4,229.1,367.4z M232.7,331.2c1,0,1.9,0.7,1.9,1.9c0,1.2-0.9,1.9-1.9,1.9s-1.9-0.7-1.9-1.9
		C230.7,331.9,231.6,331.2,232.7,331.2z M234.3,402.8c1,0,1.9,0.7,1.9,1.9s-0.9,1.9-1.9,1.9s-1.9-0.7-1.9-1.9
		S233.3,402.8,234.3,402.8z M234.9,364.7c1,0,1.9,0.7,1.9,1.9c0,1.2-0.9,1.9-1.9,1.9s-1.9-0.7-1.9-1.9
		C233,365.5,233.9,364.7,234.9,364.7z M239,329.4c1,0,1.9,0.7,1.9,1.9s-0.9,1.9-1.9,1.9s-1.9-0.7-1.9-1.9S237.9,329.4,239,329.4z
		 M240.5,403.8c1,0,1.9,0.7,1.9,1.9c0,1.2-0.9,1.9-1.9,1.9s-1.9-0.7-1.9-1.9C238.5,404.6,239.4,403.8,240.5,403.8z M241.4,363.2
		c1,0,1.9,0.7,1.9,1.9c0,1.2-0.9,1.9-1.9,1.9s-1.9-0.7-1.9-1.9C239.4,364,240.3,363.2,241.4,363.2z M245.7,328.2
		c1,0,1.9,0.7,1.9,1.9c0,1.2-0.9,1.9-1.9,1.9s-1.9-0.7-1.9-1.9C243.8,328.9,244.7,328.2,245.7,328.2z M246.9,404
		c1,0,1.9,0.7,1.9,1.9s-0.9,1.9-1.9,1.9s-1.9-0.7-1.9-1.9S245.9,404,246.9,404z M248.1,362.6c1,0,1.9,0.7,1.9,1.9
		c0,1.2-0.9,1.9-1.9,1.9s-1.9-0.7-1.9-1.9C246.2,363.4,247.1,362.6,248.1,362.6z M252.2,327.9c1,0,1.9,0.7,1.9,1.9s-0.9,1.9-1.9,1.9
		s-1.9-0.7-1.9-1.9S251.1,327.9,252.2,327.9z M253.1,402.9c1,0,1.9,0.7,1.9,1.9c0,1.2-0.9,1.9-1.9,1.9s-1.9-0.7-1.9-1.9
		C251.1,403.7,252,402.9,253.1,402.9z M254.7,362.8c1,0,1.9,0.7,1.9,1.9c0,1.2-0.9,1.9-1.9,1.9s-1.9-0.7-1.9-1.9
		C252.8,363.5,253.7,362.8,254.7,362.8z M258.6,328.2c1,0,1.9,0.7,1.9,1.9c0,1.2-0.9,1.9-1.9,1.9s-1.9-0.7-1.9-1.9
		C256.7,328.9,257.6,328.2,258.6,328.2z M258.9,400.7c1,0,1.9,0.7,1.9,1.9c0,1.2-0.9,1.9-1.9,1.9s-1.9-0.7-1.9-1.9
		C257,401.4,257.9,400.7,258.9,400.7z M261.5,363.5c1,0,1.9,0.7,1.9,1.9c0,1.2-0.9,1.9-1.9,1.9s-1.9-0.7-1.9-1.9
		C259.5,364.3,260.4,363.5,261.5,363.5z M264.3,397.5c1,0,1.9,0.7,1.9,1.9c0,1.2-0.9,1.9-1.9,1.9s-1.9-0.7-1.9-1.9
		C262.4,398.3,263.3,397.5,264.3,397.5z M264.9,329.7c1,0,1.9,0.7,1.9,1.9c0,1.2-0.9,1.9-1.9,1.9s-1.9-0.7-1.9-1.9
		C263,330.4,263.9,329.7,264.9,329.7z M268.1,364.7c1,0,1.9,0.7,1.9,1.9c0,1.2-0.9,1.9-1.9,1.9s-1.9-0.7-1.9-1.9
		C266.1,365.5,267,364.7,268.1,364.7z M268.8,393.3c1,0,1.9,0.7,1.9,1.9c0,1.2-0.9,1.9-1.9,1.9s-1.9-0.7-1.9-1.9
		C266.9,394.1,267.8,393.3,268.8,393.3z M270.2,333.3c1,0,1.9,0.7,1.9,1.9c0,1.2-0.9,1.9-1.9,1.9s-1.9-0.7-1.9-1.9
		C268.2,334,269.1,333.3,270.2,333.3z M272.9,339.1c1,0,1.9,0.7,1.9,1.9c0,1.2-0.9,1.9-1.9,1.9s-1.9-0.7-1.9-1.9
		C270.9,339.9,271.8,339.1,272.9,339.1z M274.1,345.6c1,0,1.9,0.7,1.9,1.9c0,1.2-0.9,1.9-1.9,1.9s-1.9-0.7-1.9-1.9
		C272.1,346.3,273,345.6,274.1,345.6z M274.4,352.1c1,0,1.9,0.7,1.9,1.9c0,1.2-0.9,1.9-1.9,1.9s-1.9-0.7-1.9-1.9
		C272.4,352.9,273.3,352.1,274.4,352.1z M274.4,358.7c1,0,1.9,0.7,1.9,1.9c0,1.2-0.9,1.9-1.9,1.9s-1.9-0.7-1.9-1.9
		C272.4,359.5,273.3,358.7,274.4,358.7z M274.4,365.3c1,0,1.9,0.7,1.9,1.9c0,1.2-0.9,1.9-1.9,1.9s-1.9-0.7-1.9-1.9
		C272.4,366.1,273.3,365.3,274.4,365.3z M274.4,371.9c1,0,1.9,0.7,1.9,1.9s-0.9,1.9-1.9,1.9s-1.9-0.7-1.9-1.9
		S273.3,371.9,274.4,371.9z M274.4,378.5c1,0,1.9,0.7,1.9,1.9c0,1.2-0.9,1.9-1.9,1.9s-1.9-0.7-1.9-1.9
		C272.4,379.2,273.3,378.5,274.4,378.5z M274.4,385.1c1,0,1.9,0.7,1.9,1.9s-0.9,1.9-1.9,1.9s-1.9-0.7-1.9-1.9
		S273.3,385.1,274.4,385.1z M274.4,391.7c1,0,1.9,0.7,1.9,1.9s-0.9,1.9-1.9,1.9s-1.9-0.7-1.9-1.9S273.3,391.7,274.4,391.7z
		 M274.4,398.6c1,0,1.9,0.7,1.9,1.9c0,1.2-0.9,1.9-1.9,1.9s-1.9-0.7-1.9-1.9C272.4,399.3,273.3,398.6,274.4,398.6z M278.4,403.5
		c1,0,1.9,0.7,1.9,1.9s-0.9,1.9-1.9,1.9s-1.9-0.7-1.9-1.9S277.4,403.5,278.4,403.5z M284.6,403.4c1,0,1.9,0.7,1.9,1.9
		c0,1.2-0.9,1.9-1.9,1.9s-1.9-0.7-1.9-1.9C282.6,404.1,283.5,403.4,284.6,403.4z"/>
	<path class="st0" d="M293.6,328.3c1,0,1.9,0.7,1.9,1.9c0,1.2-0.9,1.9-1.9,1.9s-1.9-0.7-1.9-1.9
		C291.6,329.1,292.5,328.3,293.6,328.3z M295.1,403.4c1,0,1.9,0.7,1.9,1.9c0,1.2-0.9,1.9-1.9,1.9s-1.9-0.7-1.9-1.9
		C293.1,404.1,294,403.4,295.1,403.4z M299.9,328.3c1,0,1.9,0.7,1.9,1.9c0,1.2-0.9,1.9-1.9,1.9s-1.9-0.7-1.9-1.9
		C297.9,329.1,298.8,328.3,299.9,328.3z M301.7,403.4c1,0,1.9,0.7,1.9,1.9c0,1.2-0.9,1.9-1.9,1.9s-1.9-0.7-1.9-1.9
		C299.7,404.1,300.6,403.4,301.7,403.4z M306.2,328.3c1,0,1.9,0.7,1.9,1.9c0,1.2-0.9,1.9-1.9,1.9s-1.9-0.7-1.9-1.9
		C304.2,329.1,305.1,328.3,306.2,328.3z M306.2,335.2c1,0,1.9,0.7,1.9,1.9c0,1.2-0.9,1.9-1.9,1.9s-1.9-0.7-1.9-1.9
		C304.2,336,305.1,335.2,306.2,335.2z M306.2,342.1c1,0,1.9,0.7,1.9,1.9c0,1.2-0.9,1.9-1.9,1.9s-1.9-0.7-1.9-1.9
		C304.2,342.9,305.1,342.1,306.2,342.1z M306.2,349c1,0,1.9,0.7,1.9,1.9s-0.9,1.9-1.9,1.9s-1.9-0.7-1.9-1.9S305.1,349,306.2,349z
		 M306.2,355.9c1,0,1.9,0.7,1.9,1.9s-0.9,1.9-1.9,1.9s-1.9-0.7-1.9-1.9S305.1,355.9,306.2,355.9z M306.2,362.8c1,0,1.9,0.7,1.9,1.9
		c0,1.2-0.9,1.9-1.9,1.9s-1.9-0.7-1.9-1.9C304.2,363.5,305.1,362.8,306.2,362.8z M306.2,369.7c1,0,1.9,0.7,1.9,1.9
		c0,1.2-0.9,1.9-1.9,1.9s-1.9-0.7-1.9-1.9C304.2,370.4,305.1,369.7,306.2,369.7z M306.2,376.6c1,0,1.9,0.7,1.9,1.9
		c0,1.2-0.9,1.9-1.9,1.9s-1.9-0.7-1.9-1.9C304.2,377.3,305.1,376.6,306.2,376.6z M306.2,383.4c1,0,1.9,0.7,1.9,1.9
		c0,1.2-0.9,1.9-1.9,1.9s-1.9-0.7-1.9-1.9C304.2,384.2,305.1,383.4,306.2,383.4z M306.2,390.3c1,0,1.9,0.7,1.9,1.9s-0.9,1.9-1.9,1.9
		s-1.9-0.7-1.9-1.9S305.1,390.3,306.2,390.3z M306.2,397.2c1,0,1.9,0.7,1.9,1.9s-0.9,1.9-1.9,1.9s-1.9-0.7-1.9-1.9
		S305.1,397.2,306.2,397.2z M308.3,403.4c1,0,1.9,0.7,1.9,1.9c0,1.2-0.9,1.9-1.9,1.9s-1.9-0.7-1.9-1.9
		C306.3,404.1,307.2,403.4,308.3,403.4z M311.9,340.6c1,0,1.9,0.7,1.9,1.9c0,1.2-0.9,1.9-1.9,1.9s-1.9-0.7-1.9-1.9
		C309.9,341.4,310.8,340.6,311.9,340.6z M314.9,403.4c1,0,1.9,0.7,1.9,1.9c0,1.2-0.9,1.9-1.9,1.9s-1.9-0.7-1.9-1.9
		C312.9,404.1,313.8,403.4,314.9,403.4z M316.7,335.7c1,0,1.9,0.7,1.9,1.9s-0.9,1.9-1.9,1.9s-1.9-0.7-1.9-1.9
		S315.6,335.7,316.7,335.7z M321.5,403.4c1,0,1.9,0.7,1.9,1.9c0,1.2-0.9,1.9-1.9,1.9s-1.9-0.7-1.9-1.9
		C319.5,404.1,320.4,403.4,321.5,403.4z M322.2,331.9c1,0,1.9,0.7,1.9,1.9c0,1.2-0.9,1.9-1.9,1.9s-1.9-0.7-1.9-1.9
		C320.3,332.7,321.2,331.9,322.2,331.9z M327.9,329.2c1,0,1.9,0.7,1.9,1.9c0,1.2-0.9,1.9-1.9,1.9s-1.9-0.7-1.9-1.9
		C326,330,326.9,329.2,327.9,329.2z M334.2,328c1,0,1.9,0.7,1.9,1.9s-0.9,1.9-1.9,1.9s-1.9-0.7-1.9-1.9S333.1,328,334.2,328z
		 M340.3,328.2c1,0,1.9,0.7,1.9,1.9c0,1.2-0.9,1.9-1.9,1.9s-1.9-0.7-1.9-1.9C338.4,328.9,339.3,328.2,340.3,328.2z"/>
</g>
</svg>
