<svg class="h-1_75 w-1_75" style="fill:currentColor" viewBox="0 0 16 16" xmlns="http://www.w3.org/2000/svg">
    <path d="M8,0a8,8,0,1,0,8,8A8,8,0,0,0,8,0Zm3.63,6.17c0,.08,0,.16,0,.24a5.23,5.23,0,0,1-8,4.4l.44,0a3.69,3.69,0,0,0,2.28-.79A1.84,1.84,0,0,1,4.57,8.78a1.84,1.84,0,0,0,.83,0,1.84,1.84,0,0,1-1.47-1.8v0a1.83,1.83,0,0,0,.83.23A1.84,1.84,0,0,1,4.19,4.7,5.22,5.22,0,0,0,8,6.62,1.89,1.89,0,0,1,8,5.9a1.84,1.84,0,0,1,3.16-1,3.68,3.68,0,0,0,1.17-.45,1.84,1.84,0,0,1-.81,1,3.67,3.67,0,0,0,1.06-.29A3.73,3.73,0,0,1,11.61,6.17Z" transform="translate(0.02 0)"/>
</svg>
