<svg xmlns="http://www.w3.org/2000/svg" width="69" height="14" viewBox="0 0 69 14"><defs><style>.cls-1{fill:#D18419;}</style></defs><path class="cls-1" d="M12.2,13.61l.51-3-.66,0c-.7,1.64-2.76,2.31-4.51,2.31-3.29,0-5.25-2.53-5.25-5.74s2-6.06,5.07-6.06A5.18,5.18,0,0,1,12.11,3.9l.56,0-.39-2.24A8.33,8.33,0,0,0,7.43.06,7.24,7.24,0,0,0,0,7.45C0,9.95,1.66,14,7.31,14c2.38,0,3.3-.86,3.89-.86a.34.34,0,0,1,.36.39Z"/><path class="cls-1" d="M50.17,11.75A1.26,1.26,0,0,0,51.32,13l.43,0v.66h-5V13l.43,0a1.26,1.26,0,0,0,1.15-1.25V3.41a1.26,1.26,0,0,0-1.15-1.25l-.43,0V1.46C48,1.35,48.68,1.24,49.3.27h.86Z"/><path class="cls-1" d="M29.43,13.73h7.42L38,11.35l-.57-.28-.54.76H31.78C35.33,8.42,37.53,6,37.53,3.62A3.51,3.51,0,0,0,33.87,0c-2.7,0-3.87,1.64-4.8,2.86l.56.41a3.81,3.81,0,0,1,3.29-1.69A2.63,2.63,0,0,1,35.68,4.1c0,2-2.1,5-6.65,9Z"/><path class="cls-1" d="M66.81,11.78V10.39h1.27l.93-2-.57-.28-.54.76H66.8V.29h-.93L58.73,9.67l.36.71h5.86v1.39A1.26,1.26,0,0,1,63.8,13l-.43,0v.66h5v-.66L68,13A1.26,1.26,0,0,1,66.81,11.78Zm-1.86-2.9H60.4l4.55-6Z"/><path class="cls-1" d="M20.69,8.44a2.44,2.44,0,0,0,.9-.23,1.36,1.36,0,0,0,.24-.83,2,2,0,0,0-.21-.91,1.63,1.63,0,0,0-.93-.24,2.44,2.44,0,0,0-.9.23,1.36,1.36,0,0,0-.24.83,2,2,0,0,0,.21.91A1.63,1.63,0,0,0,20.69,8.44Z"/></svg>
