<svg xmlns="http://www.w3.org/2000/svg" width="13" height="83" viewBox="0 0 13 83"><defs><style>.cls-1{fill:#ce842d;}</style></defs><path class="cls-1" d="M645.76,1629.76l.52-2.89-.67,0c-.72,1.61-2.83,2.26-4.62,2.26-3.37,0-5.37-2.48-5.37-5.62s2.05-5.94,5.19-5.94a5.3,5.3,0,0,1,4.86,2.72l.58,0-.4-2.19a8.75,8.75,0,0,0-5-1.54c-4.19,0-7.61,3-7.61,7.24,0,2.45,1.7,6.41,7.48,6.41,2.44,0,3.37-.84,4-.84a.34.34,0,0,1,.36.38Z" transform="translate(-633.28 -1616.5)"/><path class="cls-1" d="M640.73,1678.54a1.26,1.26,0,0,0,1.18,1.23l.44,0v.65h-5.13v-.65l.44,0a1.26,1.26,0,0,0,1.18-1.23v-8.17a1.25,1.25,0,0,0-1.18-1.23l-.44,0v-.65c1.33-.11,2-.22,2.63-1.16h.88Z" transform="translate(-633.28 -1616.5)"/><path class="cls-1" d="M635.62,1660.86h7.6l1.13-2.33-.58-.27-.55.75H638c3.63-3.35,5.9-5.74,5.9-8.05a3.51,3.51,0,0,0-3.75-3.55c-2.77,0-4,1.6-4.91,2.8l.57.4a4,4,0,0,1,3.37-1.66,2.65,2.65,0,0,1,2.82,2.47c0,2-2.15,4.92-6.8,8.8Z" transform="translate(-633.28 -1616.5)"/><path class="cls-1" d="M640.89,1694.75h-4.66l4.66-5.85Zm1.9,2.84v-1.36h1.3l1-2-.58-.27-.55.75h-1.11v-8.41h-.95l-7.31,9.18.36.7h6v1.36a1.25,1.25,0,0,1-1.18,1.23l-.44,0v.65h5.13v-.65l-.44,0a1.26,1.26,0,0,1-1.18-1.23" transform="translate(-633.28 -1616.5)"/><path class="cls-1" d="M639.78,1638.72a2.58,2.58,0,0,0,.92-.22,1.31,1.31,0,0,0,.25-.82,1.91,1.91,0,0,0-.22-.89,1.72,1.72,0,0,0-1-.24,2.58,2.58,0,0,0-.92.23,1.3,1.3,0,0,0-.25.81,1.91,1.91,0,0,0,.22.9,1.72,1.72,0,0,0,1,.24" transform="translate(-633.28 -1616.5)"/></svg>
