<?xml version="1.0" encoding="utf-8"?>
<!-- Generator: Adobe Illustrator 21.1.0, SVG Export Plug-In . SVG Version: 6.00 Build 0)  -->
<svg version="1.1" id="Layer_1" xmlns="http://www.w3.org/2000/svg" xmlns:xlink="http://www.w3.org/1999/xlink" x="0px" y="0px"
	 viewBox="0 0 608 408" style="enable-background:new 0 0 608 408;" xml:space="preserve">
<style type="text/css">
	.st0{fill:#D18419;}
</style>
<g>
	<g>
		<path class="st0" d="M27.2,13.9c0-1.2-0.9-1.9-1.9-1.9s-1.9,0.7-1.9,1.9c0,1.2,0.9,1.9,1.9,1.9S27.2,15.1,27.2,13.9z"/>
		<path class="st0" d="M14.4,99.6c1,0,1.9-0.7,1.9-1.9s-0.9-1.9-1.9-1.9c-1.1,0-2,0.8-1.9,1.9C12.5,98.9,13.4,99.6,14.4,99.6z"/>
		<path class="st0" d="M31.6,25.9c0-1.2-0.9-1.9-1.9-1.9c-1.1,0-2,0.7-1.9,1.9c0,1.2,0.9,1.9,1.9,1.9S31.6,27.1,31.6,25.9z"/>
		<path class="st0" d="M25.1,7.9c0-1.2-0.9-1.9-1.9-1.9s-1.9,0.7-1.9,1.9c0,1.2,0.9,1.9,1.9,1.9S25.1,9.1,25.1,7.9z"/>
		<path class="st0" d="M27.6,21.8c1,0,1.9-0.7,1.9-1.9c0-1.2-0.9-1.9-1.9-1.9c-1.1,0-1.9,0.7-1.9,1.9C25.7,21.1,26.6,21.8,27.6,21.8
			z"/>
		<path class="st0" d="M14.8,0c-1,0-1.9,0.7-1.9,1.9c0,1.2,0.9,1.9,1.9,1.9s1.9-0.7,1.9-1.9C16.7,0.7,15.8,0,14.8,0z"/>
		<path class="st0" d="M55.4,91.8c0-1.2-0.9-1.9-1.9-1.9s-1.9,0.7-1.9,1.9s0.9,1.9,1.9,1.9S55.4,93,55.4,91.8z"/>
		<path class="st0" d="M14.8,101.8c-1,0-1.9,0.8-1.9,1.9c0,1.2,0.9,1.9,1.9,1.9s1.9-0.7,1.9-1.9S15.8,101.8,14.8,101.8z"/>
		<path class="st0" d="M21,3.8c1,0,1.9-0.7,1.9-1.9C22.9,0.7,22,0,21,0c-1.1,0-2,0.7-1.9,1.9C19.1,3.1,20,3.8,21,3.8z"/>
		<path class="st0" d="M27.7,101.8c-1,0-1.9,0.8-1.9,1.9c0,1.2,0.9,1.9,1.9,1.9s1.9-0.7,1.9-1.9S28.7,101.8,27.7,101.8z"/>
		<path class="st0" d="M46.7,67.8c0-1.2-0.9-1.9-1.9-1.9s-1.9,0.7-1.9,1.9s0.9,1.9,1.9,1.9S46.7,69,46.7,67.8z"/>
		<path class="st0" d="M49,73.8c0-1.2-0.9-1.9-1.9-1.9c-1.1,0-2,0.7-1.9,1.9c0,1.2,0.9,1.9,1.9,1.9S49,75,49,73.8z"/>
		<path class="st0" d="M44.6,61.8c0-1.2-0.9-1.9-1.9-1.9s-1.9,0.7-1.9,1.9s0.9,1.9,1.9,1.9S44.6,63,44.6,61.8z"/>
		<path class="st0" d="M51.1,79.8c0-1.2-0.9-1.9-1.9-1.9c-1.1,0-2,0.7-1.9,1.9c0,1.2,0.9,1.9,1.9,1.9S51.1,81,51.1,79.8z"/>
		<path class="st0" d="M53.3,85.8c0-1.2-0.9-1.9-1.9-1.9s-1.9,0.7-1.9,1.9s0.9,1.9,1.9,1.9S53.3,87,53.3,85.8z"/>
		<path class="st0" d="M38.2,43.8c0-1.2-0.9-1.9-1.9-1.9c-1.1,0-1.9,0.7-1.9,1.9s0.9,1.9,1.9,1.9S38.2,45,38.2,43.8z"/>
		<path class="st0" d="M35.9,37.8c0-1.2-0.9-1.9-1.9-1.9s-1.9,0.7-1.9,1.9s0.9,1.9,1.9,1.9S35.9,39,35.9,37.8z"/>
		<path class="st0" d="M33.8,31.9c0-1.2-0.9-1.9-1.9-1.9S30,30.7,30,31.9c0,1.2,0.9,1.9,1.9,1.9S33.8,33.1,33.8,31.9z"/>
		<path class="st0" d="M40.1,49.8c0-1.2-0.9-1.9-1.9-1.9s-1.9,0.8-1.9,1.9c0,1.2,0.9,1.9,1.9,1.9S40.1,51,40.1,49.8z"/>
		<path class="st0" d="M42.4,55.8c0-1.2-0.9-1.9-1.9-1.9c-1.1,0-2,0.8-1.9,1.9c0,1.2,0.9,1.9,1.9,1.9S42.4,57,42.4,55.8z"/>
		<path class="st0" d="M21.3,101.8c-1.1,0-2,0.8-1.9,1.9c0,1.2,0.9,1.9,1.9,1.9s1.9-0.7,1.9-1.9S22.3,101.8,21.3,101.8z"/>
		<path class="st0" d="M14.4,54.6c1,0,1.9-0.7,1.9-1.9s-0.9-1.9-1.9-1.9c-1.1,0-1.9,0.7-1.9,1.9S13.4,54.6,14.4,54.6z"/>
		<path class="st0" d="M8.4,0c-1.1,0-2,0.7-2,1.9c0,1.2,1,1.9,2,1.9s1.9-0.7,1.9-1.9C10.3,0.7,9.4,0,8.4,0z"/>
		<path class="st0" d="M14.4,48.1c1,0,1.9-0.7,1.9-1.9s-0.9-1.9-1.9-1.9c-1.1,0-2,0.8-1.9,1.9C12.5,47.4,13.4,48.1,14.4,48.1z"/>
		<path class="st0" d="M14.4,28.8c1,0,1.9-0.7,1.9-1.9c0-1.2-0.9-1.9-1.9-1.9c-1.1,0-1.9,0.7-1.9,1.9C12.5,28.1,13.4,28.8,14.4,28.8
			z"/>
		<path class="st0" d="M14.4,41.7c1,0,1.9-0.7,1.9-1.9s-0.9-1.9-1.9-1.9c-1.1,0-1.9,0.7-1.9,1.9S13.4,41.7,14.4,41.7z"/>
		<path class="st0" d="M14.4,22.4c1,0,1.9-0.7,1.9-1.9s-0.9-1.9-1.9-1.9c-1.1,0-2,0.7-1.9,1.9C12.5,21.7,13.4,22.4,14.4,22.4z"/>
		<path class="st0" d="M90.9,21.8c1,0,1.9-0.7,1.9-1.9c0-1.2-0.9-1.9-1.9-1.9c-1.1,0-1.9,0.7-1.9,1.9C89,21.1,89.9,21.8,90.9,21.8z"
			/>
		<path class="st0" d="M14.4,16c1,0,1.9-0.8,1.9-2s-0.9-1.9-1.9-1.9c-1.1,0-1.9,0.8-1.9,2C12.5,15.3,13.4,16,14.4,16z"/>
		<path class="st0" d="M14.4,9.5c1,0,1.9-0.7,1.9-1.9c0-1.2-0.9-1.9-1.9-1.9c-1.1,0-2,0.7-1.9,1.9C12.5,8.8,13.4,9.5,14.4,9.5z"/>
		<path class="st0" d="M14.4,35.2c1,0,1.9-0.7,1.9-1.9s-0.9-1.9-1.9-1.9c-1.1,0-2,0.8-1.9,1.9C12.5,34.5,13.4,35.2,14.4,35.2z"/>
		<path class="st0" d="M1.9,0C0.9,0,0,0.7,0,1.9c0,1.2,0.9,2,1.9,1.9c1,0,1.9-0.7,1.9-1.9C3.8,0.7,2.9,0,1.9,0z"/>
		<path class="st0" d="M14.4,61c1,0,1.9-0.7,1.9-1.9c0-1.2-0.9-1.9-1.9-1.9c-1.1,0-2,0.8-1.9,1.9C12.5,60.3,13.4,61,14.4,61z"/>
		<path class="st0" d="M14.4,93.2c1,0,1.9-0.7,1.9-1.9s-0.9-1.9-1.9-1.9c-1.1,0-2,0.8-1.9,1.9C12.5,92.5,13.4,93.2,14.4,93.2z"/>
		<path class="st0" d="M8.4,101.8c-1.1,0-2,0.8-1.9,1.9c0,1.2,0.9,1.9,1.9,1.9s1.9-0.7,1.9-1.9S9.4,101.8,8.4,101.8z"/>
		<path class="st0" d="M1.9,101.8c-1,0-1.9,0.8-1.9,1.9c0,1.2,0.9,1.9,1.9,1.9s1.9-0.7,1.9-1.9S2.9,101.8,1.9,101.8z"/>
		<path class="st0" d="M14.4,67.4c1,0,1.9-0.7,1.9-1.9s-0.9-1.9-1.9-1.9c-1.1,0-2,0.8-1.9,1.9C12.5,66.7,13.4,67.4,14.4,67.4z"/>
		<path class="st0" d="M14.4,73.9c1,0,1.9-0.7,1.9-1.9s-0.9-1.9-1.9-1.9c-1.1,0-2,0.7-1.9,1.9C12.5,73.2,13.4,73.9,14.4,73.9z"/>
		<path class="st0" d="M14.4,80.3c1,0,1.9-0.7,1.9-1.9c0-1.2-0.9-1.9-1.9-1.9c-1.1,0-2,0.8-1.9,1.9C12.5,79.6,13.4,80.3,14.4,80.3z"
			/>
		<path class="st0" d="M14.4,86.8c1,0,1.9-0.7,1.9-1.9c0-1.2-0.9-1.9-1.9-1.9c-1.1,0-2,0.7-1.9,1.9C12.5,86.1,13.4,86.8,14.4,86.8z"
			/>
		<path class="st0" d="M104.5,70.1c-1,0-1.9,0.7-1.9,1.9s0.9,1.9,1.9,1.9s1.9-0.7,1.9-1.9S105.5,70.1,104.5,70.1z"/>
		<path class="st0" d="M104.5,57.2c-1,0-1.9,0.8-1.9,1.9c0,1.2,0.9,1.9,1.9,1.9s1.9-0.7,1.9-1.9C106.4,57.9,105.5,57.2,104.5,57.2z"
			/>
		<path class="st0" d="M104.5,63.6c-1,0-1.9,0.8-1.9,1.9c0,1.2,0.9,1.9,1.9,1.9s1.9-0.7,1.9-1.9S105.5,63.6,104.5,63.6z"/>
		<path class="st0" d="M104.5,37.9c-1,0-1.9,0.7-1.9,1.9s0.9,1.9,1.9,1.9s1.9-0.7,1.9-1.9S105.5,37.9,104.5,37.9z"/>
		<path class="st0" d="M104.5,44.3c-1,0-1.9,0.8-1.9,1.9c0,1.2,0.9,1.9,1.9,1.9s1.9-0.7,1.9-1.9S105.5,44.3,104.5,44.3z"/>
		<path class="st0" d="M104.1,3.8c1,0,1.9-0.7,1.9-1.9c0-1.2-0.9-1.9-1.9-1.9c-1.1,0-2,0.7-1.9,1.9C102.2,3.1,103.1,3.8,104.1,3.8z"
			/>
		<path class="st0" d="M104.5,50.8c-1,0-1.9,0.7-1.9,1.9s0.9,1.9,1.9,1.9s1.9-0.7,1.9-1.9S105.5,50.8,104.5,50.8z"/>
		<path class="st0" d="M104.5,95.8c-1,0-1.9,0.8-1.9,1.9c0,1.2,0.9,1.9,1.9,1.9s1.9-0.7,1.9-1.9S105.5,95.8,104.5,95.8z"/>
		<path class="st0" d="M104.5,83c-1,0-1.9,0.7-1.9,1.9c0,1.2,0.9,1.9,1.9,1.9s1.9-0.7,1.9-1.9C106.4,83.7,105.5,83,104.5,83z"/>
		<path class="st0" d="M104.2,101.8c-1,0-1.9,0.8-1.9,1.9c0,1.2,0.9,1.9,1.9,1.9s1.9-0.7,1.9-1.9S105.2,101.8,104.2,101.8z"/>
		<path class="st0" d="M104.5,89.4c-1,0-1.9,0.8-1.9,1.9c0,1.2,0.9,1.9,1.9,1.9s1.9-0.7,1.9-1.9S105.5,89.4,104.5,89.4z"/>
		<path class="st0" d="M104.5,76.5c-1,0-1.9,0.8-1.9,1.9c0,1.2,0.9,1.9,1.9,1.9s1.9-0.7,1.9-1.9C106.4,77.2,105.5,76.5,104.5,76.5z"
			/>
		<path class="st0" d="M110.6,101.8c-1,0-1.9,0.8-1.9,1.9c0,1.2,0.9,1.9,1.9,1.9s1.9-0.7,1.9-1.9S111.6,101.8,110.6,101.8z"/>
		<path class="st0" d="M116.9,3.8c1,0,1.9-0.7,1.9-1.9c0-1.2-0.9-1.9-1.9-1.9S115,0.7,115,1.9C115,3.1,115.9,3.8,116.9,3.8z"/>
		<path class="st0" d="M57.7,97.7c0-1.2-0.9-1.9-1.9-1.9c-1.1,0-2,0.8-1.9,1.9c0,1.2,0.9,1.9,1.9,1.9S57.7,98.9,57.7,97.7z"/>
		<path class="st0" d="M117.1,101.8c-1.1,0-2,0.8-1.9,1.9c0,1.2,0.9,1.9,1.9,1.9s1.9-0.7,1.9-1.9S118.1,101.8,117.1,101.8z"/>
		<path class="st0" d="M104.5,5.7c-1,0-1.9,0.7-1.9,1.9c0,1.2,0.9,1.9,1.9,1.9s1.9-0.7,1.9-1.9C106.4,6.4,105.5,5.7,104.5,5.7z"/>
		<path class="st0" d="M104.5,18.6c-1,0-1.9,0.7-1.9,1.9s0.9,1.9,1.9,1.9s1.9-0.7,1.9-1.9S105.5,18.6,104.5,18.6z"/>
		<path class="st0" d="M104.5,25c-1,0-1.9,0.7-1.9,1.9c0,1.2,0.9,1.9,1.9,1.9s1.9-0.7,1.9-1.9C106.4,25.7,105.5,25,104.5,25z"/>
		<path class="st0" d="M104.5,12.1c-1,0-1.9,0.7-1.9,1.9s0.9,1.9,1.9,1.9s1.9-0.7,1.9-1.9S105.5,12.1,104.5,12.1z"/>
		<path class="st0" d="M104.5,31.4c-1,0-1.9,0.8-1.9,1.9c0,1.2,0.9,1.9,1.9,1.9s1.9-0.7,1.9-1.9S105.5,31.4,104.5,31.4z"/>
		<path class="st0" d="M110.5,3.8c1,0,1.9-0.7,1.9-1.9c0-1.2-0.9-1.9-1.9-1.9c-1.1,0-2,0.7-1.9,1.9C108.6,3.1,109.5,3.8,110.5,3.8z"
			/>
		<path class="st0" d="M70.5,71.9c-1.1,0-2,0.7-1.9,1.9c0,1.2,0.9,1.9,1.9,1.9s1.9-0.7,1.9-1.9S71.5,71.9,70.5,71.9z"/>
		<path class="st0" d="M68.2,77.9c-1,0-1.9,0.7-1.9,1.9s0.9,1.9,1.9,1.9s1.9-0.7,1.9-1.9S69.2,77.9,68.2,77.9z"/>
		<path class="st0" d="M77.4,53.9c-1.1,0-2,0.8-1.9,1.9c0,1.2,0.9,1.9,1.9,1.9s1.9-0.7,1.9-1.9S78.4,53.9,77.4,53.9z"/>
		<path class="st0" d="M75.1,59.9c-1,0-1.9,0.7-1.9,1.9s0.9,1.9,1.9,1.9S77,63,77,61.8S76.1,59.9,75.1,59.9z"/>
		<path class="st0" d="M72.9,65.9c-1.1,0-2,0.7-1.9,1.9c0,1.2,0.9,1.9,1.9,1.9s1.9-0.7,1.9-1.9S73.9,65.9,72.9,65.9z"/>
		<path class="st0" d="M58.5,101.8c-1.1,0-2,0.8-1.9,1.9c0,1.2,0.9,1.9,1.9,1.9s1.9-0.7,1.9-1.9S59.5,101.8,58.5,101.8z"/>
		<path class="st0" d="M61.3,95.8c-1,0-1.9,0.8-1.9,1.9c0,1.2,0.9,1.9,1.9,1.9s1.9-0.7,1.9-1.9S62.3,95.8,61.3,95.8z"/>
		<path class="st0" d="M63.7,89.9c-1,0-1.9,0.7-1.9,1.9s0.9,1.9,1.9,1.9s1.9-0.7,1.9-1.9S64.7,89.9,63.7,89.9z"/>
		<path class="st0" d="M66,83.9c-1.1,0-2,0.7-1.9,1.9c0,1.2,0.9,1.9,1.9,1.9s1.9-0.7,1.9-1.9S67,83.9,66,83.9z"/>
		<path class="st0" d="M79.8,47.9c-1.1,0-2,0.8-1.9,1.9c0,1.2,0.9,1.9,1.9,1.9s1.9-0.7,1.9-1.9S80.8,47.9,79.8,47.9z"/>
		<path class="st0" d="M91.3,101.8c-1,0-1.9,0.8-1.9,1.9c0,1.2,0.9,1.9,1.9,1.9s1.9-0.7,1.9-1.9S92.3,101.8,91.3,101.8z"/>
		<path class="st0" d="M97.4,7.9c0-1.2-0.9-1.9-1.9-1.9s-1.9,0.7-1.9,1.9c0,1.2,0.9,1.9,1.9,1.9S97.4,9.1,97.4,7.9z"/>
		<path class="st0" d="M93.3,12c-1.1,0-1.9,0.7-1.9,1.9c0,1.2,0.9,1.9,1.9,1.9s1.9-0.7,1.9-1.9C95.2,12.7,94.3,12,93.3,12z"/>
		<path class="st0" d="M97.9,0c-1,0-1.9,0.7-1.9,1.9c0,1.2,0.9,1.9,1.9,1.9s1.9-0.7,1.9-1.9C99.8,0.7,98.9,0,97.9,0z"/>
		<path class="st0" d="M97.8,101.8c-1.1,0-2,0.8-1.9,1.9c0,1.2,0.9,1.9,1.9,1.9s1.9-0.7,1.9-1.9S98.8,101.8,97.8,101.8z"/>
		<path class="st0" d="M84.1,35.9c-1,0-1.9,0.7-1.9,1.9s0.9,1.9,1.9,1.9S86,39,86,37.8S85.1,35.9,84.1,35.9z"/>
		<path class="st0" d="M81.9,41.9c-1.1,0-1.9,0.7-1.9,1.9s0.9,1.9,1.9,1.9s1.9-0.7,1.9-1.9S82.9,41.9,81.9,41.9z"/>
		<path class="st0" d="M90.7,25.9c0-1.2-0.9-1.9-1.9-1.9c-1.1,0-2,0.7-1.9,1.9c0,1.2,0.9,1.9,1.9,1.9S90.7,27.1,90.7,25.9z"/>
		<path class="st0" d="M86.4,30c-1.1,0-2,0.7-1.9,1.9c0,1.2,0.9,1.9,1.9,1.9s1.9-0.7,1.9-1.9C88.3,30.7,87.4,30,86.4,30z"/>
	</g>
	<g>
		<path class="st0" d="M132.9,79.3c0-1.2-0.9-1.9-1.9-1.9s-1.9,0.8-1.9,1.9c0,1.2,0.9,1.9,1.9,1.9S132.9,80.5,132.9,79.3z"/>
		<path class="st0" d="M135,85.6c0-1.2-0.9-1.9-1.9-1.9s-1.9,0.8-1.9,1.9c0,1.2,0.9,1.9,1.9,1.9S135,86.8,135,85.6z"/>
		<path class="st0" d="M131.7,72.9c0-1.2-0.9-1.9-1.9-1.9s-1.9,0.7-1.9,1.9c0,1.2,0.9,1.9,1.9,1.9S131.7,74.1,131.7,72.9z"/>
		<path class="st0" d="M136.3,89.6c-1.1,0-2,0.7-1.9,1.9c0,1.2,0.9,1.9,1.9,1.9s1.9-0.7,1.9-1.9S137.3,89.6,136.3,89.6z"/>
		<path class="st0" d="M129.7,68.3c1,0,1.9-0.7,1.9-1.9c0-1.2-0.9-1.9-1.9-1.9c-1.1,0-2,0.8-1.9,1.9
			C127.8,67.6,128.7,68.3,129.7,68.3z"/>
		<path class="st0" d="M140.3,94.6c-1,0-1.9,0.8-1.9,1.9c0,1.2,0.9,1.9,1.9,1.9s1.9-0.7,1.9-1.9S141.3,94.6,140.3,94.6z"/>
		<path class="st0" d="M150.3,62.9c0-1.2-0.9-1.9-1.9-1.9s-1.9,0.7-1.9,1.9c0,1.2,0.9,1.9,1.9,1.9S150.3,64.1,150.3,62.9z"/>
		<path class="st0" d="M130,62c1,0,1.9-0.8,1.9-2s-0.9-1.9-1.9-1.9c-1.1,0-1.9,0.8-1.9,2C128.1,61.3,129,62,130,62z"/>
		<path class="st0" d="M145.6,98.2c-1.1,0-2,0.8-1.9,1.9c0,1.2,0.9,1.9,1.9,1.9s1.9-0.7,1.9-1.9S146.6,98.2,145.6,98.2z"/>
		<path class="st0" d="M151.4,100.8c-1,0-1.9,0.7-1.9,1.9s0.9,1.9,1.9,1.9s1.9-0.7,1.9-1.9S152.4,100.8,151.4,100.8z"/>
		<path class="st0" d="M141.8,61c-1,0-1.9,0.7-1.9,1.9c0,1.2,0.9,1.9,1.9,1.9s1.9-0.7,1.9-1.9C143.7,61.7,142.8,61,141.8,61z"/>
		<path class="st0" d="M158.5,30.5c1,0,1.9-0.7,1.9-1.9c0-1.2-0.9-1.9-1.9-1.9c-1.1,0-2,0.7-1.9,1.9
			C156.6,29.8,157.5,30.5,158.5,30.5z"/>
		<path class="st0" d="M151.9,32c1,0,1.9-0.7,1.9-1.9c0-1.2-0.9-1.9-1.9-1.9c-1.1,0-2,0.7-1.9,1.9C150,31.3,150.9,32,151.9,32z"/>
		<path class="st0" d="M145.9,34.6c1,0,1.9-0.7,1.9-1.9s-0.9-1.9-1.9-1.9c-1.1,0-2,0.8-1.9,1.9C144,33.9,144.9,34.6,145.9,34.6z"/>
		<path class="st0" d="M192.3,56.1c0,1.2,0.9,1.9,1.9,1.9s1.9-0.7,1.9-1.9c0-1.2-0.9-1.9-1.9-1.9C193.1,54.2,192.2,55,192.3,56.1z"
			/>
		<path class="st0" d="M140.6,38.5c1,0,1.9-0.7,1.9-1.9c0-1.2-0.9-1.9-1.9-1.9s-1.9,0.8-1.9,1.9C138.7,37.8,139.6,38.5,140.6,38.5z"
			/>
		<path class="st0" d="M133.4,49.2c1,0,1.9-0.7,1.9-1.9s-0.9-1.9-1.9-1.9s-1.9,0.7-1.9,1.9S132.4,49.2,133.4,49.2z"/>
		<path class="st0" d="M131.2,55.5c1,0,1.9-0.7,1.9-1.9c0-1.2-0.9-1.9-1.9-1.9c-1.1,0-2,0.7-1.9,1.9
			C129.3,54.8,130.2,55.5,131.2,55.5z"/>
		<path class="st0" d="M135.2,61c-1,0-1.9,0.7-1.9,1.9c0,1.2,0.9,1.9,1.9,1.9s1.9-0.7,1.9-1.9C137.1,61.7,136.2,61,135.2,61z"/>
		<path class="st0" d="M136.6,43.5c1,0,1.9-0.7,1.9-1.9c0-1.2-0.9-1.9-1.9-1.9c-1.1,0-1.9,0.7-1.9,1.9
			C134.7,42.8,135.6,43.5,136.6,43.5z"/>
		<path class="st0" d="M193.4,92.8c-1,0-1.9,0.8-1.9,1.9c0,1.2,0.9,1.9,1.9,1.9s1.9-0.7,1.9-1.9S194.4,92.8,193.4,92.8z"/>
		<path class="st0" d="M182.9,31.6c-1,0-1.9,0.7-1.9,1.9s0.9,1.9,1.9,1.9s1.9-0.7,1.9-1.9S183.9,31.6,182.9,31.6z"/>
		<path class="st0" d="M188,64.8c1,0,1.9-0.7,1.9-1.9c0-1.2-0.9-1.9-1.9-1.9s-1.9,0.7-1.9,1.9C186.1,64.1,187,64.8,188,64.8z"/>
		<path class="st0" d="M189.3,38c0-1.2-0.9-1.9-1.9-1.9s-1.9,0.7-1.9,1.9s0.9,1.9,1.9,1.9S189.3,39.2,189.3,38z"/>
		<path class="st0" d="M183.3,62.9c0-1.2-0.9-1.9-1.9-1.9s-1.9,0.7-1.9,1.9c0,1.2,0.9,1.9,1.9,1.9S183.3,64.1,183.3,62.9z"/>
		<path class="st0" d="M182.9,99.7c-1,0-1.9,0.8-1.9,1.9c0,1.2,0.9,1.9,1.9,1.9s1.9-0.7,1.9-1.9S183.9,99.7,182.9,99.7z"/>
		<path class="st0" d="M194.5,61c-1.1,0-2,0.7-1.9,1.9c0,1.2,0.9,1.9,1.9,1.9s1.9-0.7,1.9-1.9C196.4,61.7,195.5,61,194.5,61z"/>
		<path class="st0" d="M177.5,28.3c-1,0-1.9,0.7-1.9,1.9s0.9,1.9,1.9,1.9s1.9-0.7,1.9-1.9S178.5,28.3,177.5,28.3z"/>
		<path class="st0" d="M193,51.4c1,0,1.9-0.7,1.9-1.9s-0.9-1.9-1.9-1.9c-1.1,0-2,0.8-1.9,1.9C191.1,50.7,192,51.4,193,51.4z"/>
		<path class="st0" d="M188.5,96.7c-1.1,0-2,0.8-1.9,1.9c0,1.2,0.9,1.9,1.9,1.9s1.9-0.7,1.9-1.9S189.5,96.7,188.5,96.7z"/>
		<path class="st0" d="M192.6,43.4c0-1.2-0.9-1.9-1.9-1.9s-1.9,0.7-1.9,1.9c0,1.2,0.9,1.9,1.9,1.9S192.6,44.6,192.6,43.4z"/>
		<path class="st0" d="M157.7,102.3c-1,0-1.9,0.7-1.9,1.9s0.9,1.9,1.9,1.9s1.9-0.7,1.9-1.9S158.7,102.3,157.7,102.3z"/>
		<path class="st0" d="M164.8,26.4c-1.1,0-1.9,0.7-1.9,1.9s0.9,1.9,1.9,1.9s1.9-0.7,1.9-1.9S165.8,26.4,164.8,26.4z"/>
		<path class="st0" d="M164.2,102.7c-1.1,0-2,0.8-1.9,1.9c0,1.2,0.9,1.9,1.9,1.9s1.9-0.7,1.9-1.9S165.2,102.7,164.2,102.7z"/>
		<path class="st0" d="M163.5,62.9c0-1.2-0.9-1.9-1.9-1.9s-1.9,0.7-1.9,1.9c0,1.2,0.9,1.9,1.9,1.9S163.5,64.1,163.5,62.9z"/>
		<path class="st0" d="M176.9,101.5c-1,0-1.9,0.8-1.9,1.9c0,1.2,0.9,1.9,1.9,1.9s1.9-0.7,1.9-1.9
			C178.8,102.2,177.9,101.5,176.9,101.5z"/>
		<path class="st0" d="M156.9,62.9c0-1.2-0.9-1.9-1.9-1.9s-1.9,0.7-1.9,1.9c0,1.2,0.9,1.9,1.9,1.9S156.9,64.1,156.9,62.9z"/>
		<path class="st0" d="M171.2,26.8c-1,0-1.9,0.7-1.9,1.9s0.9,1.9,1.9,1.9s1.9-0.7,1.9-1.9S172.2,26.8,171.2,26.8z"/>
		<path class="st0" d="M176.7,62.9c0-1.2-0.9-1.9-1.9-1.9s-1.9,0.7-1.9,1.9c0,1.2,0.9,1.9,1.9,1.9S176.7,64.1,176.7,62.9z"/>
		<path class="st0" d="M170.1,62.9c0-1.2-0.9-1.9-1.9-1.9s-1.9,0.7-1.9,1.9c0,1.2,0.9,1.9,1.9,1.9S170.1,64.1,170.1,62.9z"/>
		<path class="st0" d="M170.6,102.4c-1,0-1.9,0.8-1.9,1.9c0,1.2,0.9,1.9,1.9,1.9s1.9-0.7,1.9-1.9S171.6,102.4,170.6,102.4z"/>
	</g>
	<g>
		<path class="st0" d="M227.9,30.6c1,0,1.9-0.7,1.9-1.9s-0.9-1.9-1.9-1.9c-1.1,0-1.9,0.7-1.9,1.9S226.9,30.6,227.9,30.6z"/>
		<path class="st0" d="M207.7,26.8c-1.1,0-1.9,0.7-1.9,1.9s0.9,1.9,1.9,1.9s1.9-0.7,1.9-1.9S208.7,26.8,207.7,26.8z"/>
		<path class="st0" d="M231.5,51c1,0,1.9-0.7,1.9-1.9c0-1.2-0.9-1.9-1.9-1.9c-1.1,0-2,0.7-1.9,1.9C229.6,50.3,230.5,51,231.5,51z"/>
		<path class="st0" d="M221.2,30.6c1,0,1.9-0.7,1.9-1.9s-0.9-1.9-1.9-1.9c-1.1,0-1.9,0.7-1.9,1.9S220.2,30.6,221.2,30.6z"/>
		<path class="st0" d="M227.9,42.1c-1.1,0-2,0.7-1.9,1.9c0,1.2,0.9,1.9,1.9,1.9s1.9-0.7,1.9-1.9S228.9,42.1,227.9,42.1z"/>
		<path class="st0" d="M222.3,39c0,1.2,0.9,1.9,1.9,1.9s1.9-0.7,1.9-1.9s-0.9-1.9-1.9-1.9C223.1,37.1,222.3,37.8,222.3,39z"/>
		<path class="st0" d="M220.4,36.1c1,0,1.9-0.7,1.9-1.9s-0.9-1.9-1.9-1.9s-1.9,0.7-1.9,1.9S219.4,36.1,220.4,36.1z"/>
		<path class="st0" d="M206.3,101.8c-1,0-1.9,0.8-1.9,1.9c0,1.2,0.9,1.9,1.9,1.9s1.9-0.7,1.9-1.9S207.3,101.8,206.3,101.8z"/>
		<path class="st0" d="M214.4,30.6c1,0,1.9-0.7,1.9-1.9s-0.9-1.9-1.9-1.9s-1.9,0.7-1.9,1.9S213.4,30.6,214.4,30.6z"/>
		<path class="st0" d="M235.2,55.9c1,0,1.9-0.7,1.9-1.9s-0.9-1.9-1.9-1.9s-1.9,0.8-1.9,1.9C233.3,55.2,234.2,55.9,235.2,55.9z"/>
		<path class="st0" d="M254.6,30.6c1,0,1.9-0.7,1.9-1.9s-0.9-1.9-1.9-1.9c-1.1,0-1.9,0.7-1.9,1.9S253.6,30.6,254.6,30.6z"/>
		<path class="st0" d="M261.5,34.2c0,1.2,0.9,1.9,1.9,1.9s1.9-0.7,1.9-1.9s-0.9-1.9-1.9-1.9S261.5,33,261.5,34.2z"/>
		<path class="st0" d="M260,41c1,0,1.9-0.8,1.9-2s-0.9-1.9-1.9-1.9c-1.1,0-1.9,0.8-1.9,2C258.1,40.3,259,41,260,41z"/>
		<path class="st0" d="M262.7,93.7c0,1.2,0.9,1.9,1.9,1.9s1.9-0.7,1.9-1.9s-0.9-1.9-1.9-1.9S262.7,92.5,262.7,93.7z"/>
		<path class="st0" d="M254.8,44c0,1.2,0.9,1.9,1.9,1.9s1.9-0.7,1.9-1.9s-0.9-1.9-1.9-1.9C255.6,42.1,254.7,42.8,254.8,44z"/>
		<path class="st0" d="M268.1,30.6c1,0,1.9-0.7,1.9-1.9s-0.9-1.9-1.9-1.9c-1.1,0-1.9,0.7-1.9,1.9S267.1,30.6,268.1,30.6z"/>
		<path class="st0" d="M253.1,51c1,0,1.9-0.7,1.9-1.9c0-1.2-0.9-1.9-1.9-1.9c-1.1,0-2,0.7-1.9,1.9C251.2,50.3,252.1,51,253.1,51z"/>
		<path class="st0" d="M213.2,101.8c-1,0-1.9,0.8-1.9,1.9c0,1.2,0.9,1.9,1.9,1.9s1.9-0.7,1.9-1.9S214.2,101.8,213.2,101.8z"/>
		<path class="st0" d="M246.2,60.9c1,0,1.9-0.7,1.9-1.9s-0.9-1.9-1.9-1.9c-1.1,0-1.9,0.7-1.9,1.9S245.2,60.9,246.2,60.9z"/>
		<path class="st0" d="M249.6,55.9c1,0,1.9-0.7,1.9-1.9s-0.9-1.9-1.9-1.9s-1.9,0.8-1.9,1.9C247.7,55.2,248.6,55.9,249.6,55.9z"/>
		<path class="st0" d="M238.8,60.9c1,0,1.9-0.7,1.9-1.9s-0.9-1.9-1.9-1.9s-1.9,0.7-1.9,1.9S237.8,60.9,238.8,60.9z"/>
		<path class="st0" d="M261.3,30.6c1,0,1.9-0.7,1.9-1.9s-0.9-1.9-1.9-1.9s-1.9,0.7-1.9,1.9S260.3,30.6,261.3,30.6z"/>
		<path class="st0" d="M257.4,81.9c-1,0-1.9,0.8-1.9,1.9c0,1.2,0.9,1.9,1.9,1.9s1.9-0.7,1.9-1.9S258.4,81.9,257.4,81.9z"/>
		<path class="st0" d="M263.1,88.8c0-1.2-0.9-1.9-1.9-1.9c-1.1,0-2,0.7-1.9,1.9c0,1.2,0.9,1.9,1.9,1.9S263.1,90,263.1,88.8z"/>
		<path class="st0" d="M257.4,101.8c-1,0-1.9,0.8-1.9,1.9c0,1.2,0.9,1.9,1.9,1.9s1.9-0.7,1.9-1.9S258.4,101.8,257.4,101.8z"/>
		<path class="st0" d="M253.7,77c-1.1,0-2,0.7-1.9,1.9c0,1.2,0.9,1.9,1.9,1.9s1.9-0.7,1.9-1.9C255.6,77.7,254.7,77,253.7,77z"/>
		<path class="st0" d="M264.3,101.8c-1,0-1.9,0.8-1.9,1.9c0,1.2,0.9,1.9,1.9,1.9s1.9-0.7,1.9-1.9S265.3,101.8,264.3,101.8z"/>
		<path class="st0" d="M274.8,26.8c-1,0-1.9,0.7-1.9,1.9s0.9,1.9,1.9,1.9s1.9-0.7,1.9-1.9S275.8,26.8,274.8,26.8z"/>
		<path class="st0" d="M250.1,72c-1.1,0-2,0.8-1.9,1.9c0,1.2,0.9,1.9,1.9,1.9s1.9-0.7,1.9-1.9C252,72.7,251.1,72,250.1,72z"/>
		<path class="st0" d="M278.1,101.8c-1,0-1.9,0.8-1.9,1.9c0,1.2,0.9,1.9,1.9,1.9s1.9-0.7,1.9-1.9S279.1,101.8,278.1,101.8z"/>
		<path class="st0" d="M219.5,98.6c0-1.2-0.9-1.9-1.9-1.9c-1.1,0-2,0.8-1.9,1.9c0,1.2,0.9,1.9,1.9,1.9S219.5,99.8,219.5,98.6z"/>
		<path class="st0" d="M271.2,101.8c-1,0-1.9,0.8-1.9,1.9c0,1.2,0.9,1.9,1.9,1.9s1.9-0.7,1.9-1.9S272.2,101.8,271.2,101.8z"/>
		<path class="st0" d="M270.3,98.6c0-1.2-0.9-1.9-1.9-1.9c-1.1,0-2,0.8-1.9,1.9c0,1.2,0.9,1.9,1.9,1.9S270.3,99.8,270.3,98.6z"/>
		<path class="st0" d="M226.5,88.8c0-1.2-0.9-1.9-1.9-1.9s-1.9,0.7-1.9,1.9s0.9,1.9,1.9,1.9S226.5,90,226.5,88.8z"/>
		<path class="st0" d="M228.5,81.9c-1.1,0-2,0.8-1.9,1.9c0,1.2,0.9,1.9,1.9,1.9s1.9-0.7,1.9-1.9S229.5,81.9,228.5,81.9z"/>
		<path class="st0" d="M226.8,101.8c-1,0-1.9,0.8-1.9,1.9c0,1.2,0.9,1.9,1.9,1.9s1.9-0.7,1.9-1.9S227.8,101.8,226.8,101.8z"/>
		<path class="st0" d="M221.3,91.8c-1,0-1.9,0.7-1.9,1.9s0.9,1.9,1.9,1.9s1.9-0.7,1.9-1.9S222.3,91.8,221.3,91.8z"/>
		<path class="st0" d="M220,101.8c-1.1,0-2,0.8-1.9,1.9c0,1.2,0.9,1.9,1.9,1.9s1.9-0.7,1.9-1.9S221,101.8,220,101.8z"/>
		<path class="st0" d="M231.8,77c-1.1,0-2,0.7-1.9,1.9c0,1.2,0.9,1.9,1.9,1.9s1.9-0.7,1.9-1.9C233.7,77.7,232.8,77,231.8,77z"/>
		<path class="st0" d="M239,67.1c-1.1,0-2,0.7-1.9,1.9c0,1.2,0.9,1.9,1.9,1.9s1.9-0.7,1.9-1.9S240,67.1,239,67.1z"/>
		<path class="st0" d="M246.3,67.1c-1,0-1.9,0.7-1.9,1.9s0.9,1.9,1.9,1.9s1.9-0.7,1.9-1.9S247.3,67.1,246.3,67.1z"/>
		<path class="st0" d="M242.6,62c-1.1,0-2,0.7-1.9,1.9c0,1.2,0.9,1.9,1.9,1.9s1.9-0.7,1.9-1.9C244.5,62.7,243.6,62,242.6,62z"/>
		<path class="st0" d="M235.4,72c-1.1,0-2,0.8-1.9,1.9c0,1.2,0.9,1.9,1.9,1.9s1.9-0.7,1.9-1.9C237.3,72.7,236.4,72,235.4,72z"/>
	</g>
	<g>
		<path class="st0" d="M300,54.5c-1,0-1.9,0.7-1.9,1.9c0,1.2,0.9,1.9,1.9,1.9s1.9-0.7,1.9-1.9C301.9,55.2,301,54.5,300,54.5z"/>
		<path class="st0" d="M300,61.3c-1,0-1.9,0.7-1.9,1.9s0.9,1.9,1.9,1.9s1.9-0.7,1.9-1.9S301,61.3,300,61.3z"/>
		<path class="st0" d="M300,47.6c-1,0-1.9,0.8-1.9,1.9c0,1.2,0.9,1.9,1.9,1.9s1.9-0.7,1.9-1.9S301,47.6,300,47.6z"/>
		<path class="st0" d="M300,40.7c-1,0-1.9,0.7-1.9,1.9c0,1.2,0.9,1.9,1.9,1.9s1.9-0.7,1.9-1.9C301.9,41.4,301,40.7,300,40.7z"/>
		<path class="st0" d="M300,88.2c-1,0-1.9,0.8-1.9,1.9c0,1.2,0.9,1.9,1.9,1.9s1.9-0.7,1.9-1.9S301,88.2,300,88.2z"/>
		<path class="st0" d="M300,74.6c-1,0-1.9,0.7-1.9,1.9s0.9,1.9,1.9,1.9s1.9-0.7,1.9-1.9S301,74.6,300,74.6z"/>
		<path class="st0" d="M300,81.3c-1,0-1.9,0.8-1.9,1.9c0,1.2,0.9,1.9,1.9,1.9s1.9-0.7,1.9-1.9S301,81.3,300,81.3z"/>
		<path class="st0" d="M298.1,28.7c0,1.2,0.9,1.9,1.9,1.9s1.9-0.7,1.9-1.9s-0.9-1.9-1.9-1.9S298.1,27.5,298.1,28.7z"/>
		<path class="st0" d="M300,33.8c-1,0-1.9,0.7-1.9,1.9s0.9,1.9,1.9,1.9s1.9-0.7,1.9-1.9S301,33.8,300,33.8z"/>
		<path class="st0" d="M300,67.8c-1,0-1.9,0.8-1.9,1.9c0,1.2,0.9,1.9,1.9,1.9s1.9-0.7,1.9-1.9S301,67.8,300,67.8z"/>
		<path class="st0" d="M301.1,101.8c-1.1,0-2,0.8-1.9,1.9c0,1.2,0.9,1.9,1.9,1.9s1.9-0.7,1.9-1.9S302.1,101.8,301.1,101.8z"/>
		<path class="st0" d="M307.7,101.8c-1.1,0-2,0.8-1.9,1.9c0,1.2,0.9,1.9,1.9,1.9s1.9-0.7,1.9-1.9S308.7,101.8,307.7,101.8z"/>
		<path class="st0" d="M314.3,101.8c-1.1,0-2,0.8-1.9,1.9c0,1.2,0.9,1.9,1.9,1.9s1.9-0.7,1.9-1.9S315.3,101.8,314.3,101.8z"/>
		<path class="st0" d="M301.9,97c0-1.2-0.9-1.9-1.9-1.9s-1.9,0.8-1.9,2S299,99,300,99C301.1,99,301.9,98.2,301.9,97z"/>
		<path class="st0" d="M287.9,101.8c-1.1,0-2,0.8-1.9,1.9c0,1.2,0.9,1.9,1.9,1.9s1.9-0.7,1.9-1.9S288.9,101.8,287.9,101.8z"/>
		<path class="st0" d="M295.5,28.7c0-1.2-0.9-1.9-1.9-1.9c-1.1,0-1.9,0.7-1.9,1.9s0.9,1.9,1.9,1.9S295.5,29.9,295.5,28.7z"/>
		<path class="st0" d="M288.9,28.7c0-1.2-0.9-1.9-1.9-1.9c-1.1,0-1.9,0.7-1.9,1.9s0.9,1.9,1.9,1.9S288.9,29.9,288.9,28.7z"/>
		<path class="st0" d="M301.2,10.9c0-1.2-0.9-1.9-1.9-1.9c-1.1,0-2,0.7-1.9,1.9c0,1.2,0.9,1.9,1.9,1.9S301.2,12.1,301.2,10.9z"/>
		<path class="st0" d="M294.5,101.8c-1.1,0-2,0.8-1.9,1.9c0,1.2,0.9,1.9,1.9,1.9s1.9-0.7,1.9-1.9S295.5,101.8,294.5,101.8z"/>
	</g>
	<g>
		<path class="st0" d="M331.2,85.6c0-1.2-0.9-1.9-1.9-1.9c-1.1,0-2,0.8-1.9,1.9c0,1.2,0.9,1.9,1.9,1.9S331.2,86.8,331.2,85.6z"/>
		<path class="st0" d="M329.1,79.3c0-1.2-0.9-1.9-1.9-1.9c-1.1,0-2,0.8-1.9,1.9c0,1.2,0.9,1.9,1.9,1.9S329.1,80.5,329.1,79.3z"/>
		<path class="st0" d="M327.9,72.9c0-1.2-0.9-1.9-1.9-1.9c-1.1,0-2,0.7-1.9,1.9c0,1.2,0.9,1.9,1.9,1.9S327.9,74.1,327.9,72.9z"/>
		<path class="st0" d="M332.4,89.6c-1,0-1.9,0.7-1.9,1.9s0.9,1.9,1.9,1.9s1.9-0.7,1.9-1.9S333.4,89.6,332.4,89.6z"/>
		<path class="st0" d="M341.7,98.2c-1.1,0-2,0.8-1.9,1.9c0,1.2,0.9,1.9,1.9,1.9s1.9-0.7,1.9-1.9S342.7,98.2,341.7,98.2z"/>
		<path class="st0" d="M336.5,94.6c-1.1,0-2,0.8-1.9,1.9c0,1.2,0.9,1.9,1.9,1.9s1.9-0.7,1.9-1.9S337.5,94.6,336.5,94.6z"/>
		<path class="st0" d="M336.7,34.7c-1,0-1.9,0.8-1.9,1.9c0,1.2,0.9,1.9,1.9,1.9s1.9-0.7,1.9-1.9C338.6,35.4,337.7,34.7,336.7,34.7z"
			/>
		<path class="st0" d="M327.3,55.5c1,0,1.9-0.7,1.9-1.9c0-1.2-0.9-1.9-1.9-1.9s-1.9,0.7-1.9,1.9C325.4,54.8,326.3,55.5,327.3,55.5z"
			/>
		<path class="st0" d="M332.7,43.5c1,0,1.9-0.7,1.9-1.9c0-1.2-0.9-1.9-1.9-1.9s-1.9,0.7-1.9,1.9C330.8,42.8,331.7,43.5,332.7,43.5z"
			/>
		<path class="st0" d="M386.1,40.2c1,0,1.9-0.7,1.9-1.9s-0.9-1.9-1.9-1.9c-1.1,0-1.9,0.7-1.9,1.9S385.1,40.2,386.1,40.2z"/>
		<path class="st0" d="M325.8,68.3c1,0,1.9-0.7,1.9-1.9c0-1.2-0.9-1.9-1.9-1.9s-1.9,0.8-1.9,1.9C323.9,67.6,324.8,68.3,325.8,68.3z"
			/>
		<path class="st0" d="M386.1,33.9c1,0,1.9-0.7,1.9-1.9s-0.9-1.9-1.9-1.9c-1.1,0-2,0.7-1.9,1.9C384.2,33.2,385.1,33.9,386.1,33.9z"
			/>
		<path class="st0" d="M326.1,61.9c1,0,1.9-0.7,1.9-1.9s-0.9-1.9-1.9-1.9s-1.9,0.7-1.9,1.9S325.1,61.9,326.1,61.9z"/>
		<path class="st0" d="M329.6,49.2c1,0,1.9-0.7,1.9-1.9s-0.9-1.9-1.9-1.9c-1.1,0-2,0.7-1.9,1.9C327.7,48.5,328.6,49.2,329.6,49.2z"
			/>
		<path class="st0" d="M342,30.8c-1.1,0-2,0.8-1.9,1.9c0,1.2,0.9,1.9,1.9,1.9s1.9-0.7,1.9-1.9S343,30.8,342,30.8z"/>
		<path class="st0" d="M373.9,26.8c-1,0-1.9,0.8-1.9,2s0.9,1.8,1.9,1.8s1.9-0.7,1.9-1.9S374.9,26.8,373.9,26.8z"/>
		<path class="st0" d="M380.1,28c-1.1,0-1.9,0.7-1.9,1.9c0,1.2,0.9,1.9,1.9,1.9s1.9-0.7,1.9-1.9C382,28.7,381.1,28,380.1,28z"/>
		<path class="st0" d="M378.9,99c-1.1,0-2,0.7-1.9,1.9c0,1.2,0.9,1.9,1.9,1.9s1.9-0.7,1.9-1.9C380.8,99.7,379.9,99,378.9,99z"/>
		<path class="st0" d="M373,101.2c-1,0-1.9,0.8-1.9,1.9c0,1.2,0.9,1.9,1.9,1.9s1.9-0.7,1.9-1.9S374,101.2,373,101.2z"/>
		<path class="st0" d="M347.5,100.8c-1,0-1.9,0.7-1.9,1.9s0.9,1.9,1.9,1.9s1.9-0.7,1.9-1.9S348.5,100.8,347.5,100.8z"/>
		<path class="st0" d="M388.6,91.2c-1,0-1.9,0.8-1.9,1.9c0,1.2,0.9,1.9,1.9,1.9s1.9-0.7,1.9-1.9S389.6,91.2,388.6,91.2z"/>
		<path class="st0" d="M367.6,26.4c-1,0-1.9,0.7-1.9,1.9s0.9,1.9,1.9,1.9s1.9-0.7,1.9-1.9S368.6,26.4,367.6,26.4z"/>
		<path class="st0" d="M384.1,95.7c-1,0-1.9,0.7-1.9,1.9c0,1.2,0.9,1.9,1.9,1.9s1.9-0.7,1.9-1.9S385.1,95.7,384.1,95.7z"/>
		<path class="st0" d="M388,44.6c0-1.2-0.9-1.9-1.9-1.9c-1.1,0-1.9,0.7-1.9,1.9c0,1.2,0.9,1.9,1.9,1.9S388,45.8,388,44.6z"/>
		<path class="st0" d="M353.8,102.3c-1,0-1.9,0.7-1.9,1.9s0.9,1.9,1.9,1.9s1.9-0.7,1.9-1.9S354.8,102.3,353.8,102.3z"/>
		<path class="st0" d="M348,28.2c-1.1,0-2,0.7-1.9,1.9c0,1.2,0.9,1.9,1.9,1.9s1.9-0.7,1.9-1.9C349.9,28.9,349,28.2,348,28.2z"/>
		<path class="st0" d="M354.6,26.8c-1.1,0-1.9,0.7-1.9,1.9s0.9,1.9,1.9,1.9s1.9-0.7,1.9-1.9S355.6,26.8,354.6,26.8z"/>
		<path class="st0" d="M366.7,102.4c-1,0-1.9,0.8-1.9,1.9c0,1.2,0.9,1.9,1.9,1.9s1.9-0.7,1.9-1.9S367.7,102.4,366.7,102.4z"/>
		<path class="st0" d="M361.2,26.4c-1.1,0-1.9,0.7-1.9,1.9s0.9,1.9,1.9,1.9s1.9-0.7,1.9-1.9S362.2,26.4,361.2,26.4z"/>
		<path class="st0" d="M360.3,102.7c-1.1,0-2,0.8-1.9,1.9c0,1.2,0.9,1.9,1.9,1.9s1.9-0.7,1.9-1.9S361.3,102.7,360.3,102.7z"/>
	</g>
	<g>
		<path class="st0" d="M421.6,102.3c-1,0-1.9,0.7-1.9,1.9s0.9,1.9,1.9,1.9s1.9-0.7,1.9-1.9S422.6,102.3,421.6,102.3z"/>
		<path class="st0" d="M416.1,63.2c-1.1,0-2,0.7-1.9,1.9c0,1.2,0.9,1.9,1.9,1.9s1.9-0.7,1.9-1.9C418,63.9,417.1,63.2,416.1,63.2z"/>
		<path class="st0" d="M410.2,65.9c-1,0-1.9,0.7-1.9,1.9c0,1.2,0.9,1.9,1.9,1.9s1.9-0.7,1.9-1.9S411.2,65.9,410.2,65.9z"/>
		<path class="st0" d="M415.5,101.2c-1.1,0-2,0.8-1.9,1.9c0,1.2,0.9,1.9,1.9,1.9s1.9-0.7,1.9-1.9S416.5,101.2,415.5,101.2z"/>
		<path class="st0" d="M422,29.8c0-1.2-0.9-1.9-1.9-1.9s-1.9,0.7-1.9,1.9s0.9,1.9,1.9,1.9S422,31,422,29.8z"/>
		<path class="st0" d="M428.1,102.4c-1.1,0-2,0.8-1.9,1.9c0,1.2,0.9,1.9,1.9,1.9s1.9-0.7,1.9-1.9S429.1,102.4,428.1,102.4z"/>
		<path class="st0" d="M422.5,61.7c-1,0-1.9,0.7-1.9,1.9c0,1.2,0.9,1.9,1.9,1.9s1.9-0.7,1.9-1.9C424.4,62.4,423.5,61.7,422.5,61.7z"
			/>
		<path class="st0" d="M429.3,61.1c-1.1,0-1.9,0.7-1.9,1.9s0.9,1.9,1.9,1.9s1.9-0.7,1.9-1.9S430.3,61.1,429.3,61.1z"/>
		<path class="st0" d="M428.8,28.6c0-1.2-0.9-1.9-1.9-1.9c-1.1,0-2,0.7-1.9,1.9c0,1.2,0.9,1.9,1.9,1.9S428.8,29.8,428.8,28.6z"/>
		<path class="st0" d="M409.7,34.4c0-1.2-0.9-1.9-1.9-1.9s-1.9,0.7-1.9,1.9c0,1.2,0.9,1.9,1.9,1.9S409.7,35.6,409.7,34.4z"/>
		<path class="st0" d="M405.3,73.9c1,0,1.9-0.7,1.9-1.9s-0.9-1.9-1.9-1.9c-1.1,0-2,0.7-1.9,1.9C403.4,73.2,404.3,73.9,405.3,73.9z"
			/>
		<path class="st0" d="M446.1,32c1,0,1.9-0.7,1.9-1.9c0-1.2-0.9-1.9-1.9-1.9c-1.1,0-2,0.7-1.9,1.9C444.2,31.3,445.1,32,446.1,32z"/>
		<path class="st0" d="M409.9,98.8c-1,0-1.9,0.8-1.9,1.9c0,1.2,0.9,1.9,1.9,1.9s1.9-0.7,1.9-1.9S410.9,98.8,409.9,98.8z"/>
		<path class="st0" d="M451.3,35.5c1,0,1.9-0.7,1.9-1.9c0-1.2-0.9-1.9-1.9-1.9c-1.1,0-2,0.8-1.9,1.9
			C449.4,34.8,450.3,35.5,451.3,35.5z"/>
		<path class="st0" d="M402.6,79.9c1,0,1.9-0.7,1.9-1.9s-0.9-1.9-1.9-1.9c-1.1,0-2,0.7-1.9,1.9C400.7,79.2,401.6,79.9,402.6,79.9z"
			/>
		<path class="st0" d="M403.7,84.4c0-1.2-0.9-1.9-1.9-1.9s-1.9,0.8-1.9,1.9c0,1.2,0.9,1.9,1.9,1.9S403.7,85.6,403.7,84.4z"/>
		<path class="st0" d="M405.4,94.6c-1,0-1.9,0.8-1.9,1.9c0,1.2,0.9,1.9,1.9,1.9s1.9-0.7,1.9-1.9S406.4,94.6,405.4,94.6z"/>
		<path class="st0" d="M435.2,28.3c0-1.2-0.9-1.9-1.9-1.9s-1.9,0.7-1.9,1.9s0.9,1.9,1.9,1.9S435.2,29.5,435.2,28.3z"/>
		<path class="st0" d="M404.6,90.7c0-1.2-0.9-1.9-1.9-1.9s-1.9,0.8-1.9,1.9c0,1.2,0.9,1.9,1.9,1.9S404.6,91.9,404.6,90.7z"/>
		<path class="st0" d="M415.7,31.6c0-1.2-0.9-1.9-1.9-1.9s-1.9,0.7-1.9,1.9c0,1.2,0.9,1.9,1.9,1.9S415.7,32.8,415.7,31.6z"/>
		<path class="st0" d="M434.2,101.4c-1,0-1.9,0.7-1.9,1.9c0,1.2,0.9,1.9,1.9,1.9s1.9-0.7,1.9-1.9S435.2,101.4,434.2,101.4z"/>
		<path class="st0" d="M455.5,97c-1.1,0-2,0.8-1.9,1.9c0,1.2,0.9,1.9,1.9,1.9s1.9-0.7,1.9-1.9C457.4,97.7,456.5,97,455.5,97z"/>
		<path class="st0" d="M455.5,90.2c-1.1,0-2,0.7-1.9,1.9c0,1.2,0.9,1.9,1.9,1.9s1.9-0.7,1.9-1.9S456.5,90.2,455.5,90.2z"/>
		<path class="st0" d="M455.5,63.8c-1.1,0-2,0.7-1.9,1.9c0,1.2,0.9,1.9,1.9,1.9s1.9-0.7,1.9-1.9C457.4,64.5,456.5,63.8,455.5,63.8z"
			/>
		<path class="st0" d="M455.5,83.6c-1.1,0-2,0.7-1.9,1.9c0,1.2,0.9,1.9,1.9,1.9s1.9-0.7,1.9-1.9S456.5,83.6,455.5,83.6z"/>
		<path class="st0" d="M455.5,77c-1.1,0-2,0.7-1.9,1.9c0,1.2,0.9,1.9,1.9,1.9s1.9-0.7,1.9-1.9C457.4,77.7,456.5,77,455.5,77z"/>
		<path class="st0" d="M459.5,102c-1,0-1.9,0.7-1.9,1.9c0,1.2,0.9,1.9,1.9,1.9s1.9-0.7,1.9-1.9C461.4,102.7,460.5,102,459.5,102z"/>
		<path class="st0" d="M465.7,101.8c-1.1,0-2,0.8-1.9,1.9c0,1.2,0.9,1.9,1.9,1.9s1.9-0.7,1.9-1.9S466.7,101.8,465.7,101.8z"/>
		<path class="st0" d="M455.5,57.2c-1.1,0-2,0.8-1.9,1.9c0,1.2,0.9,1.9,1.9,1.9s1.9-0.7,1.9-1.9C457.4,57.9,456.5,57.2,455.5,57.2z"
			/>
		<path class="st0" d="M455.5,50.6c-1.1,0-2,0.8-1.9,1.9c0,1.2,0.9,1.9,1.9,1.9s1.9-0.7,1.9-1.9S456.5,50.6,455.5,50.6z"/>
		<path class="st0" d="M455.5,70.4c-1.1,0-2,0.7-1.9,1.9c0,1.2,0.9,1.9,1.9,1.9s1.9-0.7,1.9-1.9S456.5,70.4,455.5,70.4z"/>
		<path class="st0" d="M444.5,63.9c0-1.2-0.9-1.9-1.9-1.9s-1.9,0.7-1.9,1.9c0,1.2,0.9,1.9,1.9,1.9S444.5,65.1,444.5,63.9z"/>
		<path class="st0" d="M440.1,99.1c-1.1,0-2,0.8-1.9,1.9c0,1.2,0.9,1.9,1.9,1.9s1.9-0.7,1.9-1.9S441.1,99.1,440.1,99.1z"/>
		<path class="st0" d="M439.8,30.5c1,0,1.9-0.7,1.9-1.9c0-1.2-0.9-1.9-1.9-1.9c-1.1,0-2,0.7-1.9,1.9
			C437.9,29.8,438.8,30.5,439.8,30.5z"/>
		<path class="st0" d="M435.9,61.3c-1.1,0-2,0.7-1.9,1.9c0,1.2,0.9,1.9,1.9,1.9s1.9-0.7,1.9-1.9S436.9,61.3,435.9,61.3z"/>
		<path class="st0" d="M449.9,91.8c-1,0-1.9,0.7-1.9,1.9s0.9,1.9,1.9,1.9s1.9-0.7,1.9-1.9S450.9,91.8,449.9,91.8z"/>
		<path class="st0" d="M455.9,39.5c0-1.2-0.9-1.9-1.9-1.9c-1.1,0-1.9,0.7-1.9,1.9s0.9,1.9,1.9,1.9S455.9,40.7,455.9,39.5z"/>
		<path class="st0" d="M455.2,47.8c1,0,1.9-0.7,1.9-1.9c0-1.2-0.9-1.9-1.9-1.9c-1.1,0-2,0.8-1.9,1.9
			C453.3,47.1,454.2,47.8,455.2,47.8z"/>
		<path class="st0" d="M451.1,65.1c0-1.2-0.9-1.9-1.9-1.9c-1.1,0-2,0.7-1.9,1.9c0,1.2,0.9,1.9,1.9,1.9S451.1,66.3,451.1,65.1z"/>
		<path class="st0" d="M445.5,96c-1.1,0-2,0.7-1.9,1.9c0,1.2,0.9,1.9,1.9,1.9s1.9-0.7,1.9-1.9C447.4,96.7,446.5,96,445.5,96z"/>
	</g>
	<g>
		<path class="st0" d="M476.2,101.8c-1.1,0-2,0.8-1.9,1.9c0,1.2,0.9,1.9,1.9,1.9s1.9-0.7,1.9-1.9S477.2,101.8,476.2,101.8z"/>
		<path class="st0" d="M487.3,85.7c1,0,1.9-0.7,1.9-1.9s-0.9-1.9-1.9-1.9c-1.1,0-2,0.8-1.9,1.9C485.4,85,486.3,85.7,487.3,85.7z"/>
		<path class="st0" d="M487.3,92.6c1,0,1.9-0.7,1.9-1.9s-0.9-1.9-1.9-1.9c-1.1,0-2,0.8-1.9,1.9C485.4,91.9,486.3,92.6,487.3,92.6z"
			/>
		<path class="st0" d="M476.6,28.7c0-1.2-0.9-1.9-1.9-1.9c-1.1,0-1.9,0.7-1.9,1.9s0.9,1.9,1.9,1.9S476.6,29.9,476.6,28.7z"/>
		<path class="st0" d="M482.9,28.7c0-1.2-0.9-1.9-1.9-1.9c-1.1,0-1.9,0.7-1.9,1.9s0.9,1.9,1.9,1.9S482.9,29.9,482.9,28.7z"/>
		<path class="st0" d="M494.9,41c0-1.2-0.9-1.9-1.9-1.9c-1.1,0-2,0.7-1.9,1.9c0,1.2,0.9,1.9,1.9,1.9S494.9,42.2,494.9,41z"/>
		<path class="st0" d="M498.1,35c-1.1,0-2,0.8-1.9,1.9c0,1.2,0.9,1.9,1.9,1.9s1.9-0.7,1.9-1.9C500,35.7,499.1,35,498.1,35z"/>
		<path class="st0" d="M482.8,101.8c-1.1,0-2,0.8-1.9,1.9c0,1.2,0.9,1.9,1.9,1.9s1.9-0.7,1.9-1.9S483.8,101.8,482.8,101.8z"/>
		<path class="st0" d="M489.4,101.8c-1.1,0-2,0.8-1.9,1.9c0,1.2,0.9,1.9,1.9,1.9s1.9-0.7,1.9-1.9S490.4,101.8,489.4,101.8z"/>
		<path class="st0" d="M489.2,97.6c0-1.2-0.9-1.9-1.9-1.9c-1.1,0-2,0.7-1.9,1.9c0,1.2,0.9,1.9,1.9,1.9S489.2,98.8,489.2,97.6z"/>
		<path class="st0" d="M496,101.8c-1.1,0-2,0.8-1.9,1.9c0,1.2,0.9,1.9,1.9,1.9s1.9-0.7,1.9-1.9S497,101.8,496,101.8z"/>
		<path class="st0" d="M487.3,30.6c1,0,1.9-0.7,1.9-1.9s-0.9-1.9-1.9-1.9c-1.1,0-1.9,0.7-1.9,1.9S486.3,30.6,487.3,30.6z"/>
		<path class="st0" d="M487.3,78.8c1,0,1.9-0.7,1.9-1.9c0-1.2-0.9-1.9-1.9-1.9c-1.1,0-2,0.8-1.9,1.9
			C485.4,78.1,486.3,78.8,487.3,78.8z"/>
		<path class="st0" d="M540.9,38.9c0,1.2,0.9,1.9,1.9,1.9s1.9-0.7,1.9-1.9c0-1.2-0.9-1.9-1.9-1.9C541.7,37,540.8,37.7,540.9,38.9z"
			/>
		<path class="st0" d="M487.3,44.4c1,0,1.9-0.7,1.9-1.9s-0.9-1.9-1.9-1.9c-1.1,0-2,0.7-1.9,1.9C485.4,43.7,486.3,44.4,487.3,44.4z"
			/>
		<path class="st0" d="M542.1,44.9c0,1.2,0.9,1.9,1.9,1.9s1.9-0.7,1.9-1.9c0-1.2-0.9-1.9-1.9-1.9C542.9,43,542.1,43.7,542.1,44.9z"
			/>
		<path class="st0" d="M487.3,37.5c1,0,1.9-0.7,1.9-1.9c0-1.2-0.9-1.9-1.9-1.9c-1.1,0-2,0.7-1.9,1.9
			C485.4,36.8,486.3,37.5,487.3,37.5z"/>
		<path class="st0" d="M487.3,65.1c1,0,1.9-0.7,1.9-1.9s-0.9-1.9-1.9-1.9c-1.1,0-2,0.7-1.9,1.9C485.4,64.4,486.3,65.1,487.3,65.1z"
			/>
		<path class="st0" d="M487.3,71.9c1,0,1.9-0.7,1.9-1.9s-0.9-1.9-1.9-1.9c-1.1,0-2,0.8-1.9,1.9C485.4,71.2,486.3,71.9,487.3,71.9z"
			/>
		<path class="st0" d="M487.3,58.2c1,0,1.9-0.7,1.9-1.9s-0.9-1.9-1.9-1.9c-1.1,0-1.9,0.7-1.9,1.9S486.3,58.2,487.3,58.2z"/>
		<path class="st0" d="M487.3,51.3c1,0,1.9-0.7,1.9-1.9c0-1.2-0.9-1.9-1.9-1.9c-1.1,0-1.9,0.7-1.9,1.9
			C485.4,50.6,486.3,51.3,487.3,51.3z"/>
		<path class="st0" d="M544.3,69.3c-1.1,0-2,0.8-1.9,1.9c0,1.2,0.9,1.9,1.9,1.9s1.9-0.7,1.9-1.9S545.3,69.3,544.3,69.3z"/>
		<path class="st0" d="M502.6,101.8c-1.1,0-2,0.8-1.9,1.9c0,1.2,0.9,1.9,1.9,1.9s1.9-0.7,1.9-1.9S503.6,101.8,502.6,101.8z"/>
		<path class="st0" d="M544.3,62.7c-1.1,0-2,0.8-1.9,1.9c0,1.2,0.9,1.9,1.9,1.9s1.9-0.7,1.9-1.9C546.2,63.4,545.3,62.7,544.3,62.7z"
			/>
		<path class="st0" d="M544.3,82.5c-1.1,0-2,0.8-1.9,1.9c0,1.2,0.9,1.9,1.9,1.9s1.9-0.7,1.9-1.9C546.2,83.2,545.3,82.5,544.3,82.5z"
			/>
		<path class="st0" d="M544.3,95.7c-1.1,0-2,0.7-1.9,1.9c0,1.2,0.9,1.9,1.9,1.9s1.9-0.7,1.9-1.9S545.3,95.7,544.3,95.7z"/>
		<path class="st0" d="M541.9,101.8c-1.1,0-2,0.8-1.9,1.9c0,1.2,0.9,1.9,1.9,1.9s1.9-0.7,1.9-1.9S542.9,101.8,541.9,101.8z"/>
		<path class="st0" d="M544.3,89.1c-1.1,0-2,0.8-1.9,1.9c0,1.2,0.9,1.9,1.9,1.9s1.9-0.7,1.9-1.9S545.3,89.1,544.3,89.1z"/>
		<path class="st0" d="M555.1,101.8c-1.1,0-2,0.8-1.9,1.9c0,1.2,0.9,1.9,1.9,1.9s1.9-0.7,1.9-1.9S556.1,101.8,555.1,101.8z"/>
		<path class="st0" d="M548.5,101.8c-1.1,0-2,0.8-1.9,1.9c0,1.2,0.9,1.9,1.9,1.9s1.9-0.7,1.9-1.9S549.5,101.8,548.5,101.8z"/>
		<path class="st0" d="M544.3,56.2c-1.1,0-2,0.7-1.9,1.9c0,1.2,0.9,1.9,1.9,1.9s1.9-0.7,1.9-1.9C546.2,56.9,545.3,56.2,544.3,56.2z"
			/>
		<path class="st0" d="M544.3,49.6c-1.1,0-2,0.7-1.9,1.9c0,1.2,0.9,1.9,1.9,1.9s1.9-0.7,1.9-1.9S545.3,49.6,544.3,49.6z"/>
		<path class="st0" d="M544.3,75.9c-1.1,0-2,0.8-1.9,1.9c0,1.2,0.9,1.9,1.9,1.9s1.9-0.7,1.9-1.9S545.3,75.9,544.3,75.9z"/>
		<path class="st0" d="M542,33.3c0-1.2-0.9-1.9-1.9-1.9c-1.1,0-2,0.8-1.9,1.9c0,1.2,0.9,1.9,1.9,1.9S542,34.5,542,33.3z"/>
		<path class="st0" d="M509.3,29.2c-1,0-1.9,0.8-1.9,1.9c0,1.2,0.9,1.9,1.9,1.9s1.9-0.7,1.9-1.9C511.2,29.9,510.3,29.2,509.3,29.2z"
			/>
		<path class="st0" d="M522.1,26.4c-1.1,0-1.9,0.7-1.9,1.9s0.9,1.9,1.9,1.9s1.9-0.7,1.9-1.9S523.1,26.4,522.1,26.4z"/>
		<path class="st0" d="M503.5,31.9c-1.1,0-1.9,0.7-1.9,1.9s0.9,1.9,1.9,1.9s1.9-0.7,1.9-1.9S504.5,31.9,503.5,31.9z"/>
		<path class="st0" d="M515.6,27.3c-1,0-1.9,0.7-1.9,1.9s0.9,1.9,1.9,1.9s1.9-0.7,1.9-1.9S516.6,27.3,515.6,27.3z"/>
		<path class="st0" d="M535.3,101.8c-1.1,0-2,0.8-1.9,1.9c0,1.2,0.9,1.9,1.9,1.9s1.9-0.7,1.9-1.9S536.3,101.8,535.3,101.8z"/>
		<path class="st0" d="M535.1,31.4c1,0,1.9-0.7,1.9-1.9s-0.9-1.9-1.9-1.9s-1.9,0.7-1.9,1.9S534.1,31.4,535.1,31.4z"/>
		<path class="st0" d="M528.7,101.8c-1.1,0-2,0.8-1.9,1.9c0,1.2,0.9,1.9,1.9,1.9s1.9-0.7,1.9-1.9S529.7,101.8,528.7,101.8z"/>
		<path class="st0" d="M528.7,26.4c-1.1,0-1.9,0.7-1.9,1.9s0.9,1.9,1.9,1.9s1.9-0.7,1.9-1.9S529.7,26.4,528.7,26.4z"/>
	</g>
	<g>
		<path class="st0" d="M14.8,252.6c-1,0-1.9,0.7-1.9,1.9s0.9,1.9,1.9,1.9s1.9-0.7,1.9-1.9S15.8,252.6,14.8,252.6z"/>
		<path class="st0" d="M15.4,246.8c-1,0-1.9,0.7-1.9,1.9c0,1.2,0.9,1.9,1.9,1.9s1.9-0.7,1.9-1.9C17.3,247.5,16.4,246.8,15.4,246.8z"
			/>
		<path class="st0" d="M15.4,240.3c-1,0-1.9,0.8-1.9,1.9c0,1.2,0.9,1.9,1.9,1.9s1.9-0.7,1.9-1.9C17.3,241,16.4,240.3,15.4,240.3z"/>
		<path class="st0" d="M15.4,233.9c-1,0-1.9,0.7-1.9,1.9s0.9,1.9,1.9,1.9s1.9-0.7,1.9-1.9S16.4,233.9,15.4,233.9z"/>
		<path class="st0" d="M8.4,150.8c-1.1,0-2,0.7-1.9,1.9c0,1.2,0.9,1.9,1.9,1.9s1.9-0.7,1.9-1.9C10.3,151.5,9.4,150.8,8.4,150.8z"/>
		<path class="st0" d="M8.4,252.6c-1.1,0-2,0.7-1.9,1.9c0,1.2,0.9,1.9,1.9,1.9s1.9-0.7,1.9-1.9S9.4,252.6,8.4,252.6z"/>
		<path class="st0" d="M15.4,188.8c-1,0-1.9,0.7-1.9,1.9c0,1.2,0.9,1.9,1.9,1.9s1.9-0.7,1.9-1.9C17.3,189.5,16.4,188.8,15.4,188.8z"
			/>
		<path class="st0" d="M15.4,201.7c-1,0-1.9,0.7-1.9,1.9s0.9,1.9,1.9,1.9s1.9-0.7,1.9-1.9S16.4,201.7,15.4,201.7z"/>
		<path class="st0" d="M1.9,150.8c-1,0-1.9,0.7-1.9,1.9c0,1.2,0.9,1.9,1.9,1.9s1.9-0.7,1.9-1.9C3.8,151.5,2.9,150.8,1.9,150.8z"/>
		<path class="st0" d="M15.4,227.4c-1,0-1.9,0.8-1.9,1.9c0,1.2,0.9,1.9,1.9,1.9s1.9-0.7,1.9-1.9S16.4,227.4,15.4,227.4z"/>
		<path class="st0" d="M15.4,208.1c-1,0-1.9,0.7-1.9,1.9s0.9,1.9,1.9,1.9s1.9-0.7,1.9-1.9S16.4,208.1,15.4,208.1z"/>
		<path class="st0" d="M15.4,221c-1,0-1.9,0.7-1.9,1.9c0,1.2,0.9,1.9,1.9,1.9s1.9-0.7,1.9-1.9C17.3,221.7,16.4,221,15.4,221z"/>
		<path class="st0" d="M15.4,182.4c-1,0-1.9,0.7-1.9,1.9s0.9,1.9,1.9,1.9s1.9-0.7,1.9-1.9S16.4,182.4,15.4,182.4z"/>
		<path class="st0" d="M15.4,214.6c-1,0-1.9,0.7-1.9,1.9s0.9,1.9,1.9,1.9s1.9-0.7,1.9-1.9S16.4,214.6,15.4,214.6z"/>
		<path class="st0" d="M61.9,154.6c1,0,1.9-0.7,1.9-1.9c0-1.2-0.9-1.9-1.9-1.9s-1.9,0.7-1.9,1.9C60,153.9,60.9,154.6,61.9,154.6z"/>
		<path class="st0" d="M66.9,165.2c1,0,1.9-0.7,1.9-1.9s-0.9-1.9-1.9-1.9c-1.1,0-1.9,0.7-1.9,1.9S65.9,165.2,66.9,165.2z"/>
		<path class="st0" d="M57.6,175.1c1,0,1.9-0.7,1.9-1.9c0-1.2-0.9-1.9-1.9-1.9c-1.1,0-1.9,0.7-1.9,1.9
			C55.7,174.4,56.6,175.1,57.6,175.1z"/>
		<path class="st0" d="M62.2,166.3c-1,0-1.9,0.8-1.9,1.9c0,1.2,0.9,1.9,1.9,1.9s1.9-0.7,1.9-1.9C64.1,167,63.2,166.3,62.2,166.3z"/>
		<path class="st0" d="M74.8,154.6c1,0,1.9-0.7,1.9-1.9c0-1.2-0.9-1.9-1.9-1.9s-1.9,0.7-1.9,1.9C72.9,153.9,73.8,154.6,74.8,154.6z"
			/>
		<path class="st0" d="M69.6,158.4c0,1.2,0.9,1.9,1.9,1.9s1.9-0.7,1.9-1.9c0-1.2-0.9-1.9-1.9-1.9S69.6,157.2,69.6,158.4z"/>
		<path class="st0" d="M68.4,154.6c1,0,1.9-0.7,1.9-1.9c0-1.2-0.9-1.9-1.9-1.9c-1.1,0-2,0.7-1.9,1.9
			C66.5,153.9,67.4,154.6,68.4,154.6z"/>
		<path class="st0" d="M53.1,180c1,0,1.9-0.7,1.9-1.9s-0.9-1.9-1.9-1.9c-1.1,0-2,0.8-1.9,1.9C51.2,179.3,52.1,180,53.1,180z"/>
		<path class="st0" d="M34.2,154.6c1,0,1.9-0.7,1.9-1.9c0-1.2-0.9-1.9-1.9-1.9c-1.1,0-2,0.7-1.9,1.9
			C32.3,153.9,33.2,154.6,34.2,154.6z"/>
		<path class="st0" d="M27.7,154.6c1,0,1.9-0.7,1.9-1.9c0-1.2-0.9-1.9-1.9-1.9s-1.9,0.7-1.9,1.9C25.8,153.9,26.7,154.6,27.7,154.6z"
			/>
		<path class="st0" d="M14.8,154.6c1,0,1.9-0.7,1.9-1.9c0-1.2-0.9-1.9-1.9-1.9s-1.9,0.7-1.9,1.9C12.9,153.9,13.8,154.6,14.8,154.6z"
			/>
		<path class="st0" d="M43.8,189.9c1,0,1.9-0.7,1.9-1.9s-0.9-1.9-1.9-1.9c-1.1,0-2,0.8-1.9,1.9C41.9,189.2,42.8,189.9,43.8,189.9z"
			/>
		<path class="st0" d="M1.9,252.6c-1,0-1.9,0.7-1.9,1.9s0.9,1.9,1.9,1.9s1.9-0.7,1.9-1.9S2.9,252.6,1.9,252.6z"/>
		<path class="st0" d="M48.4,185c1,0,1.9-0.7,1.9-1.9s-0.9-1.9-1.9-1.9s-1.9,0.7-1.9,1.9S47.4,185,48.4,185z"/>
		<path class="st0" d="M15.4,195.2c-1,0-1.9,0.8-1.9,1.9c0,1.2,0.9,1.9,1.9,1.9s1.9-0.7,1.9-1.9S16.4,195.2,15.4,195.2z"/>
		<path class="st0" d="M64,230.1c-1,0-1.9,0.8-1.9,1.9c0,1.2,0.9,1.9,1.9,1.9s1.9-0.7,1.9-1.9S65,230.1,64,230.1z"/>
		<path class="st0" d="M60.3,224.6c-1.1,0-2,0.7-1.9,1.9c0,1.2,0.9,1.9,1.9,1.9s1.9-0.7,1.9-1.9S61.3,224.6,60.3,224.6z"/>
		<path class="st0" d="M67.8,235.7c-1.1,0-2,0.7-1.9,1.9c0,1.2,0.9,1.9,1.9,1.9s1.9-0.7,1.9-1.9S68.8,235.7,67.8,235.7z"/>
		<path class="st0" d="M52.9,213.5c-1,0-1.9,0.8-1.9,1.9c0,1.2,0.9,1.9,1.9,1.9s1.9-0.7,1.9-1.9C54.8,214.2,53.9,213.5,52.9,213.5z"
			/>
		<path class="st0" d="M56.7,219.1c-1.1,0-2,0.7-1.9,1.9c0,1.2,0.9,1.9,1.9,1.9s1.9-0.7,1.9-1.9S57.7,219.1,56.7,219.1z"/>
		<path class="st0" d="M49.2,208c-1.1,0-2,0.7-1.9,1.9c0,1.2,0.9,1.9,1.9,1.9s1.9-0.7,1.9-1.9C51.1,208.7,50.2,208,49.2,208z"/>
		<path class="st0" d="M71.4,241.2c-1.1,0-2,0.8-1.9,1.9c0,1.2,0.9,1.9,1.9,1.9s1.9-0.7,1.9-1.9S72.4,241.2,71.4,241.2z"/>
		<path class="st0" d="M83.2,152.7c0-1.2-0.9-1.9-1.9-1.9c-1.1,0-2,0.7-1.9,1.9c0,1.2,0.9,1.9,1.9,1.9S83.2,153.9,83.2,152.7z"/>
		<path class="st0" d="M76.9,248.7c0-1.2-0.9-1.9-1.9-1.9c-1.1,0-2,0.7-1.9,1.9c0,1.2,0.9,1.9,1.9,1.9S76.9,249.9,76.9,248.7z"/>
		<path class="st0" d="M84.1,252.6c-1,0-1.9,0.7-1.9,1.9s0.9,1.9,1.9,1.9s1.9-0.7,1.9-1.9S85.1,252.6,84.1,252.6z"/>
		<path class="st0" d="M90.6,252.6c-1.1,0-2,0.7-1.9,1.9c0,1.2,0.9,1.9,1.9,1.9s1.9-0.7,1.9-1.9S91.6,252.6,90.6,252.6z"/>
		<path class="st0" d="M89.6,152.7c0-1.2-0.9-1.9-1.9-1.9s-1.9,0.7-1.9,1.9c0,1.2,0.9,1.9,1.9,1.9S89.6,153.9,89.6,152.7z"/>
		<path class="st0" d="M77.7,252.6c-1.1,0-2,0.7-1.9,1.9c0,1.2,0.9,1.9,1.9,1.9s1.9-0.7,1.9-1.9S78.7,252.6,77.7,252.6z"/>
		<path class="st0" d="M45.6,202.4c-1.1,0-2,0.8-1.9,1.9c0,1.2,0.9,1.9,1.9,1.9s1.9-0.7,1.9-1.9S46.6,202.4,45.6,202.4z"/>
		<path class="st0" d="M30,200.9c-1.1,0-2,0.8-1.9,1.9c0,1.2,0.9,1.9,1.9,1.9s1.9-0.7,1.9-1.9S31,200.9,30,200.9z"/>
		<path class="st0" d="M15.4,156.6c-1,0-1.9,0.8-1.9,1.9c0,1.2,0.9,1.9,1.9,1.9s1.9-0.7,1.9-1.9S16.4,156.6,15.4,156.6z"/>
		<path class="st0" d="M22.6,212.7c0-1.2-0.9-1.9-1.9-1.9c-1.1,0-2,0.8-1.9,1.9c0,1.2,0.9,1.9,1.9,1.9S22.6,213.9,22.6,212.7z"/>
		<path class="st0" d="M21.3,252.6c-1.1,0-2,0.7-1.9,1.9c0,1.2,0.9,1.9,1.9,1.9s1.9-0.7,1.9-1.9S22.3,252.6,21.3,252.6z"/>
		<path class="st0" d="M21.3,150.8c-1.1,0-2,0.7-1.9,1.9c0,1.2,0.9,1.9,1.9,1.9s1.9-0.7,1.9-1.9C23.2,151.5,22.3,150.8,21.3,150.8z"
			/>
		<path class="st0" d="M15.4,163c-1,0-1.9,0.8-1.9,1.9c0,1.2,0.9,1.9,1.9,1.9s1.9-0.7,1.9-1.9C17.3,163.7,16.4,163,15.4,163z"/>
		<path class="st0" d="M15.4,169.5c-1,0-1.9,0.7-1.9,1.9c0,1.2,0.9,1.9,1.9,1.9s1.9-0.7,1.9-1.9C17.3,170.2,16.4,169.5,15.4,169.5z"
			/>
		<path class="st0" d="M41,192.9c0-1.2-0.9-1.9-1.9-1.9s-1.9,0.8-1.9,1.9c0,1.2,0.9,1.9,1.9,1.9S41,194.1,41,192.9z"/>
		<path class="st0" d="M34.5,196c-1.1,0-1.9,0.7-1.9,1.9c0,1.2,0.9,1.9,1.9,1.9s1.9-0.7,1.9-1.9C36.4,196.7,35.5,196,34.5,196z"/>
		<path class="st0" d="M27.2,207.8c0-1.2-0.9-1.9-1.9-1.9s-1.9,0.7-1.9,1.9s0.9,1.9,1.9,1.9S27.2,209,27.2,207.8z"/>
		<path class="st0" d="M34.2,252.6c-1.1,0-2,0.7-1.9,1.9c0,1.2,0.9,1.9,1.9,1.9s1.9-0.7,1.9-1.9S35.2,252.6,34.2,252.6z"/>
		<path class="st0" d="M41.8,196.9c-1,0-1.9,0.7-1.9,1.9s0.9,1.9,1.9,1.9s1.9-0.7,1.9-1.9S42.8,196.9,41.8,196.9z"/>
		<path class="st0" d="M27.7,252.6c-1,0-1.9,0.7-1.9,1.9s0.9,1.9,1.9,1.9s1.9-0.7,1.9-1.9S28.7,252.6,27.7,252.6z"/>
		<path class="st0" d="M15.4,175.9c-1,0-1.9,0.8-1.9,1.9c0,1.2,0.9,1.9,1.9,1.9s1.9-0.7,1.9-1.9S16.4,175.9,15.4,175.9z"/>
	</g>
	<g>
		<path class="st0" d="M112.8,212c-1.1,0-2,0.8-1.9,1.9c0,1.2,0.9,1.9,1.9,1.9s1.9-0.7,1.9-1.9C114.7,212.7,113.8,212,112.8,212z"/>
		<path class="st0" d="M112.8,191.5c-1.1,0-2,0.7-1.9,1.9c0,1.2,0.9,1.9,1.9,1.9s1.9-0.7,1.9-1.9
			C114.7,192.2,113.8,191.5,112.8,191.5z"/>
		<path class="st0" d="M112.8,198.4c-1.1,0-2,0.7-1.9,1.9c0,1.2,0.9,1.9,1.9,1.9s1.9-0.7,1.9-1.9S113.8,198.4,112.8,198.4z"/>
		<path class="st0" d="M112.8,218.6c-1.1,0-2,0.8-1.9,1.9c0,1.2,0.9,1.9,1.9,1.9s1.9-0.7,1.9-1.9S113.8,218.6,112.8,218.6z"/>
		<path class="st0" d="M112.8,232.1c-1.1,0-2,0.7-1.9,1.9c0,1.2,0.9,1.9,1.9,1.9s1.9-0.7,1.9-1.9S113.8,232.1,112.8,232.1z"/>
		<path class="st0" d="M112.8,184.6c-1.1,0-1.9,0.7-1.9,1.9s0.9,1.9,1.9,1.9s1.9-0.7,1.9-1.9S113.8,184.6,112.8,184.6z"/>
		<path class="st0" d="M110.9,179.5c0,1.2,0.9,1.9,1.9,1.9s1.9-0.7,1.9-1.9s-0.9-1.9-1.9-1.9C111.7,177.6,110.9,178.3,110.9,179.5z"
			/>
		<path class="st0" d="M112.8,239c-1.1,0-2,0.7-1.9,1.9c0,1.2,0.9,1.9,1.9,1.9s1.9-0.7,1.9-1.9C114.7,239.7,113.8,239,112.8,239z"/>
		<path class="st0" d="M112.8,225.3c-1.1,0-2,0.8-1.9,1.9c0,1.2,0.9,1.9,1.9,1.9s1.9-0.7,1.9-1.9C114.7,226,113.8,225.3,112.8,225.3
			z"/>
		<path class="st0" d="M112.8,205.3c-1.1,0-1.9,0.7-1.9,1.9c0,1.2,0.9,1.9,1.9,1.9s1.9-0.7,1.9-1.9
			C114.7,206,113.8,205.3,112.8,205.3z"/>
		<path class="st0" d="M120.4,252.6c-1.1,0-2,0.7-1.9,1.9c0,1.2,0.9,1.9,1.9,1.9s1.9-0.7,1.9-1.9S121.4,252.6,120.4,252.6z"/>
		<path class="st0" d="M113.8,252.6c-1,0-1.9,0.7-1.9,1.9s0.9,1.9,1.9,1.9s1.9-0.7,1.9-1.9S114.8,252.6,113.8,252.6z"/>
		<path class="st0" d="M114.7,247.8c0-1.2-0.9-1.9-1.9-1.9c-1.1,0-1.9,0.7-1.9,1.9s0.9,1.9,1.9,1.9S114.7,249,114.7,247.8z"/>
		<path class="st0" d="M127,252.6c-1.1,0-2,0.7-1.9,1.9c0,1.2,0.9,1.9,1.9,1.9s1.9-0.7,1.9-1.9S128,252.6,127,252.6z"/>
		<path class="st0" d="M100.6,252.6c-1,0-1.9,0.7-1.9,1.9s0.9,1.9,1.9,1.9s1.9-0.7,1.9-1.9S101.6,252.6,100.6,252.6z"/>
		<path class="st0" d="M113.9,161.6c0-1.2-0.9-1.9-1.9-1.9s-1.9,0.8-1.9,1.9c0,1.2,0.9,1.9,1.9,1.9S113.9,162.8,113.9,161.6z"/>
		<path class="st0" d="M101.6,179.5c0-1.2-0.9-1.9-1.9-1.9s-1.9,0.7-1.9,1.9s0.9,1.9,1.9,1.9S101.6,180.7,101.6,179.5z"/>
		<path class="st0" d="M108.2,179.5c0-1.2-0.9-1.9-1.9-1.9s-1.9,0.7-1.9,1.9s0.9,1.9,1.9,1.9S108.2,180.7,108.2,179.5z"/>
		<path class="st0" d="M107.2,252.6c-1,0-1.9,0.7-1.9,1.9s0.9,1.9,1.9,1.9s1.9-0.7,1.9-1.9S108.2,252.6,107.2,252.6z"/>
	</g>
	<g>
		<path class="st0" d="M147.2,214.6c1,0,1.9-0.7,1.9-1.9c0-1.2-0.9-1.9-1.9-1.9s-1.9,0.8-1.9,1.9
			C145.3,213.9,146.2,214.6,147.2,214.6z"/>
		<path class="st0" d="M147.2,208c1,0,1.9-0.7,1.9-1.9s-0.9-1.9-1.9-1.9s-1.9,0.8-1.9,1.9C145.3,207.3,146.2,208,147.2,208z"/>
		<path class="st0" d="M147.2,234.7c1,0,1.9-0.7,1.9-1.9s-0.9-1.9-1.9-1.9s-1.9,0.7-1.9,1.9S146.2,234.7,147.2,234.7z"/>
		<path class="st0" d="M147.2,201.3c1,0,1.9-0.7,1.9-1.9c0-1.2-0.9-1.9-1.9-1.9s-1.9,0.7-1.9,1.9
			C145.3,200.6,146.2,201.3,147.2,201.3z"/>
		<path class="st0" d="M147.2,227.9c1,0,1.9-0.7,1.9-1.9s-0.9-1.9-1.9-1.9s-1.9,0.8-1.9,1.9C145.3,227.2,146.2,227.9,147.2,227.9z"
			/>
		<path class="st0" d="M147.2,221.4c1,0,1.9-0.7,1.9-1.9s-0.9-1.9-1.9-1.9s-1.9,0.7-1.9,1.9S146.2,221.4,147.2,221.4z"/>
		<path class="st0" d="M147.2,181.4c1,0,1.9-0.7,1.9-1.9s-0.9-1.9-1.9-1.9s-1.9,0.7-1.9,1.9S146.2,181.4,147.2,181.4z"/>
		<path class="st0" d="M147.2,168c1,0,1.9-0.7,1.9-1.9s-0.9-1.9-1.9-1.9s-1.9,0.7-1.9,1.9S146.2,168,147.2,168z"/>
		<path class="st0" d="M147.2,161.3c1,0,1.9-0.7,1.9-1.9c0-1.2-0.9-1.9-1.9-1.9s-1.9,0.7-1.9,1.9
			C145.3,160.6,146.2,161.3,147.2,161.3z"/>
		<path class="st0" d="M134.6,177.6c-1,0-1.9,0.7-1.9,1.9s0.9,1.9,1.9,1.9s1.9-0.7,1.9-1.9S135.6,177.6,134.6,177.6z"/>
		<path class="st0" d="M147.2,174.6c1,0,1.9-0.7,1.9-1.9c0-1.2-0.9-1.9-1.9-1.9s-1.9,0.8-1.9,1.9
			C145.3,173.9,146.2,174.6,147.2,174.6z"/>
		<path class="st0" d="M147.2,194.7c1,0,1.9-0.7,1.9-1.9s-0.9-1.9-1.9-1.9s-1.9,0.7-1.9,1.9S146.2,194.7,147.2,194.7z"/>
		<path class="st0" d="M147.2,188c1,0,1.9-0.7,1.9-1.9s-0.9-1.9-1.9-1.9s-1.9,0.7-1.9,1.9S146.2,188,147.2,188z"/>
		<path class="st0" d="M167.7,179.5c0-1.2-0.9-1.9-1.9-1.9s-1.9,0.7-1.9,1.9s0.9,1.9,1.9,1.9S167.7,180.7,167.7,179.5z"/>
		<path class="st0" d="M161.8,253.5c-1.1,0-1.9,0.7-1.9,1.9c0,1.2,0.9,1.9,1.9,1.9s1.9-0.7,1.9-1.9
			C163.7,254.2,162.8,253.5,161.8,253.5z"/>
		<path class="st0" d="M167.9,253c-1,0-1.9,0.8-1.9,1.9c0,1.2,0.9,1.9,1.9,1.9s1.9-0.7,1.9-1.9C169.8,253.7,168.9,253,167.9,253z"/>
		<path class="st0" d="M173.8,251.1c-1.1,0-2,0.7-1.9,1.9c0,1.2,0.9,1.9,1.9,1.9s1.9-0.7,1.9-1.9S174.8,251.1,173.8,251.1z"/>
		<path class="st0" d="M174,179.5c0-1.2-0.9-1.9-1.9-1.9s-1.9,0.7-1.9,1.9s0.9,1.9,1.9,1.9S174,180.7,174,179.5z"/>
		<path class="st0" d="M161.4,179.5c0-1.2-0.9-1.9-1.9-1.9s-1.9,0.7-1.9,1.9s0.9,1.9,1.9,1.9S161.4,180.7,161.4,179.5z"/>
		<path class="st0" d="M150.4,249.2c-1.1,0-2,0.7-1.9,1.9c0,1.2,0.9,1.9,1.9,1.9s1.9-0.7,1.9-1.9S151.4,249.2,150.4,249.2z"/>
		<path class="st0" d="M149.7,245.5c0-1.2-0.9-1.9-1.9-1.9s-1.9,0.7-1.9,1.9s0.9,1.9,1.9,1.9S149.7,246.7,149.7,245.5z"/>
		<path class="st0" d="M155.6,252.4c-1,0-1.9,0.7-1.9,1.9s0.9,1.9,1.9,1.9s1.9-0.7,1.9-1.9S156.6,252.4,155.6,252.4z"/>
		<path class="st0" d="M149.1,239.2c0-1.2-0.9-1.9-1.9-1.9s-1.9,0.7-1.9,1.9c0,1.2,0.9,1.9,1.9,1.9S149.1,240.4,149.1,239.2z"/>
		<path class="st0" d="M155.1,179.5c0-1.2-0.9-1.9-1.9-1.9s-1.9,0.7-1.9,1.9s0.9,1.9,1.9,1.9S155.1,180.7,155.1,179.5z"/>
		<path class="st0" d="M141.1,177.6c-1.1,0-1.9,0.7-1.9,1.9s0.9,1.9,1.9,1.9s1.9-0.7,1.9-1.9S142.1,177.6,141.1,177.6z"/>
	</g>
	<g>
		<path class="st0" d="M187.7,223.6c0-1.2-0.9-1.9-1.9-1.9c-1.1,0-1.9,0.7-1.9,1.9s0.9,1.9,1.9,1.9S187.7,224.8,187.7,223.6z"/>
		<path class="st0" d="M192.2,240.3c-1,0-1.9,0.8-1.9,1.9c0,1.2,0.9,1.9,1.9,1.9s1.9-0.7,1.9-1.9C194.1,241,193.2,240.3,192.2,240.3
			z"/>
		<path class="st0" d="M188.9,230.1c0-1.2-0.9-1.9-1.9-1.9c-1.1,0-2,0.7-1.9,1.9c0,1.2,0.9,1.9,1.9,1.9S188.9,231.3,188.9,230.1z"/>
		<path class="st0" d="M191,236.4c0-1.2-0.9-1.9-1.9-1.9c-1.1,0-2,0.7-1.9,1.9c0,1.2,0.9,1.9,1.9,1.9S191,237.6,191,236.4z"/>
		<path class="st0" d="M196.3,245.4c-1.1,0-2,0.8-1.9,1.9c0,1.2,0.9,1.9,1.9,1.9s1.9-0.7,1.9-1.9S197.3,245.4,196.3,245.4z"/>
		<path class="st0" d="M201.5,249c-1,0-1.9,0.7-1.9,1.9c0,1.2,0.9,1.9,1.9,1.9s1.9-0.7,1.9-1.9C203.4,249.7,202.5,249,201.5,249z"/>
		<path class="st0" d="M196.6,185.5c-1.1,0-2,0.8-1.9,1.9c0,1.2,0.9,1.9,1.9,1.9s1.9-0.7,1.9-1.9
			C198.5,186.2,197.6,185.5,196.6,185.5z"/>
		<path class="st0" d="M192.5,194.2c1,0,1.9-0.7,1.9-1.9s-0.9-1.9-1.9-1.9s-1.9,0.8-1.9,1.9C190.6,193.5,191.5,194.2,192.5,194.2z"
			/>
		<path class="st0" d="M185.6,219.1c1,0,1.9-0.7,1.9-1.9c0-1.2-0.9-1.9-1.9-1.9s-1.9,0.8-1.9,1.9
			C183.7,218.4,184.6,219.1,185.6,219.1z"/>
		<path class="st0" d="M245.9,191c1,0,1.9-0.7,1.9-1.9s-0.9-1.9-1.9-1.9c-1.1,0-1.9,0.7-1.9,1.9S244.9,191,245.9,191z"/>
		<path class="st0" d="M189.4,199.9c1,0,1.9-0.7,1.9-1.9s-0.9-1.9-1.9-1.9c-1.1,0-2,0.8-1.9,1.9
			C187.5,199.2,188.4,199.9,189.4,199.9z"/>
		<path class="st0" d="M245.9,184.7c1,0,1.9-0.7,1.9-1.9s-0.9-1.9-1.9-1.9c-1.1,0-1.9,0.7-1.9,1.9S244.9,184.7,245.9,184.7z"/>
		<path class="st0" d="M185.9,212.7c1,0,1.9-0.7,1.9-1.9s-0.9-1.9-1.9-1.9s-1.9,0.7-1.9,1.9S184.9,212.7,185.9,212.7z"/>
		<path class="st0" d="M201.8,181.6c-1,0-1.9,0.8-1.9,1.9c0,1.2,0.9,1.9,1.9,1.9s1.9-0.7,1.9-1.9S202.8,181.6,201.8,181.6z"/>
		<path class="st0" d="M187.1,206.2c1,0,1.9-0.7,1.9-1.9s-0.9-1.9-1.9-1.9s-1.9,0.8-1.9,1.9C185.2,205.5,186.1,206.2,187.1,206.2z"
			/>
		<path class="st0" d="M239.9,178.8c-1.1,0-2,0.7-1.9,1.9c0,1.2,0.9,1.9,1.9,1.9s1.9-0.7,1.9-1.9
			C241.8,179.5,240.9,178.8,239.9,178.8z"/>
		<path class="st0" d="M238.7,249.8c-1.1,0-2,0.7-1.9,1.9c0,1.2,0.9,1.9,1.9,1.9s1.9-0.7,1.9-1.9
			C240.6,250.5,239.7,249.8,238.7,249.8z"/>
		<path class="st0" d="M233.7,177.6c-1,0-1.9,0.7-1.9,1.9s0.9,1.9,1.9,1.9s1.9-0.7,1.9-1.9S234.7,177.6,233.7,177.6z"/>
		<path class="st0" d="M247.8,195.3c0-1.2-0.9-1.9-1.9-1.9c-1.1,0-1.9,0.7-1.9,1.9s0.9,1.9,1.9,1.9S247.8,196.5,247.8,195.3z"/>
		<path class="st0" d="M248.4,242c-1,0-1.9,0.7-1.9,1.9c0,1.2,0.9,1.9,1.9,1.9s1.9-0.7,1.9-1.9C250.3,242.7,249.4,242,248.4,242z"/>
		<path class="st0" d="M207.4,251.5c-1.1,0-2,0.8-1.9,1.9c0,1.2,0.9,1.9,1.9,1.9s1.9-0.7,1.9-1.9
			C209.3,252.2,208.4,251.5,207.4,251.5z"/>
		<path class="st0" d="M232.8,252c-1,0-1.9,0.7-1.9,1.9c0,1.2,0.9,1.9,1.9,1.9s1.9-0.7,1.9-1.9C234.7,252.7,233.8,252,232.8,252z"/>
		<path class="st0" d="M243.9,246.5c-1,0-1.9,0.7-1.9,1.9c0,1.2,0.9,1.9,1.9,1.9s1.9-0.7,1.9-1.9
			C245.8,247.2,244.9,246.5,243.9,246.5z"/>
		<path class="st0" d="M213.7,253c-1.1,0-2,0.8-1.9,1.9c0,1.2,0.9,1.9,1.9,1.9s1.9-0.7,1.9-1.9C215.6,253.7,214.7,253,213.7,253z"/>
		<path class="st0" d="M207.8,178.9c-1,0-1.9,0.8-1.9,1.9c0,1.2,0.9,1.9,1.9,1.9s1.9-0.7,1.9-1.9S208.8,178.9,207.8,178.9z"/>
		<path class="st0" d="M214.4,177.6c-1,0-1.9,0.7-1.9,1.9s0.9,1.9,1.9,1.9s1.9-0.7,1.9-1.9S215.4,177.6,214.4,177.6z"/>
		<path class="st0" d="M221,177.1c-1,0-1.9,0.8-1.9,1.9c0,1.2,0.9,1.9,1.9,1.9s1.9-0.7,1.9-1.9S222,177.1,221,177.1z"/>
		<path class="st0" d="M226.5,253.2c-1,0-1.9,0.7-1.9,1.9s0.9,1.9,1.9,1.9s1.9-0.7,1.9-1.9S227.5,253.2,226.5,253.2z"/>
		<path class="st0" d="M220.1,253.5c-1,0-1.9,0.7-1.9,1.9c0,1.2,0.9,1.9,1.9,1.9s1.9-0.7,1.9-1.9C222,254.2,221.1,253.5,220.1,253.5
			z"/>
		<path class="st0" d="M227.4,177.1c-1,0-1.9,0.8-1.9,1.9c0,1.2,0.9,1.9,1.9,1.9s1.9-0.7,1.9-1.9S228.4,177.1,227.4,177.1z"/>
	</g>
	<g>
		<path class="st0" d="M271.7,238.3c1,0,1.9-0.7,1.9-1.9c0-1.2-0.9-1.9-1.9-1.9c-1.1,0-2,0.7-1.9,1.9
			C269.8,237.6,270.7,238.3,271.7,238.3z"/>
		<path class="st0" d="M271.7,231.8c1,0,1.9-0.7,1.9-1.9c0-1.2-0.9-1.9-1.9-1.9c-1.1,0-1.9,0.7-1.9,1.9
			C269.8,231.1,270.7,231.8,271.7,231.8z"/>
		<path class="st0" d="M271.7,225.4c1,0,1.9-0.7,1.9-1.9s-0.9-1.9-1.9-1.9c-1.1,0-2,0.7-1.9,1.9
			C269.8,224.7,270.7,225.4,271.7,225.4z"/>
		<path class="st0" d="M271.7,244.7c1,0,1.9-0.7,1.9-1.9s-0.9-1.9-1.9-1.9c-1.1,0-2,0.8-1.9,1.9C269.8,244,270.7,244.7,271.7,244.7z
			"/>
		<path class="st0" d="M271.7,212.5c1,0,1.9-0.7,1.9-1.9s-0.9-1.9-1.9-1.9c-1.1,0-2,0.8-1.9,1.9
			C269.8,211.8,270.7,212.5,271.7,212.5z"/>
		<path class="st0" d="M271.7,219c1,0,1.9-0.7,1.9-1.9s-0.9-1.9-1.9-1.9c-1.1,0-2,0.7-1.9,1.9C269.8,218.3,270.7,219,271.7,219z"/>
		<path class="st0" d="M273.6,249.3c0-1.2-0.9-1.9-1.9-1.9c-1.1,0-2,0.7-1.9,1.9c0,1.2,0.9,1.9,1.9,1.9S273.6,250.5,273.6,249.3z"/>
		<path class="st0" d="M267.2,252.6c-1.1,0-2,0.7-1.9,1.9c0,1.2,0.9,1.9,1.9,1.9s1.9-0.7,1.9-1.9S268.2,252.6,267.2,252.6z"/>
		<path class="st0" d="M260.6,252.6c-1.1,0-2,0.7-1.9,1.9c0,1.2,0.9,1.9,1.9,1.9s1.9-0.7,1.9-1.9S261.6,252.6,260.6,252.6z"/>
		<path class="st0" d="M260.4,152.7c0-1.2-0.9-1.9-1.9-1.9c-1.1,0-2,0.7-1.9,1.9c0,1.2,0.9,1.9,1.9,1.9S260.4,153.9,260.4,152.7z"/>
		<path class="st0" d="M267,152.7c0-1.2-0.9-1.9-1.9-1.9c-1.1,0-2,0.7-1.9,1.9c0,1.2,0.9,1.9,1.9,1.9S267,153.9,267,152.7z"/>
		<path class="st0" d="M325.3,189.7c0,1.2,0.9,1.9,1.9,1.9s1.9-0.7,1.9-1.9c0-1.2-0.9-1.9-1.9-1.9
			C326.1,187.8,325.2,188.5,325.3,189.7z"/>
		<path class="st0" d="M271.7,154.6c1,0,1.9-0.7,1.9-1.9c0-1.2-0.9-1.9-1.9-1.9c-1.1,0-2,0.7-1.9,1.9
			C269.8,153.9,270.7,154.6,271.7,154.6z"/>
		<path class="st0" d="M271.7,167.4c1,0,1.9-0.7,1.9-1.9s-0.9-1.9-1.9-1.9c-1.1,0-1.9,0.7-1.9,1.9S270.7,167.4,271.7,167.4z"/>
		<path class="st0" d="M271.7,161c1,0,1.9-0.7,1.9-1.9s-0.9-1.9-1.9-1.9c-1.1,0-2,0.7-1.9,1.9C269.8,160.3,270.7,161,271.7,161z"/>
		<path class="st0" d="M273.8,252.6c-1.1,0-2,0.7-1.9,1.9c0,1.2,0.9,1.9,1.9,1.9s1.9-0.7,1.9-1.9S274.8,252.6,273.8,252.6z"/>
		<path class="st0" d="M271.7,206.1c1,0,1.9-0.7,1.9-1.9c0-1.2-0.9-1.9-1.9-1.9c-1.1,0-2,0.7-1.9,1.9
			C269.8,205.4,270.7,206.1,271.7,206.1z"/>
		<path class="st0" d="M326.5,195.6c0,1.2,0.9,1.9,1.9,1.9s1.9-0.7,1.9-1.9s-0.9-1.9-1.9-1.9C327.3,193.7,326.5,194.4,326.5,195.6z"
			/>
		<path class="st0" d="M271.7,193.2c1,0,1.9-0.7,1.9-1.9s-0.9-1.9-1.9-1.9c-1.1,0-1.9,0.7-1.9,1.9S270.7,193.2,271.7,193.2z"/>
		<path class="st0" d="M271.7,199.6c1,0,1.9-0.7,1.9-1.9c0-1.2-0.9-1.9-1.9-1.9c-1.1,0-2,0.8-1.9,1.9
			C269.8,198.9,270.7,199.6,271.7,199.6z"/>
		<path class="st0" d="M271.7,180.3c1,0,1.9-0.7,1.9-1.9c0-1.2-0.9-1.9-1.9-1.9c-1.1,0-2,0.8-1.9,1.9
			C269.8,179.6,270.7,180.3,271.7,180.3z"/>
		<path class="st0" d="M271.7,173.9c1,0,1.9-0.7,1.9-1.9s-0.9-1.9-1.9-1.9c-1.1,0-2,0.7-1.9,1.9
			C269.8,173.2,270.7,173.9,271.7,173.9z"/>
		<path class="st0" d="M271.7,186.8c1,0,1.9-0.7,1.9-1.9c0-1.2-0.9-1.9-1.9-1.9c-1.1,0-2,0.7-1.9,1.9
			C269.8,186.1,270.7,186.8,271.7,186.8z"/>
		<path class="st0" d="M328.7,213.5c-1.1,0-2,0.8-1.9,1.9c0,1.2,0.9,1.9,1.9,1.9s1.9-0.7,1.9-1.9
			C330.6,214.2,329.7,213.5,328.7,213.5z"/>
		<path class="st0" d="M328.7,233.3c-1.1,0-2,0.7-1.9,1.9c0,1.2,0.9,1.9,1.9,1.9s1.9-0.7,1.9-1.9C330.6,234,329.7,233.3,328.7,233.3
			z"/>
		<path class="st0" d="M326.4,184.1c0-1.2-0.9-1.9-1.9-1.9c-1.1,0-2,0.8-1.9,1.9c0,1.2,0.9,1.9,1.9,1.9S326.4,185.3,326.4,184.1z"/>
		<path class="st0" d="M326.3,252.6c-1.1,0-2,0.7-1.9,1.9c0,1.2,0.9,1.9,1.9,1.9s1.9-0.7,1.9-1.9S327.3,252.6,326.3,252.6z"/>
		<path class="st0" d="M328.7,246.5c-1.1,0-1.9,0.7-1.9,1.9c0,1.2,0.9,1.9,1.9,1.9s1.9-0.7,1.9-1.9
			C330.6,247.2,329.7,246.5,328.7,246.5z"/>
		<path class="st0" d="M279.3,191.7c0-1.2-0.9-1.9-1.9-1.9c-1.1,0-2,0.8-1.9,1.9c0,1.2,0.9,1.9,1.9,1.9S279.3,192.9,279.3,191.7z"/>
		<path class="st0" d="M328.7,239.9c-1.1,0-1.9,0.7-1.9,1.9s0.9,1.9,1.9,1.9s1.9-0.7,1.9-1.9S329.7,239.9,328.7,239.9z"/>
		<path class="st0" d="M339.4,252.6c-1,0-1.9,0.7-1.9,1.9s0.9,1.9,1.9,1.9s1.9-0.7,1.9-1.9S340.4,252.6,339.4,252.6z"/>
		<path class="st0" d="M332.9,252.6c-1.1,0-2,0.7-1.9,1.9c0,1.2,0.9,1.9,1.9,1.9s1.9-0.7,1.9-1.9S333.9,252.6,332.9,252.6z"/>
		<path class="st0" d="M328.7,206.9c-1.1,0-2,0.8-1.9,1.9c0,1.2,0.9,1.9,1.9,1.9s1.9-0.7,1.9-1.9S329.7,206.9,328.7,206.9z"/>
		<path class="st0" d="M328.7,200.3c-1.1,0-2,0.8-1.9,1.9c0,1.2,0.9,1.9,1.9,1.9s1.9-0.7,1.9-1.9C330.6,201,329.7,200.3,328.7,200.3
			z"/>
		<path class="st0" d="M328.7,220.1c-1.1,0-2,0.7-1.9,1.9c0,1.2,0.9,1.9,1.9,1.9s1.9-0.7,1.9-1.9S329.7,220.1,328.7,220.1z"/>
		<path class="st0" d="M328.7,226.7c-1.1,0-2,0.7-1.9,1.9c0,1.2,0.9,1.9,1.9,1.9s1.9-0.7,1.9-1.9S329.7,226.7,328.7,226.7z"/>
		<path class="st0" d="M287.9,182.7c-1.1,0-1.9,0.7-1.9,1.9s0.9,1.9,1.9,1.9s1.9-0.7,1.9-1.9S288.9,182.7,287.9,182.7z"/>
		<path class="st0" d="M319.7,252.6c-1.1,0-2,0.7-1.9,1.9c0,1.2,0.9,1.9,1.9,1.9s1.9-0.7,1.9-1.9S320.7,252.6,319.7,252.6z"/>
		<path class="st0" d="M282.5,185.8c-1.1,0-2,0.8-1.9,1.9c0,1.2,0.9,1.9,1.9,1.9s1.9-0.7,1.9-1.9
			C284.4,186.5,283.5,185.8,282.5,185.8z"/>
		<path class="st0" d="M280.4,252.6c-1.1,0-2,0.7-1.9,1.9c0,1.2,0.9,1.9,1.9,1.9s1.9-0.7,1.9-1.9S281.4,252.6,280.4,252.6z"/>
		<path class="st0" d="M293.7,180c-1,0-1.9,0.7-1.9,1.9c0,1.2,0.9,1.9,1.9,1.9s1.9-0.7,1.9-1.9C295.6,180.7,294.7,180,293.7,180z"/>
		<path class="st0" d="M287,252.6c-1.1,0-2,0.7-1.9,1.9c0,1.2,0.9,1.9,1.9,1.9s1.9-0.7,1.9-1.9S288,252.6,287,252.6z"/>
		<path class="st0" d="M313.1,177.1c-1.1,0-2,0.8-1.9,1.9c0,1.2,0.9,1.9,1.9,1.9s1.9-0.7,1.9-1.9S314.1,177.1,313.1,177.1z"/>
		<path class="st0" d="M319.5,182.1c1,0,1.9-0.7,1.9-1.9c0-1.2-0.9-1.9-1.9-1.9s-1.9,0.7-1.9,1.9
			C317.6,181.4,318.5,182.1,319.5,182.1z"/>
		<path class="st0" d="M306.5,177.1c-1.1,0-2,0.8-1.9,1.9c0,1.2,0.9,1.9,1.9,1.9s1.9-0.7,1.9-1.9S307.5,177.1,306.5,177.1z"/>
		<path class="st0" d="M300,178c-1,0-1.9,0.7-1.9,1.9c0,1.2,0.9,1.9,1.9,1.9s1.9-0.7,1.9-1.9C301.9,178.7,301,178,300,178z"/>
		<path class="st0" d="M313.1,252.6c-1.1,0-2,0.7-1.9,1.9c0,1.2,0.9,1.9,1.9,1.9s1.9-0.7,1.9-1.9S314.1,252.6,313.1,252.6z"/>
	</g>
	<g>
		<path class="st0" d="M357.6,240.3c-1.1,0-2,0.8-1.9,1.9c0,1.2,0.9,1.9,1.9,1.9s1.9-0.7,1.9-1.9C359.5,241,358.6,240.3,357.6,240.3
			z"/>
		<path class="st0" d="M356.3,236.4c0-1.2-0.9-1.9-1.9-1.9s-1.9,0.7-1.9,1.9c0,1.2,0.9,1.9,1.9,1.9S356.3,237.6,356.3,236.4z"/>
		<path class="st0" d="M353,223.6c0-1.2-0.9-1.9-1.9-1.9s-1.9,0.7-1.9,1.9s0.9,1.9,1.9,1.9S353,224.8,353,223.6z"/>
		<path class="st0" d="M354.2,230.1c0-1.2-0.9-1.9-1.9-1.9s-1.9,0.7-1.9,1.9s0.9,1.9,1.9,1.9S354.2,231.3,354.2,230.1z"/>
		<path class="st0" d="M361.6,245.4c-1,0-1.9,0.8-1.9,1.9c0,1.2,0.9,1.9,1.9,1.9s1.9-0.7,1.9-1.9S362.6,245.4,361.6,245.4z"/>
		<path class="st0" d="M371.6,213.6c0-1.2-0.9-1.9-1.9-1.9s-1.9,0.8-1.9,1.9c0,1.2,0.9,1.9,1.9,1.9S371.6,214.8,371.6,213.6z"/>
		<path class="st0" d="M372.7,251.5c-1,0-1.9,0.8-1.9,1.9c0,1.2,0.9,1.9,1.9,1.9s1.9-0.7,1.9-1.9
			C374.6,252.2,373.7,251.5,372.7,251.5z"/>
		<path class="st0" d="M351,219.1c1,0,1.9-0.7,1.9-1.9c0-1.2-0.9-1.9-1.9-1.9c-1.1,0-2,0.8-1.9,1.9C349.1,218.4,350,219.1,351,219.1
			z"/>
		<path class="st0" d="M366.9,249c-1.1,0-1.9,0.7-1.9,1.9c0,1.2,0.9,1.9,1.9,1.9s1.9-0.7,1.9-1.9C368.8,249.7,367.9,249,366.9,249z"
			/>
		<path class="st0" d="M363.1,211.7c-1,0-1.9,0.8-1.9,1.9c0,1.2,0.9,1.9,1.9,1.9s1.9-0.7,1.9-1.9S364.1,211.7,363.1,211.7z"/>
		<path class="st0" d="M352.5,206.2c1,0,1.9-0.7,1.9-1.9s-0.9-1.9-1.9-1.9c-1.1,0-2,0.8-1.9,1.9
			C350.6,205.5,351.5,206.2,352.5,206.2z"/>
		<path class="st0" d="M373.2,182.7c1,0,1.9-0.7,1.9-1.9s-0.9-1.9-1.9-1.9c-1.1,0-2,0.8-1.9,1.9C371.3,182,372.2,182.7,373.2,182.7z
			"/>
		<path class="st0" d="M367.2,185.4c1,0,1.9-0.7,1.9-1.9s-0.9-1.9-1.9-1.9c-1.1,0-2,0.8-1.9,1.9
			C365.3,184.7,366.2,185.4,367.2,185.4z"/>
		<path class="st0" d="M379.8,181.2c1,0,1.9-0.7,1.9-1.9s-0.9-1.9-1.9-1.9c-1.1,0-2,0.8-1.9,1.9
			C377.9,180.5,378.8,181.2,379.8,181.2z"/>
		<path class="st0" d="M413.6,206.9c0,1.2,0.9,1.9,1.9,1.9s1.9-0.7,1.9-1.9c0-1.2-0.9-1.9-1.9-1.9
			C414.4,205,413.5,205.7,413.6,206.9z"/>
		<path class="st0" d="M378.2,213.6c0-1.2-0.9-1.9-1.9-1.9s-1.9,0.8-1.9,1.9c0,1.2,0.9,1.9,1.9,1.9S378.2,214.8,378.2,213.6z"/>
		<path class="st0" d="M351.3,212.7c1,0,1.9-0.7,1.9-1.9s-0.9-1.9-1.9-1.9c-1.1,0-2,0.7-1.9,1.9C349.4,212,350.3,212.7,351.3,212.7z
			"/>
		<path class="st0" d="M354.7,199.9c1,0,1.9-0.7,1.9-1.9s-0.9-1.9-1.9-1.9s-1.9,0.8-1.9,1.9C352.8,199.2,353.7,199.9,354.7,199.9z"
			/>
		<path class="st0" d="M361.9,189.3c1,0,1.9-0.7,1.9-1.9c0-1.2-0.9-1.9-1.9-1.9s-1.9,0.8-1.9,1.9C360,188.6,360.9,189.3,361.9,189.3
			z"/>
		<path class="st0" d="M356.5,211.7c-1,0-1.9,0.8-1.9,1.9c0,1.2,0.9,1.9,1.9,1.9s1.9-0.7,1.9-1.9S357.5,211.7,356.5,211.7z"/>
		<path class="st0" d="M357.9,194.2c1,0,1.9-0.7,1.9-1.9s-0.9-1.9-1.9-1.9c-1.1,0-2,0.8-1.9,1.9C356,193.5,356.9,194.2,357.9,194.2z
			"/>
		<path class="st0" d="M404.6,213.6c0-1.2-0.9-1.9-1.9-1.9s-1.9,0.8-1.9,1.9c0,1.2,0.9,1.9,1.9,1.9S404.6,214.8,404.6,213.6z"/>
		<path class="st0" d="M410.6,188.8c0-1.2-0.9-1.9-1.9-1.9s-1.9,0.7-1.9,1.9s0.9,1.9,1.9,1.9S410.6,190,410.6,188.8z"/>
		<path class="st0" d="M404.2,250.5c-1,0-1.9,0.7-1.9,1.9c0,1.2,0.9,1.9,1.9,1.9s1.9-0.7,1.9-1.9
			C406.1,251.2,405.2,250.5,404.2,250.5z"/>
		<path class="st0" d="M404.2,182.4c-1,0-1.9,0.7-1.9,1.9s0.9,1.9,1.9,1.9s1.9-0.7,1.9-1.9S405.2,182.4,404.2,182.4z"/>
		<path class="st0" d="M409.8,247.5c-1.1,0-2,0.8-1.9,1.9c0,1.2,0.9,1.9,1.9,1.9s1.9-0.7,1.9-1.9
			C411.7,248.2,410.8,247.5,409.8,247.5z"/>
		<path class="st0" d="M409.3,215.5c1,0,1.9-0.7,1.9-1.9s-0.9-1.9-1.9-1.9s-1.9,0.8-1.9,1.9C407.4,214.8,408.3,215.5,409.3,215.5z"
			/>
		<path class="st0" d="M414.7,243.6c-1,0-1.9,0.7-1.9,1.9s0.9,1.9,1.9,1.9s1.9-0.7,1.9-1.9S415.7,243.6,414.7,243.6z"/>
		<path class="st0" d="M415.8,211.7c-1.1,0-2,0.8-1.9,1.9c0,1.2,0.9,1.9,1.9,1.9s1.9-0.7,1.9-1.9S416.8,211.7,415.8,211.7z"/>
		<path class="st0" d="M414.3,202.2c1,0,1.9-0.7,1.9-1.9s-0.9-1.9-1.9-1.9c-1.1,0-2,0.7-1.9,1.9
			C412.4,201.5,413.3,202.2,414.3,202.2z"/>
		<path class="st0" d="M413.9,194.1c0-1.2-0.9-1.9-1.9-1.9s-1.9,0.7-1.9,1.9c0,1.2,0.9,1.9,1.9,1.9S413.9,195.3,413.9,194.1z"/>
		<path class="st0" d="M398,213.6c0-1.2-0.9-1.9-1.9-1.9s-1.9,0.8-1.9,1.9c0,1.2,0.9,1.9,1.9,1.9S398,214.8,398,213.6z"/>
		<path class="st0" d="M398.8,179.1c-1,0-1.9,0.7-1.9,1.9s0.9,1.9,1.9,1.9s1.9-0.7,1.9-1.9S399.8,179.1,398.8,179.1z"/>
		<path class="st0" d="M386.1,177.1c-1.1,0-2,0.8-1.9,1.9c0,1.2,0.9,1.9,1.9,1.9s1.9-0.7,1.9-1.9S387.1,177.1,386.1,177.1z"/>
		<path class="st0" d="M384.8,213.6c0-1.2-0.9-1.9-1.9-1.9s-1.9,0.8-1.9,1.9c0,1.2,0.9,1.9,1.9,1.9S384.8,214.8,384.8,213.6z"/>
		<path class="st0" d="M391.4,213.6c0-1.2-0.9-1.9-1.9-1.9s-1.9,0.8-1.9,1.9c0,1.2,0.9,1.9,1.9,1.9S391.4,214.8,391.4,213.6z"/>
		<path class="st0" d="M385.5,253.5c-1.1,0-1.9,0.7-1.9,1.9c0,1.2,0.9,1.9,1.9,1.9s1.9-0.7,1.9-1.9
			C387.4,254.2,386.5,253.5,385.5,253.5z"/>
		<path class="st0" d="M398.2,252.3c-1,0-1.9,0.7-1.9,1.9c0,1.2,0.9,1.9,1.9,1.9s1.9-0.7,1.9-1.9C400.1,253,399.2,252.3,398.2,252.3
			z"/>
		<path class="st0" d="M379,253c-1,0-1.9,0.8-1.9,1.9c0,1.2,0.9,1.9,1.9,1.9s1.9-0.7,1.9-1.9C380.9,253.7,380,253,379,253z"/>
		<path class="st0" d="M392.5,177.6c-1,0-1.9,0.7-1.9,1.9s0.9,1.9,1.9,1.9s1.9-0.7,1.9-1.9S393.5,177.6,392.5,177.6z"/>
		<path class="st0" d="M391.9,253.2c-1,0-1.9,0.7-1.9,1.9s0.9,1.9,1.9,1.9s1.9-0.7,1.9-1.9S392.9,253.2,391.9,253.2z"/>
	</g>
	<g>
		<path class="st0" d="M439.5,243.4c1,0,1.9-0.7,1.9-1.9s-0.9-1.9-1.9-1.9c-1.1,0-2,0.7-1.9,1.9
			C437.6,242.7,438.5,243.4,439.5,243.4z"/>
		<path class="st0" d="M428.4,252.6c-1.1,0-2,0.7-1.9,1.9c0,1.2,0.9,1.9,1.9,1.9s1.9-0.7,1.9-1.9S429.4,252.6,428.4,252.6z"/>
		<path class="st0" d="M435.1,179.5c0-1.2-0.9-1.9-1.9-1.9c-1.1,0-1.9,0.7-1.9,1.9s0.9,1.9,1.9,1.9S435.1,180.7,435.1,179.5z"/>
		<path class="st0" d="M439.5,236.5c1,0,1.9-0.7,1.9-1.9s-0.9-1.9-1.9-1.9c-1.1,0-2,0.7-1.9,1.9
			C437.6,235.8,438.5,236.5,439.5,236.5z"/>
		<path class="st0" d="M450.3,185.8c-1.1,0-2,0.8-1.9,1.9c0,1.2,0.9,1.9,1.9,1.9s1.9-0.7,1.9-1.9
			C452.2,186.5,451.3,185.8,450.3,185.8z"/>
		<path class="st0" d="M447.1,191.7c0-1.2-0.9-1.9-1.9-1.9c-1.1,0-2,0.8-1.9,1.9c0,1.2,0.9,1.9,1.9,1.9S447.1,192.9,447.1,191.7z"/>
		<path class="st0" d="M435,252.6c-1.1,0-2,0.7-1.9,1.9c0,1.2,0.9,1.9,1.9,1.9s1.9-0.7,1.9-1.9S436,252.6,435,252.6z"/>
		<path class="st0" d="M448.2,252.6c-1.1,0-2,0.7-1.9,1.9c0,1.2,0.9,1.9,1.9,1.9s1.9-0.7,1.9-1.9S449.2,252.6,448.2,252.6z"/>
		<path class="st0" d="M441.4,248.4c0-1.2-0.9-1.9-1.9-1.9c-1.1,0-1.9,0.7-1.9,1.9c0,1.2,0.9,1.9,1.9,1.9S441.4,249.6,441.4,248.4z"
			/>
		<path class="st0" d="M441.6,252.6c-1.1,0-2,0.7-1.9,1.9c0,1.2,0.9,1.9,1.9,1.9s1.9-0.7,1.9-1.9S442.6,252.6,441.6,252.6z"/>
		<path class="st0" d="M428.8,179.5c0-1.2-0.9-1.9-1.9-1.9c-1.1,0-1.9,0.7-1.9,1.9s0.9,1.9,1.9,1.9S428.8,180.7,428.8,179.5z"/>
		<path class="st0" d="M439.5,188.3c1,0,1.9-0.7,1.9-1.9c0-1.2-0.9-1.9-1.9-1.9c-1.1,0-2,0.7-1.9,1.9
			C437.6,187.6,438.5,188.3,439.5,188.3z"/>
		<path class="st0" d="M439.5,195.1c1,0,1.9-0.7,1.9-1.9c0-1.2-0.9-1.9-1.9-1.9c-1.1,0-2,0.8-1.9,1.9
			C437.6,194.4,438.5,195.1,439.5,195.1z"/>
		<path class="st0" d="M439.5,181.4c1,0,1.9-0.7,1.9-1.9s-0.9-1.9-1.9-1.9c-1.1,0-1.9,0.7-1.9,1.9S438.5,181.4,439.5,181.4z"/>
		<path class="st0" d="M493,189.7c0,1.2,0.9,1.9,1.9,1.9s1.9-0.7,1.9-1.9c0-1.2-0.9-1.9-1.9-1.9S493,188.5,493,189.7z"/>
		<path class="st0" d="M494.2,195.6c0,1.2,0.9,1.9,1.9,1.9s1.9-0.7,1.9-1.9s-0.9-1.9-1.9-1.9S494.2,194.4,494.2,195.6z"/>
		<path class="st0" d="M439.5,202c1,0,1.9-0.7,1.9-1.9s-0.9-1.9-1.9-1.9c-1.1,0-1.9,0.7-1.9,1.9S438.5,202,439.5,202z"/>
		<path class="st0" d="M439.5,215.8c1,0,1.9-0.7,1.9-1.9c0-1.2-0.9-1.9-1.9-1.9c-1.1,0-2,0.8-1.9,1.9
			C437.6,215.1,438.5,215.8,439.5,215.8z"/>
		<path class="st0" d="M439.5,222.7c1,0,1.9-0.7,1.9-1.9s-0.9-1.9-1.9-1.9c-1.1,0-1.9,0.7-1.9,1.9S438.5,222.7,439.5,222.7z"/>
		<path class="st0" d="M439.5,208.9c1,0,1.9-0.7,1.9-1.9s-0.9-1.9-1.9-1.9c-1.1,0-2,0.8-1.9,1.9
			C437.6,208.2,438.5,208.9,439.5,208.9z"/>
		<path class="st0" d="M439.5,229.6c1,0,1.9-0.7,1.9-1.9c0-1.2-0.9-1.9-1.9-1.9c-1.1,0-1.9,0.7-1.9,1.9
			C437.6,228.9,438.5,229.6,439.5,229.6z"/>
		<path class="st0" d="M496.4,226.7c-1,0-1.9,0.7-1.9,1.9s0.9,1.9,1.9,1.9s1.9-0.7,1.9-1.9S497.4,226.7,496.4,226.7z"/>
		<path class="st0" d="M496.4,213.5c-1,0-1.9,0.8-1.9,1.9c0,1.2,0.9,1.9,1.9,1.9s1.9-0.7,1.9-1.9
			C498.3,214.2,497.4,213.5,496.4,213.5z"/>
		<path class="st0" d="M496.4,220.1c-1,0-1.9,0.7-1.9,1.9s0.9,1.9,1.9,1.9s1.9-0.7,1.9-1.9S497.4,220.1,496.4,220.1z"/>
		<path class="st0" d="M496.4,233.3c-1,0-1.9,0.7-1.9,1.9c0,1.2,0.9,1.9,1.9,1.9s1.9-0.7,1.9-1.9C498.3,234,497.4,233.3,496.4,233.3
			z"/>
		<path class="st0" d="M496.4,246.5c-1,0-1.9,0.7-1.9,1.9c0,1.2,0.9,1.9,1.9,1.9s1.9-0.7,1.9-1.9
			C498.3,247.2,497.4,246.5,496.4,246.5z"/>
		<path class="st0" d="M496.4,239.9c-1,0-1.9,0.7-1.9,1.9s0.9,1.9,1.9,1.9s1.9-0.7,1.9-1.9S497.4,239.9,496.4,239.9z"/>
		<path class="st0" d="M494,252.6c-1,0-1.9,0.7-1.9,1.9s0.9,1.9,1.9,1.9s1.9-0.7,1.9-1.9S495,252.6,494,252.6z"/>
		<path class="st0" d="M500.6,252.6c-1,0-1.9,0.7-1.9,1.9s0.9,1.9,1.9,1.9s1.9-0.7,1.9-1.9S501.6,252.6,500.6,252.6z"/>
		<path class="st0" d="M507.2,252.6c-1,0-1.9,0.7-1.9,1.9c0,1.2,0.9,1.9,1.9,1.9s1.9-0.7,1.9-1.9S508.2,252.6,507.2,252.6z"/>
		<path class="st0" d="M496.4,200.3c-1,0-1.9,0.8-1.9,1.9c0,1.2,0.9,1.9,1.9,1.9s1.9-0.7,1.9-1.9C498.3,201,497.4,200.3,496.4,200.3
			z"/>
		<path class="st0" d="M496.4,206.9c-1,0-1.9,0.8-1.9,1.9c0,1.2,0.9,1.9,1.9,1.9s1.9-0.7,1.9-1.9S497.4,206.9,496.4,206.9z"/>
		<path class="st0" d="M467.8,178c-1.1,0-1.9,0.7-1.9,1.9c0,1.2,0.9,1.9,1.9,1.9s1.9-0.7,1.9-1.9C469.7,178.7,468.8,178,467.8,178z"
			/>
		<path class="st0" d="M454.7,252.6c-1,0-1.9,0.7-1.9,1.9c0,1.2,0.9,1.9,1.9,1.9s1.9-0.7,1.9-1.9S455.7,252.6,454.7,252.6z"/>
		<path class="st0" d="M461.5,180c-1.1,0-2,0.7-1.9,1.9c0,1.2,0.9,1.9,1.9,1.9s1.9-0.7,1.9-1.9C463.4,180.7,462.5,180,461.5,180z"/>
		<path class="st0" d="M455.6,182.7c-1,0-1.9,0.7-1.9,1.9s0.9,1.9,1.9,1.9s1.9-0.7,1.9-1.9S456.6,182.7,455.6,182.7z"/>
		<path class="st0" d="M474.2,177.1c-1,0-1.9,0.8-1.9,1.9c0,1.2,0.9,1.9,1.9,1.9s1.9-0.7,1.9-1.9S475.2,177.1,474.2,177.1z"/>
		<path class="st0" d="M494.1,184.1c0-1.2-0.9-1.9-1.9-1.9s-1.9,0.8-1.9,1.9c0,1.2,0.9,1.9,1.9,1.9S494.1,185.3,494.1,184.1z"/>
		<path class="st0" d="M487.3,182.1c1,0,1.9-0.7,1.9-1.9c0-1.2-0.9-1.9-1.9-1.9c-1.1,0-1.9,0.7-1.9,1.9
			C485.4,181.4,486.3,182.1,487.3,182.1z"/>
		<path class="st0" d="M480.8,252.6c-1,0-1.9,0.7-1.9,1.9s0.9,1.9,1.9,1.9s1.9-0.7,1.9-1.9S481.8,252.6,480.8,252.6z"/>
		<path class="st0" d="M487.4,252.6c-1,0-1.9,0.7-1.9,1.9s0.9,1.9,1.9,1.9s1.9-0.7,1.9-1.9S488.4,252.6,487.4,252.6z"/>
		<path class="st0" d="M480.8,177.1c-1,0-1.9,0.8-1.9,1.9c0,1.2,0.9,1.9,1.9,1.9s1.9-0.7,1.9-1.9S481.8,177.1,480.8,177.1z"/>
	</g>
	<g>
		<path class="st0" d="M21.9,324.6c1,0,1.9-0.7,1.9-1.9c0-1.2-0.9-1.9-1.9-1.9c-1.1,0-2,0.8-1.9,1.9C20,323.9,20.9,324.6,21.9,324.6
			z"/>
		<path class="st0" d="M22.9,318.5c1,0,1.9-0.7,1.9-1.9c0-1.2-0.9-1.9-1.9-1.9s-1.9,0.7-1.9,1.9C21,317.8,21.9,318.5,22.9,318.5z"/>
		<path class="st0" d="M24.3,333.3c-1.1,0-2,0.7-1.9,1.9c0,1.2,0.9,1.9,1.9,1.9s1.9-0.7,1.9-1.9C26.2,334,25.3,333.3,24.3,333.3z"/>
		<path class="st0" d="M25.9,313c1,0,1.9-0.7,1.9-1.9c0-1.2-0.9-1.9-1.9-1.9s-1.9,0.7-1.9,1.9C24,312.3,24.9,313,25.9,313z"/>
		<path class="st0" d="M42.9,304.9c1,0,1.9-0.7,1.9-1.9s-0.9-1.9-1.9-1.9c-1.1,0-2,0.7-1.9,1.9C41,304.2,41.9,304.9,42.9,304.9z"/>
		<path class="st0" d="M36.3,305.9c1,0,1.9-0.7,1.9-1.9c0-1.2-0.9-1.9-1.9-1.9c-1.1,0-1.9,0.7-1.9,1.9
			C34.4,305.2,35.3,305.9,36.3,305.9z"/>
		<path class="st0" d="M30.4,308.8c1,0,1.9-0.7,1.9-1.9c0-1.2-0.9-1.9-1.9-1.9s-1.9,0.7-1.9,1.9C28.5,308.1,29.4,308.8,30.4,308.8z"
			/>
		<path class="st0" d="M3.4,377.4c1,0,1.9-0.7,1.9-1.9s-0.9-1.9-1.9-1.9s-1.9,0.7-1.9,1.9C1.5,376.7,2.4,377.4,3.4,377.4z"/>
		<path class="st0" d="M8.1,391.4c-1.1,0-1.9,0.7-1.9,1.9c0,1.2,0.9,1.9,1.9,1.9s1.9-0.7,1.9-1.9C10,392.1,9.1,391.4,8.1,391.4z"/>
		<path class="st0" d="M9.1,355.9c-1,0-1.9,0.7-1.9,1.9c0,1.2,0.9,1.9,1.9,1.9s1.9-0.7,1.9-1.9C11,356.6,10.1,355.9,9.1,355.9z"/>
		<path class="st0" d="M7.1,387.7c0-1.2-0.9-1.9-1.9-1.9s-1.9,0.7-1.9,1.9c0,1.2,0.9,1.9,1.9,1.9S7.1,388.9,7.1,387.7z"/>
		<path class="st0" d="M5.8,365.1c1,0,1.9-0.7,1.9-1.9c0-1.2-0.9-1.9-1.9-1.9s-1.9,0.7-1.9,1.9C3.9,364.4,4.8,365.1,5.8,365.1z"/>
		<path class="st0" d="M5.6,381.6c0-1.2-0.9-1.9-1.9-1.9s-1.9,0.7-1.9,1.9s0.9,1.9,1.9,1.9S5.6,382.8,5.6,381.6z"/>
		<path class="st0" d="M3.9,371.4c1,0,1.9-0.7,1.9-1.9s-0.9-1.9-1.9-1.9c-1.1,0-2,0.7-1.9,1.9C2,370.7,2.9,371.4,3.9,371.4z"/>
		<path class="st0" d="M49.5,305c1,0,1.9-0.7,1.9-1.9c0-1.2-0.9-1.9-1.9-1.9c-1.1,0-2,0.8-1.9,1.9C47.6,304.3,48.5,305,49.5,305z"/>
		<path class="st0" d="M81,360.7c1,0,1.9-0.7,1.9-1.9s-0.9-1.9-1.9-1.9c-1.1,0-2,0.8-1.9,1.9C79.1,360,80,360.7,81,360.7z"/>
		<path class="st0" d="M66.8,353c0,1.2,0.9,1.9,1.9,1.9s1.9-0.7,1.9-1.9s-0.9-1.9-1.9-1.9C67.6,351.1,66.7,351.8,66.8,353z"/>
		<path class="st0" d="M72.1,386.3c1,0,1.9-0.7,1.9-1.9c0-1.2-0.9-1.9-1.9-1.9s-1.9,0.7-1.9,1.9C70.2,385.6,71.1,386.3,72.1,386.3z"
			/>
		<path class="st0" d="M75.5,371.7c0,1.2,0.9,1.9,1.9,1.9s1.9-0.7,1.9-1.9c0-1.2-0.9-1.9-1.9-1.9C76.3,369.8,75.4,370.6,75.5,371.7z
			"/>
		<path class="st0" d="M74.8,354.9c1,0,1.9-0.7,1.9-1.9s-0.9-1.9-1.9-1.9s-1.9,0.7-1.9,1.9C72.9,354.2,73.8,354.9,74.8,354.9z"/>
		<path class="st0" d="M79.3,367.2c1,0,1.9-0.7,1.9-1.9c0-1.2-0.9-1.9-1.9-1.9s-1.9,0.7-1.9,1.9C77.4,366.5,78.3,367.2,79.3,367.2z"
			/>
		<path class="st0" d="M81,354.9c1,0,1.9-0.7,1.9-1.9s-0.9-1.9-1.9-1.9c-1.1,0-2,0.7-1.9,1.9C79.1,354.2,80,354.9,81,354.9z"/>
		<path class="st0" d="M12.6,396.2c-1.1,0-2,0.7-1.9,1.9c0,1.2,0.9,1.9,1.9,1.9s1.9-0.7,1.9-1.9C14.5,396.9,13.6,396.2,12.6,396.2z"
			/>
		<path class="st0" d="M66.7,319c1,0,1.9-0.7,1.9-1.9c0-1.2-0.9-1.9-1.9-1.9s-1.9,0.7-1.9,1.9S65.7,319,66.7,319z"/>
		<path class="st0" d="M61.2,308.8c1,0,1.9-0.7,1.9-1.9c0-1.2-0.9-1.9-1.9-1.9c-1.1,0-2,0.7-1.9,1.9
			C59.3,308.1,60.2,308.8,61.2,308.8z"/>
		<path class="st0" d="M66.7,305.8c1,0,1.9-0.7,1.9-1.9c0-1.2-0.9-1.9-1.9-1.9s-1.9,0.7-1.9,1.9C64.8,305.1,65.7,305.8,66.7,305.8z"
			/>
		<path class="st0" d="M66.7,325.5c1,0,1.9-0.7,1.9-1.9c0-1.2-0.9-1.9-1.9-1.9s-1.9,0.7-1.9,1.9C64.8,324.8,65.7,325.5,66.7,325.5z"
			/>
		<path class="st0" d="M61.6,378.9c-1,0-1.9,0.8-1.9,1.9c0,1.2,0.9,1.9,1.9,1.9s1.9-0.7,1.9-1.9S62.6,378.9,61.6,378.9z"/>
		<path class="st0" d="M66.7,312.4c1,0,1.9-0.7,1.9-1.9s-0.9-1.9-1.9-1.9s-1.9,0.7-1.9,1.9C64.8,311.7,65.7,312.4,66.7,312.4z"/>
		<path class="st0" d="M55.6,306.1c1,0,1.9-0.7,1.9-1.9c0-1.2-0.9-1.9-1.9-1.9s-1.9,0.7-1.9,1.9C53.7,305.4,54.6,306.1,55.6,306.1z"
			/>
		<path class="st0" d="M83.1,403.4c-1.1,0-2,0.7-1.9,1.9c0,1.2,0.9,1.9,1.9,1.9s1.9-0.7,1.9-1.9S84.1,403.4,83.1,403.4z"/>
		<path class="st0" d="M64.8,391.2c-1.1,0-2,0.8-1.9,1.9c0,1.2,0.9,1.9,1.9,1.9s1.9-0.7,1.9-1.9C66.7,391.9,65.8,391.2,64.8,391.2z"
			/>
		<path class="st0" d="M60.7,395.7c-1,0-1.9,0.7-1.9,1.9c0,1.2,0.9,1.9,1.9,1.9s1.9-0.7,1.9-1.9C62.6,396.4,61.7,395.7,60.7,395.7z"
			/>
		<path class="st0" d="M66,383.7c-1.1,0-2,0.8-1.9,1.9c0,1.2,0.9,1.9,1.9,1.9s1.9-0.7,1.9-1.9C67.9,384.4,67,383.7,66,383.7z"/>
		<path class="st0" d="M70.3,388.5c-1,0-1.9,0.8-1.9,1.9c0,1.2,0.9,1.9,1.9,1.9s1.9-0.7,1.9-1.9C72.2,389.2,71.3,388.5,70.3,388.5z"
			/>
		<path class="st0" d="M57.3,373.9c-1.1,0-2,0.7-1.9,1.9c0,1.2,0.9,1.9,1.9,1.9s1.9-0.7,1.9-1.9S58.3,373.9,57.3,373.9z"/>
		<path class="st0" d="M54.7,371c0-1.2-0.9-1.9-1.9-1.9c-1.1,0-2,0.7-1.9,1.9c0,1.2,0.9,1.9,1.9,1.9S54.7,372.2,54.7,371z"/>
		<path class="st0" d="M55.6,399.6c-1,0-1.9,0.8-1.9,1.9c0,1.2,0.9,1.9,1.9,1.9s1.9-0.7,1.9-1.9S56.6,399.6,55.6,399.6z"/>
		<path class="st0" d="M75.1,376.4c-1,0-1.9,0.8-1.9,1.9c0,1.2,0.9,1.9,1.9,1.9s1.9-0.7,1.9-1.9S76.1,376.4,75.1,376.4z"/>
		<path class="st0" d="M89.5,403.4c-1,0-1.9,0.7-1.9,1.9c0,1.2,0.9,1.9,1.9,1.9s1.9-0.7,1.9-1.9S90.5,403.4,89.5,403.4z"/>
		<path class="st0" d="M95.6,353c0-1.2-0.9-1.9-1.9-1.9s-1.9,0.7-1.9,1.9c0,1.2,0.9,1.9,1.9,1.9S95.6,354.2,95.6,353z"/>
		<path class="st0" d="M96,403.4c-1.1,0-2,0.7-1.9,1.9c0,1.2,0.9,1.9,1.9,1.9s1.9-0.7,1.9-1.9S97,403.4,96,403.4z"/>
		<path class="st0" d="M49.6,402.3c-1,0-1.9,0.8-1.9,1.9c0,1.2,0.9,1.9,1.9,1.9s1.9-0.7,1.9-1.9C51.5,403,50.6,402.3,49.6,402.3z"/>
		<path class="st0" d="M89.3,353c0-1.2-0.9-1.9-1.9-1.9s-1.9,0.7-1.9,1.9c0,1.2,0.9,1.9,1.9,1.9S89.3,354.2,89.3,353z"/>
		<path class="st0" d="M74.5,393.5c-1,0-1.9,0.7-1.9,1.9c0,1.2,0.9,1.9,1.9,1.9s1.9-0.7,1.9-1.9C76.4,394.2,75.5,393.5,74.5,393.5z"
			/>
		<path class="st0" d="M79,398.4c-1,0-1.9,0.7-1.9,1.9c0,1.2,0.9,1.9,1.9,1.9s1.9-0.7,1.9-1.9C80.9,399.1,80,398.4,79,398.4z"/>
		<path class="st0" d="M50.3,366.2c0-1.2-0.9-1.9-1.9-1.9s-1.9,0.7-1.9,1.9c0,1.2,0.9,1.9,1.9,1.9S50.3,367.4,50.3,366.2z"/>
		<path class="st0" d="M23.8,402.3c-1,0-1.9,0.8-1.9,1.9c0,1.2,0.9,1.9,1.9,1.9s1.9-0.7,1.9-1.9C25.7,403,24.8,402.3,23.8,402.3z"/>
		<path class="st0" d="M24,344.5c-1.1,0-1.9,0.7-1.9,1.9c0,1.2,0.9,1.9,1.9,1.9s1.9-0.7,1.9-1.9C25.9,345.2,25,344.5,24,344.5z"/>
		<path class="st0" d="M29.2,340.9c0-1.2-0.9-1.9-1.9-1.9c-1.1,0-1.9,0.7-1.9,1.9c0,1.2,0.9,1.9,1.9,1.9S29.2,342.1,29.2,340.9z"/>
		<path class="st0" d="M18,399.9c-1.1,0-1.9,0.7-1.9,1.9c0,1.2,0.9,1.9,1.9,1.9s1.9-0.7,1.9-1.9C19.9,400.6,19,399.9,18,399.9z"/>
		<path class="st0" d="M24.2,329c0-1.2-0.9-1.9-1.9-1.9s-1.9,0.8-1.9,1.9c0,1.2,0.9,1.9,1.9,1.9S24.2,330.2,24.2,329z"/>
		<path class="st0" d="M30.1,403.7c-1,0-1.9,0.7-1.9,1.9s0.9,1.9,1.9,1.9s1.9-0.7,1.9-1.9C32,404.4,31.1,403.7,30.1,403.7z"/>
		<path class="st0" d="M18.6,347.5c-1.1,0-1.9,0.7-1.9,1.9c0,1.2,0.9,1.9,1.9,1.9s1.9-0.7,1.9-1.9C20.5,348.2,19.6,347.5,18.6,347.5
			z"/>
		<path class="st0" d="M30.9,344.4c-1.1,0-2,0.7-1.9,1.9c0,1.2,0.9,1.9,1.9,1.9s1.9-0.7,1.9-1.9S31.9,344.4,30.9,344.4z"/>
		<path class="st0" d="M39.7,354.4c-1,0-1.9,0.7-1.9,1.9c0,1.2,0.9,1.9,1.9,1.9s1.9-0.7,1.9-1.9S40.7,354.4,39.7,354.4z"/>
		<path class="st0" d="M13.3,351.4c-1,0-1.9,0.7-1.9,1.9c0,1.2,0.9,1.9,1.9,1.9s1.9-0.7,1.9-1.9S14.3,351.4,13.3,351.4z"/>
		<path class="st0" d="M43.9,359.2c-1,0-1.9,0.7-1.9,1.9s0.9,1.9,1.9,1.9s1.9-0.7,1.9-1.9C45.8,359.9,44.9,359.2,43.9,359.2z"/>
		<path class="st0" d="M43.2,403.8c-1.1,0-2,0.8-1.9,1.9c0,1.2,0.9,1.9,1.9,1.9s1.9-0.7,1.9-1.9C45.1,404.5,44.2,403.8,43.2,403.8z"
			/>
		<path class="st0" d="M37.1,351.3c0-1.2-0.9-1.9-1.9-1.9s-1.9,0.8-1.9,1.9c0,1.2,0.9,1.9,1.9,1.9S37.1,352.5,37.1,351.3z"/>
		<path class="st0" d="M36.6,404.1c-1.1,0-2,0.8-1.9,1.9c0,1.2,0.9,1.9,1.9,1.9s1.9-0.7,1.9-1.9S37.6,404.1,36.6,404.1z"/>
	</g>
	<g>
		<path class="st0" d="M146.2,324c1,0,1.9-0.7,1.9-1.9c0-1.2-0.9-1.9-1.9-1.9c-1.1,0-1.9,0.7-1.9,1.9
			C144.3,323.3,145.2,324,146.2,324z"/>
		<path class="st0" d="M146.2,317.6c1,0,1.9-0.7,1.9-1.9c0-1.2-0.9-1.9-1.9-1.9c-1.1,0-2,0.8-1.9,1.9
			C144.3,316.9,145.2,317.6,146.2,317.6z"/>
		<path class="st0" d="M152.6,305.3c1,0,1.9-0.7,1.9-1.9c0-1.2-0.9-1.9-1.9-1.9s-1.9,0.8-1.9,1.9
			C150.7,304.6,151.6,305.3,152.6,305.3z"/>
		<path class="st0" d="M146.2,336.9c1,0,1.9-0.7,1.9-1.9c0-1.2-0.9-1.9-1.9-1.9c-1.1,0-1.9,0.7-1.9,1.9
			C144.3,336.2,145.2,336.9,146.2,336.9z"/>
		<path class="st0" d="M146.2,311.2c1,0,1.9-0.7,1.9-1.9s-0.9-1.9-1.9-1.9c-1.1,0-2,0.7-1.9,1.9
			C144.3,310.5,145.2,311.2,146.2,311.2z"/>
		<path class="st0" d="M146.3,305.3c1,0,1.9-0.7,1.9-1.9c0-1.2-0.9-1.9-1.9-1.9s-1.9,0.8-1.9,1.9
			C144.4,304.6,145.3,305.3,146.3,305.3z"/>
		<path class="st0" d="M146.2,330.5c1,0,1.9-0.7,1.9-1.9c0-1.2-0.9-1.9-1.9-1.9c-1.1,0-2,0.7-1.9,1.9
			C144.3,329.8,145.2,330.5,146.2,330.5z"/>
		<path class="st0" d="M146.2,375.6c1,0,1.9-0.7,1.9-1.9c0-1.2-0.9-1.9-1.9-1.9c-1.1,0-1.9,0.7-1.9,1.9
			C144.3,374.9,145.2,375.6,146.2,375.6z"/>
		<path class="st0" d="M146.2,382c1,0,1.9-0.7,1.9-1.9c0-1.2-0.9-1.9-1.9-1.9c-1.1,0-2,0.7-1.9,1.9C144.3,381.3,145.2,382,146.2,382
			z"/>
		<path class="st0" d="M146.2,369.1c1,0,1.9-0.7,1.9-1.9c0-1.2-0.9-1.9-1.9-1.9c-1.1,0-2,0.8-1.9,1.9
			C144.3,368.4,145.2,369.1,146.2,369.1z"/>
		<path class="st0" d="M146.2,349.8c1,0,1.9-0.7,1.9-1.9c0-1.2-0.9-1.9-1.9-1.9c-1.1,0-1.9,0.7-1.9,1.9
			C144.3,349.1,145.2,349.8,146.2,349.8z"/>
		<path class="st0" d="M146.2,343.4c1,0,1.9-0.7,1.9-1.9s-0.9-1.9-1.9-1.9c-1.1,0-2,0.7-1.9,1.9
			C144.3,342.7,145.2,343.4,146.2,343.4z"/>
		<path class="st0" d="M146.2,362.7c1,0,1.9-0.7,1.9-1.9s-0.9-1.9-1.9-1.9c-1.1,0-2,0.7-1.9,1.9C144.3,362,145.2,362.7,146.2,362.7z
			"/>
		<path class="st0" d="M146.2,356.2c1,0,1.9-0.7,1.9-1.9s-0.9-1.9-1.9-1.9c-1.1,0-2,0.8-1.9,1.9
			C144.3,355.5,145.2,356.2,146.2,356.2z"/>
		<path class="st0" d="M203.5,369.3c0,1.2,0.9,1.9,1.9,1.9s1.9-0.7,1.9-1.9c0-1.2-0.9-1.9-1.9-1.9S203.5,368.1,203.5,369.3z"/>
		<path class="st0" d="M199.3,328.4c0,1.2,0.9,1.9,1.9,1.9s1.9-0.7,1.9-1.9c0-1.2-0.9-1.9-1.9-1.9S199.3,327.3,199.3,328.4z"/>
		<path class="st0" d="M198.7,322c0,1.2,0.9,1.9,1.9,1.9s1.9-0.7,1.9-1.9s-0.9-1.9-1.9-1.9S198.7,320.8,198.7,322z"/>
		<path class="st0" d="M202.1,334.7c0-1.2-0.9-1.9-1.9-1.9c-1.1,0-2,0.8-1.9,1.9c0,1.2,0.9,1.9,1.9,1.9S202.1,335.9,202.1,334.7z"/>
		<path class="st0" d="M146.2,388.4c1,0,1.9-0.7,1.9-1.9c0-1.2-0.9-1.9-1.9-1.9c-1.1,0-1.9,0.7-1.9,1.9
			C144.3,387.7,145.2,388.4,146.2,388.4z"/>
		<path class="st0" d="M200.8,363.8c0,1.2,0.9,1.9,1.9,1.9s1.9-0.7,1.9-1.9c0-1.2-0.9-1.9-1.9-1.9S200.8,362.6,200.8,363.8z"/>
		<path class="st0" d="M158.9,305.3c1,0,1.9-0.7,1.9-1.9c0-1.2-0.9-1.9-1.9-1.9s-1.9,0.8-1.9,1.9C157,304.6,157.9,305.3,158.9,305.3
			z"/>
		<path class="st0" d="M198.7,317.8c1,0,1.9-0.7,1.9-1.9c0-1.2-0.9-1.9-1.9-1.9c-1.1,0-1.9,0.7-1.9,1.9
			C196.8,317.1,197.7,317.8,198.7,317.8z"/>
		<path class="st0" d="M204.6,375.6c0,1.2,0.9,1.9,1.9,1.9s1.9-0.7,1.9-1.9c0-1.2-0.9-1.9-1.9-1.9
			C205.4,373.7,204.6,374.4,204.6,375.6z"/>
		<path class="st0" d="M172,305.3c1,0,1.9-0.7,1.9-1.9c0-1.2-0.9-1.9-1.9-1.9c-1.1,0-2,0.8-1.9,1.9C170.1,304.6,171,305.3,172,305.3
			z"/>
		<path class="st0" d="M178.4,305.8c1,0,1.9-0.7,1.9-1.9c0-1.2-0.9-1.9-1.9-1.9s-1.9,0.7-1.9,1.9
			C176.5,305.1,177.4,305.8,178.4,305.8z"/>
		<path class="st0" d="M165.4,305.3c1,0,1.9-0.7,1.9-1.9c0-1.2-0.9-1.9-1.9-1.9c-1.1,0-2,0.8-1.9,1.9
			C163.5,304.6,164.4,305.3,165.4,305.3z"/>
		<path class="st0" d="M193.4,343.5c-1,0-1.9,0.7-1.9,1.9c0,1.2,0.9,1.9,1.9,1.9s1.9-0.7,1.9-1.9
			C195.3,344.2,194.4,343.5,193.4,343.5z"/>
		<path class="st0" d="M195.2,312.5c1,0,1.9-0.7,1.9-1.9c0-1.2-0.9-1.9-1.9-1.9s-1.9,0.8-1.9,1.9
			C193.3,311.8,194.2,312.5,195.2,312.5z"/>
		<path class="st0" d="M184.7,306.7c1,0,1.9-0.7,1.9-1.9c0-1.2-0.9-1.9-1.9-1.9s-1.9,0.7-1.9,1.9C182.8,306,183.7,306.7,184.7,306.7
			z"/>
		<path class="st0" d="M186.5,402.3c-1,0-1.9,0.8-1.9,1.9c0,1.2,0.9,1.9,1.9,1.9s1.9-0.7,1.9-1.9C188.4,403,187.5,402.3,186.5,402.3
			z"/>
		<path class="st0" d="M187.9,346.6c-1.1,0-2,0.7-1.9,1.9c0,1.2,0.9,1.9,1.9,1.9s1.9-0.7,1.9-1.9S188.9,346.6,187.9,346.6z"/>
		<path class="st0" d="M193.6,353.9c-1.1,0-2,0.8-1.9,1.9c0,1.2,0.9,1.9,1.9,1.9s1.9-0.7,1.9-1.9S194.6,353.9,193.6,353.9z"/>
		<path class="st0" d="M192.7,400.5c-1.1,0-1.9,0.7-1.9,1.9c0,1.2,0.9,1.9,1.9,1.9s1.9-0.7,1.9-1.9
			C194.6,401.2,193.7,400.5,192.7,400.5z"/>
		<path class="st0" d="M192.2,307.2c0-1.2-0.9-1.9-1.9-1.9c-1.1,0-2,0.7-1.9,1.9c0,1.2,0.9,1.9,1.9,1.9S192.2,308.4,192.2,307.2z"/>
		<path class="st0" d="M179.9,402.9c-1,0-1.9,0.8-1.9,1.9c0,1.2,0.9,1.9,1.9,1.9s1.9-0.7,1.9-1.9S180.9,402.9,179.9,402.9z"/>
		<path class="st0" d="M187.9,351.8c-1.1,0-2,0.8-1.9,1.9c0,1.2,0.9,1.9,1.9,1.9s1.9-0.7,1.9-1.9
			C189.8,352.5,188.9,351.8,187.9,351.8z"/>
		<path class="st0" d="M182.2,349.7c-1.1,0-1.9,0.7-1.9,1.9c0,1.2,0.9,1.9,1.9,1.9s1.9-0.7,1.9-1.9
			C184.1,350.4,183.2,349.7,182.2,349.7z"/>
		<path class="st0" d="M197.8,342.6c1,0,1.9-0.7,1.9-1.9c0-1.2-0.9-1.9-1.9-1.9c-1.1,0-2,0.8-1.9,1.9
			C195.9,341.9,196.8,342.6,197.8,342.6z"/>
		<path class="st0" d="M205.3,386.4c-1.1,0-2,0.8-1.9,1.9c0,1.2,0.9,1.9,1.9,1.9s1.9-0.7,1.9-1.9S206.3,386.4,205.3,386.4z"/>
		<path class="st0" d="M202.4,392.3c-1,0-1.9,0.7-1.9,1.9c0,1.2,0.9,1.9,1.9,1.9s1.9-0.7,1.9-1.9C204.3,393,203.4,392.3,202.4,392.3
			z"/>
		<path class="st0" d="M176.2,349.7c-1.1,0-1.9,0.7-1.9,1.9c0,1.2,0.9,1.9,1.9,1.9s1.9-0.7,1.9-1.9
			C178.1,350.4,177.2,349.7,176.2,349.7z"/>
		<path class="st0" d="M206.6,380c-1,0-1.9,0.7-1.9,1.9c0,1.2,0.9,1.9,1.9,1.9s1.9-0.7,1.9-1.9C208.5,380.7,207.6,380,206.6,380z"/>
		<path class="st0" d="M198.2,397.2c-1,0-1.9,0.7-1.9,1.9c0,1.2,0.9,1.9,1.9,1.9s1.9-0.7,1.9-1.9
			C200.1,397.9,199.2,397.2,198.2,397.2z"/>
		<path class="st0" d="M198.5,357.4c-1,0-1.9,0.7-1.9,1.9c0,1.2,0.9,1.9,1.9,1.9s1.9-0.7,1.9-1.9
			C200.4,358.1,199.5,357.4,198.5,357.4z"/>
		<path class="st0" d="M165.8,351.6c0-1.2-0.9-1.9-1.9-1.9c-1.1,0-1.9,0.7-1.9,1.9c0,1.2,0.9,1.9,1.9,1.9S165.8,352.8,165.8,351.6z"
			/>
		<path class="st0" d="M146.2,401.3c1,0,1.9-0.7,1.9-1.9c0-1.2-0.9-1.9-1.9-1.9c-1.1,0-2,0.8-1.9,1.9
			C144.3,400.6,145.2,401.3,146.2,401.3z"/>
		<path class="st0" d="M140,403.4c-1,0-1.9,0.7-1.9,1.9c0,1.2,0.9,1.9,1.9,1.9s1.9-0.7,1.9-1.9S141,403.4,140,403.4z"/>
		<path class="st0" d="M173.2,403.4c-1.1,0-2,0.7-1.9,1.9c0,1.2,0.9,1.9,1.9,1.9s1.9-0.7,1.9-1.9S174.2,403.4,173.2,403.4z"/>
		<path class="st0" d="M146.6,403.4c-1,0-1.9,0.7-1.9,1.9c0,1.2,0.9,1.9,1.9,1.9s1.9-0.7,1.9-1.9S147.6,403.4,146.6,403.4z"/>
		<path class="st0" d="M133.4,403.4c-1,0-1.9,0.7-1.9,1.9c0,1.2,0.9,1.9,1.9,1.9s1.9-0.7,1.9-1.9S134.4,403.4,133.4,403.4z"/>
		<path class="st0" d="M139.9,305.3c1,0,1.9-0.7,1.9-1.9c0-1.2-0.9-1.9-1.9-1.9c-1.1,0-2,0.8-1.9,1.9
			C138,304.6,138.9,305.3,139.9,305.3z"/>
		<path class="st0" d="M133.4,301.5c-1,0-1.9,0.8-1.9,1.9c0,1.2,0.9,1.9,1.9,1.9s1.9-0.7,1.9-1.9
			C135.3,302.2,134.4,301.5,133.4,301.5z"/>
		<path class="st0" d="M153.5,351.6c0-1.2-0.9-1.9-1.9-1.9c-1.1,0-1.9,0.7-1.9,1.9c0,1.2,0.9,1.9,1.9,1.9S153.5,352.8,153.5,351.6z"
			/>
		<path class="st0" d="M166.4,403.4c-1,0-1.9,0.7-1.9,1.9c0,1.2,0.9,1.9,1.9,1.9s1.9-0.7,1.9-1.9S167.4,403.4,166.4,403.4z"/>
		<path class="st0" d="M146.2,394.9c1,0,1.9-0.7,1.9-1.9c0-1.2-0.9-1.9-1.9-1.9c-1.1,0-1.9,0.7-1.9,1.9
			C144.3,394.2,145.2,394.9,146.2,394.9z"/>
		<path class="st0" d="M171.9,351.6c0-1.2-0.9-1.9-1.9-1.9s-1.9,0.7-1.9,1.9c0,1.2,0.9,1.9,1.9,1.9S171.9,352.8,171.9,351.6z"/>
		<path class="st0" d="M159.8,403.4c-1,0-1.9,0.7-1.9,1.9c0,1.2,0.9,1.9,1.9,1.9s1.9-0.7,1.9-1.9S160.8,403.4,159.8,403.4z"/>
		<path class="st0" d="M153.2,403.4c-1,0-1.9,0.7-1.9,1.9c0,1.2,0.9,1.9,1.9,1.9s1.9-0.7,1.9-1.9S154.2,403.4,153.2,403.4z"/>
		<path class="st0" d="M159.6,351.6c0-1.2-0.9-1.9-1.9-1.9s-1.9,0.7-1.9,1.9c0,1.2,0.9,1.9,1.9,1.9S159.6,352.8,159.6,351.6z"/>
	</g>
	<g>
		<path class="st0" d="M240.9,331.3c0-1.2-0.9-1.9-1.9-1.9c-1.1,0-1.9,0.7-1.9,1.9c0,1.2,0.9,1.9,1.9,1.9S240.9,332.5,240.9,331.3z"
			/>
		<path class="st0" d="M234.3,402.8c-1,0-1.9,0.7-1.9,1.9c0,1.2,0.9,1.9,1.9,1.9s1.9-0.7,1.9-1.9
			C236.2,403.5,235.3,402.8,234.3,402.8z"/>
		<path class="st0" d="M234.9,364.7c-1,0-1.9,0.8-1.9,1.9c0,1.2,0.9,1.9,1.9,1.9s1.9-0.7,1.9-1.9
			C236.8,365.4,235.9,364.7,234.9,364.7z"/>
		<path class="st0" d="M254.1,329.8c0-1.2-0.9-1.9-1.9-1.9c-1.1,0-1.9,0.7-1.9,1.9c0,1.2,0.9,1.9,1.9,1.9S254.1,331,254.1,329.8z"/>
		<path class="st0" d="M241.4,363.2c-1.1,0-2,0.8-1.9,1.9c0,1.2,0.9,1.9,1.9,1.9s1.9-0.7,1.9-1.9
			C243.3,363.9,242.4,363.2,241.4,363.2z"/>
		<path class="st0" d="M234.6,333.1c0-1.2-0.9-1.9-1.9-1.9c-1.1,0-2,0.7-1.9,1.9c0,1.2,0.9,1.9,1.9,1.9S234.6,334.3,234.6,333.1z"/>
		<path class="st0" d="M248.1,362.6c-1,0-1.9,0.8-1.9,1.9c0,1.2,0.9,1.9,1.9,1.9s1.9-0.7,1.9-1.9S249.1,362.6,248.1,362.6z"/>
		<path class="st0" d="M246.9,404c-1,0-1.9,0.7-1.9,1.9c0,1.2,0.9,1.9,1.9,1.9s1.9-0.7,1.9-1.9C248.8,404.7,247.9,404,246.9,404z"/>
		<path class="st0" d="M247.6,330.1c0-1.2-0.9-1.9-1.9-1.9s-1.9,0.7-1.9,1.9s0.9,1.9,1.9,1.9S247.6,331.3,247.6,330.1z"/>
		<path class="st0" d="M240.5,403.8c-1.1,0-2,0.8-1.9,1.9c0,1.2,0.9,1.9,1.9,1.9s1.9-0.7,1.9-1.9
			C242.4,404.5,241.5,403.8,240.5,403.8z"/>
		<path class="st0" d="M221.5,381.4c1,0,1.9-0.7,1.9-1.9s-0.9-1.9-1.9-1.9c-1.1,0-2,0.7-1.9,1.9
			C219.6,380.7,220.5,381.4,221.5,381.4z"/>
		<path class="st0" d="M224.1,375.4c1,0,1.9-0.7,1.9-1.9s-0.9-1.9-1.9-1.9s-1.9,0.8-1.9,1.9C222.2,374.7,223.1,375.4,224.1,375.4z"
			/>
		<path class="st0" d="M229.1,367.4c-1.1,0-1.9,0.7-1.9,1.9c0,1.2,0.9,1.9,1.9,1.9s1.9-0.7,1.9-1.9
			C231,368.1,230.1,367.4,229.1,367.4z"/>
		<path class="st0" d="M222.6,385.9c0-1.2-0.9-1.9-1.9-1.9s-1.9,0.7-1.9,1.9c0,1.2,0.9,1.9,1.9,1.9S222.6,387.1,222.6,385.9z"/>
		<path class="st0" d="M264.9,333.5c1,0,1.9-0.7,1.9-1.9c0-1.2-0.9-1.9-1.9-1.9s-1.9,0.7-1.9,1.9S263.9,333.5,264.9,333.5z"/>
		<path class="st0" d="M270.2,337.1c1,0,1.9-0.7,1.9-1.9c0-1.2-0.9-1.9-1.9-1.9c-1.1,0-2,0.7-1.9,1.9
			C268.3,336.4,269.2,337.1,270.2,337.1z"/>
		<path class="st0" d="M228.8,400.4c-1.1,0-2,0.7-1.9,1.9c0,1.2,0.9,1.9,1.9,1.9s1.9-0.7,1.9-1.9S229.8,400.4,228.8,400.4z"/>
		<path class="st0" d="M228.6,335.9c0-1.2-0.9-1.9-1.9-1.9c-1.1,0-2,0.8-1.9,1.9c0,1.2,0.9,1.9,1.9,1.9S228.6,337.1,228.6,335.9z"/>
		<path class="st0" d="M224.3,396.2c-1.1,0-2,0.7-1.9,1.9c0,1.2,0.9,1.9,1.9,1.9s1.9-0.7,1.9-1.9
			C226.2,396.9,225.3,396.2,224.3,396.2z"/>
		<path class="st0" d="M223.5,392.2c0-1.2-0.9-1.9-1.9-1.9s-1.9,0.7-1.9,1.9c0,1.2,0.9,1.9,1.9,1.9S223.5,393.4,223.5,392.2z"/>
		<path class="st0" d="M254.7,362.8c-1,0-1.9,0.7-1.9,1.9c0,1.2,0.9,1.9,1.9,1.9s1.9-0.7,1.9-1.9
			C256.6,363.5,255.7,362.8,254.7,362.8z"/>
		<path class="st0" d="M274.4,378.5c-1.1,0-2,0.7-1.9,1.9c0,1.2,0.9,1.9,1.9,1.9s1.9-0.7,1.9-1.9
			C276.3,379.2,275.4,378.5,274.4,378.5z"/>
		<path class="st0" d="M253.1,402.9c-1.1,0-2,0.8-1.9,1.9c0,1.2,0.9,1.9,1.9,1.9s1.9-0.7,1.9-1.9S254.1,402.9,253.1,402.9z"/>
		<path class="st0" d="M274.4,365.3c-1.1,0-2,0.8-1.9,1.9c0,1.2,0.9,1.9,1.9,1.9s1.9-0.7,1.9-1.9C276.3,366,275.4,365.3,274.4,365.3
			z"/>
		<path class="st0" d="M274.4,385.1c-1.1,0-1.9,0.7-1.9,1.9c0,1.2,0.9,1.9,1.9,1.9s1.9-0.7,1.9-1.9
			C276.3,385.8,275.4,385.1,274.4,385.1z"/>
		<path class="st0" d="M274.4,358.7c-1.1,0-2,0.8-1.9,1.9c0,1.2,0.9,1.9,1.9,1.9s1.9-0.7,1.9-1.9
			C276.3,359.4,275.4,358.7,274.4,358.7z"/>
		<path class="st0" d="M284.6,403.4c-1.1,0-2,0.7-1.9,1.9c0,1.2,0.9,1.9,1.9,1.9s1.9-0.7,1.9-1.9S285.6,403.4,284.6,403.4z"/>
		<path class="st0" d="M278.4,403.5c-1,0-1.9,0.7-1.9,1.9c0,1.2,0.9,1.9,1.9,1.9s1.9-0.7,1.9-1.9
			C280.3,404.2,279.4,403.5,278.4,403.5z"/>
		<path class="st0" d="M274.4,352.1c-1.1,0-2,0.8-1.9,1.9c0,1.2,0.9,1.9,1.9,1.9s1.9-0.7,1.9-1.9S275.4,352.1,274.4,352.1z"/>
		<path class="st0" d="M274.4,391.7c-1.1,0-1.9,0.7-1.9,1.9c0,1.2,0.9,1.9,1.9,1.9s1.9-0.7,1.9-1.9
			C276.3,392.4,275.4,391.7,274.4,391.7z"/>
		<path class="st0" d="M274.4,371.9c-1.1,0-1.9,0.7-1.9,1.9c0,1.2,0.9,1.9,1.9,1.9s1.9-0.7,1.9-1.9
			C276.3,372.6,275.4,371.9,274.4,371.9z"/>
		<path class="st0" d="M264.3,397.5c-1,0-1.9,0.8-1.9,1.9c0,1.2,0.9,1.9,1.9,1.9s1.9-0.7,1.9-1.9
			C266.2,398.2,265.3,397.5,264.3,397.5z"/>
		<path class="st0" d="M258.9,400.7c-1,0-1.9,0.7-1.9,1.9s0.9,1.9,1.9,1.9s1.9-0.7,1.9-1.9C260.8,401.4,259.9,400.7,258.9,400.7z"/>
		<path class="st0" d="M263.4,365.4c0-1.2-0.9-1.9-1.9-1.9c-1.1,0-2,0.8-1.9,1.9c0,1.2,0.9,1.9,1.9,1.9S263.4,366.6,263.4,365.4z"/>
		<path class="st0" d="M258.6,332c1,0,1.9-0.7,1.9-1.9c0-1.2-0.9-1.9-1.9-1.9s-1.9,0.7-1.9,1.9S257.6,332,258.6,332z"/>
		<path class="st0" d="M274.8,341c0-1.2-0.9-1.9-1.9-1.9c-1.1,0-2,0.8-1.9,1.9c0,1.2,0.9,1.9,1.9,1.9S274.8,342.2,274.8,341z"/>
		<path class="st0" d="M274.1,349.4c1,0,1.9-0.7,1.9-1.9s-0.9-1.9-1.9-1.9c-1.1,0-2,0.7-1.9,1.9
			C272.2,348.7,273.1,349.4,274.1,349.4z"/>
		<path class="st0" d="M274.4,398.6c-1.1,0-2,0.7-1.9,1.9c0,1.2,0.9,1.9,1.9,1.9s1.9-0.7,1.9-1.9S275.4,398.6,274.4,398.6z"/>
		<path class="st0" d="M270,366.6c0-1.2-0.9-1.9-1.9-1.9c-1.1,0-2,0.8-1.9,1.9c0,1.2,0.9,1.9,1.9,1.9S270,367.8,270,366.6z"/>
		<path class="st0" d="M268.8,393.3c-1,0-1.9,0.8-1.9,1.9c0,1.2,0.9,1.9,1.9,1.9s1.9-0.7,1.9-1.9C270.7,394,269.8,393.3,268.8,393.3
			z"/>
	</g>
	<g>
		<path class="st0" d="M306.2,366.6c1,0,1.9-0.7,1.9-1.9c0-1.2-0.9-1.9-1.9-1.9c-1.1,0-2,0.7-1.9,1.9
			C304.3,365.9,305.2,366.6,306.2,366.6z"/>
		<path class="st0" d="M306.2,387.2c1,0,1.9-0.7,1.9-1.9s-0.9-1.9-1.9-1.9c-1.1,0-2,0.8-1.9,1.9
			C304.3,386.5,305.2,387.2,306.2,387.2z"/>
		<path class="st0" d="M306.2,380.4c1,0,1.9-0.7,1.9-1.9s-0.9-1.9-1.9-1.9c-1.1,0-2,0.7-1.9,1.9
			C304.3,379.7,305.2,380.4,306.2,380.4z"/>
		<path class="st0" d="M306.2,394.1c1,0,1.9-0.7,1.9-1.9c0-1.2-0.9-1.9-1.9-1.9c-1.1,0-1.9,0.7-1.9,1.9
			C304.3,393.4,305.2,394.1,306.2,394.1z"/>
		<path class="st0" d="M295.5,330.2c0-1.2-0.9-1.9-1.9-1.9c-1.1,0-2,0.8-1.9,1.9c0,1.2,0.9,1.9,1.9,1.9S295.5,331.4,295.5,330.2z"/>
		<path class="st0" d="M306.2,373.5c1,0,1.9-0.7,1.9-1.9c0-1.2-0.9-1.9-1.9-1.9c-1.1,0-2,0.7-1.9,1.9
			C304.3,372.8,305.2,373.5,306.2,373.5z"/>
		<path class="st0" d="M306.2,339c1,0,1.9-0.7,1.9-1.9c0-1.2-0.9-1.9-1.9-1.9c-1.1,0-2,0.8-1.9,1.9C304.3,338.3,305.2,339,306.2,339
			z"/>
		<path class="st0" d="M306.2,332.1c1,0,1.9-0.7,1.9-1.9c0-1.2-0.9-1.9-1.9-1.9c-1.1,0-2,0.8-1.9,1.9
			C304.3,331.4,305.2,332.1,306.2,332.1z"/>
		<path class="st0" d="M306.2,359.7c1,0,1.9-0.7,1.9-1.9c0-1.2-0.9-1.9-1.9-1.9c-1.1,0-1.9,0.7-1.9,1.9
			C304.3,359,305.2,359.7,306.2,359.7z"/>
		<path class="st0" d="M306.2,345.9c1,0,1.9-0.7,1.9-1.9s-0.9-1.9-1.9-1.9c-1.1,0-2,0.8-1.9,1.9
			C304.3,345.2,305.2,345.9,306.2,345.9z"/>
		<path class="st0" d="M306.2,352.8c1,0,1.9-0.7,1.9-1.9c0-1.2-0.9-1.9-1.9-1.9c-1.1,0-1.9,0.7-1.9,1.9
			C304.3,352.1,305.2,352.8,306.2,352.8z"/>
		<path class="st0" d="M295.1,403.4c-1.1,0-2,0.7-1.9,1.9c0,1.2,0.9,1.9,1.9,1.9s1.9-0.7,1.9-1.9S296.1,403.4,295.1,403.4z"/>
		<path class="st0" d="M301.8,330.2c0-1.2-0.9-1.9-1.9-1.9c-1.1,0-2,0.8-1.9,1.9c0,1.2,0.9,1.9,1.9,1.9S301.8,331.4,301.8,330.2z"/>
		<path class="st0" d="M316.7,335.7c-1.1,0-1.9,0.7-1.9,1.9c0,1.2,0.9,1.9,1.9,1.9s1.9-0.7,1.9-1.9
			C318.6,336.4,317.7,335.7,316.7,335.7z"/>
		<path class="st0" d="M321.5,403.4c-1.1,0-2,0.7-1.9,1.9c0,1.2,0.9,1.9,1.9,1.9s1.9-0.7,1.9-1.9S322.5,403.4,321.5,403.4z"/>
		<path class="st0" d="M322.2,331.9c-1,0-1.9,0.8-1.9,1.9c0,1.2,0.9,1.9,1.9,1.9s1.9-0.7,1.9-1.9S323.2,331.9,322.2,331.9z"/>
		<path class="st0" d="M340.3,328.2c-1,0-1.9,0.7-1.9,1.9s0.9,1.9,1.9,1.9s1.9-0.7,1.9-1.9C342.2,328.9,341.3,328.2,340.3,328.2z"/>
		<path class="st0" d="M334.2,328c-1.1,0-1.9,0.7-1.9,1.9c0,1.2,0.9,1.9,1.9,1.9s1.9-0.7,1.9-1.9C336.1,328.7,335.2,328,334.2,328z"
			/>
		<path class="st0" d="M327.9,329.2c-1,0-1.9,0.8-1.9,1.9c0,1.2,0.9,1.9,1.9,1.9s1.9-0.7,1.9-1.9
			C329.8,329.9,328.9,329.2,327.9,329.2z"/>
		<path class="st0" d="M314.9,403.4c-1.1,0-2,0.7-1.9,1.9c0,1.2,0.9,1.9,1.9,1.9s1.9-0.7,1.9-1.9S315.9,403.4,314.9,403.4z"/>
		<path class="st0" d="M301.7,403.4c-1.1,0-2,0.7-1.9,1.9c0,1.2,0.9,1.9,1.9,1.9s1.9-0.7,1.9-1.9S302.7,403.4,301.7,403.4z"/>
		<path class="st0" d="M308.1,399.1c0-1.2-0.9-1.9-1.9-1.9c-1.1,0-1.9,0.7-1.9,1.9c0,1.2,0.9,1.9,1.9,1.9S308.1,400.3,308.1,399.1z"
			/>
		<path class="st0" d="M313.8,342.5c0-1.2-0.9-1.9-1.9-1.9c-1.1,0-2,0.8-1.9,1.9c0,1.2,0.9,1.9,1.9,1.9S313.8,343.7,313.8,342.5z"/>
		<path class="st0" d="M308.3,403.4c-1.1,0-2,0.7-1.9,1.9c0,1.2,0.9,1.9,1.9,1.9s1.9-0.7,1.9-1.9S309.3,403.4,308.3,403.4z"/>
	</g>
</g>
</svg>
