<svg id="Layer_1" data-name="Layer 1" xmlns="http://www.w3.org/2000/svg" viewBox="0 0 91 63"><defs><style>.cls-1{fill:#cd842d;}</style></defs><title>footer_logo</title><path class="cls-1" d="M152.25,274.18a.5.5,0,0,0-.52-.57c-.86,0-2.18,1.24-5.64,1.24-8.2,0-10.61-5.88-10.61-9.51a10.51,10.51,0,0,1,10.78-10.73,12.09,12.09,0,0,1,7,2.28l.56,3.25-.81,0a7.51,7.51,0,0,0-6.9-4c-4.45,0-7.36,4-7.36,8.8,0,4.65,2.83,8.33,7.61,8.33,2.54,0,5.53-1,6.55-3.35l1,.06-.73,4.29Zm49.43,11.91h-1.26c-.91,1.4-1.85,1.57-3.73,1.73v1l.62.05a1.82,1.82,0,0,1,1.67,1.82v12.1a1.82,1.82,0,0,1-1.67,1.82l-.62.05v1H204v-1l-.62-.05a1.82,1.82,0,0,1-1.67-1.82ZM174,293.59H184.8l1.6-3.45-.83-.4-.78,1.11h-7.35c5.15-5,8.36-8.51,8.36-11.93a5.09,5.09,0,0,0-5.31-5.26c-3.92,0-5.61,2.38-7,4.15l.81.6A5.53,5.53,0,0,1,179.1,276a3.82,3.82,0,0,1,4,3.66c0,2.92-3,7.29-9.65,13Zm-9.63-17.12a3.54,3.54,0,0,0,1.3-.33,2,2,0,0,0,.35-1.21,2.93,2.93,0,0,0-.31-1.33,2.37,2.37,0,0,0-1.35-.36,3.54,3.54,0,0,0-1.3.33,2,2,0,0,0-.35,1.21,2.93,2.93,0,0,0,.31,1.33A2.37,2.37,0,0,0,164.39,276.47ZM225,316.61l.62.05v1h-7.28v-1l.62-.05a1.82,1.82,0,0,0,1.67-1.82v-2h-8.5l-.52-1L222,298.12h1.34v12.46h1.57l.78-1.11.83.4-1.35,2.9h-1.84v2A1.82,1.82,0,0,0,225,316.61Zm-4.36-14.7L214,310.58h6.61Z" transform="translate(-135.49 -254.62)"/></svg>