<svg xmlns="http://www.w3.org/2000/svg" id="Layer_1" data-name="Layer 1" viewBox="0 0 364 30">
  <defs>
    <style>
      .cls-1{fill:#2b2422;}
    </style>
  </defs>
  <path d="M238.08 21.31l2.06 4.5a1.56 1.56 0 0 1-1.48 2.12L238 28v1.32h10v-1.39l-.66-.07a3.37 3.37 0 0 1-2.78-2L234.11 1.31H230l-10.51 24.57a3.37 3.37 0 0 1-2.79 2l-.7.12v1.35h9V28l-1.08-.08a1.57 1.57 0 0 1-1.5-2.12l2-4.47zm-12.08-3l5.57-13.18 5.57 13.18zM145 5a4.41 4.41 0 0 0-3.31-2.65l-.69-.11v-.93h11v.94l-1 .08A3.66 3.66 0 0 0 148 5v20.12a3.66 3.66 0 0 0 3 2.65l1 .08v1.46h-11v-1.47l.69-.08a4.41 4.41 0 0 0 3.31-2.65zm33 20.15c-.62 1.38.5 2.53 2 2.65l1 .07v1.46h-10v-1.49l.82-.07a2.18 2.18 0 0 0 2.18-2.65V5a2.18 2.18 0 0 0-2.18-2.65l-.82-.11v-.93h6.21L197 22.94v-18a2.61 2.61 0 0 0-2.5-2.65l-.5-.07v-.91h9v.94l-.36.07A2.85 2.85 0 0 0 200 5v24.31h-2.7L178 7.15zM78.09 15c0 8.54-7.2 14.77-16.33 14.77S45.43 23.58 45.43 15 52.63.31 61.76.31 78.09 6.51 78.09 15zM62.48 27.6c6.1 0 9.39-4.08 10.39-9.58 1.22-6.68-2.07-15.46-11.11-15.46a11.12 11.12 0 0 0-11.09 9.38c-1.21 6.63 2.04 15.66 11.81 15.66zm-36.43 1.23a.74.74 0 0 0-.64-.83h-.16c-1.33 0-3.39 1.81-8.75 1.81C3.78 29.81.05 21.23.05 16 .05 6.71 7.55.3 16.78.3A19.48 19.48 0 0 1 27.7 3.63l.87 4.74-1.26.07s-2.78-5.87-10.7-5.87C9.7 2.57 5.19 8.36 5.19 15.4c0 6.78 4.39 12.14 11.81 12.14 3.94 0 8.58-1.42 10.16-4.89l1.48.08L27.5 29zm94 0a.74.74 0 0 0-.64-.83h-.16c-1.33 0-3.39 1.81-8.75 1.81-12.72 0-16.45-8.58-16.45-13.86 0-9.24 7.5-15.65 16.73-15.65a19.48 19.48 0 0 1 10.92 3.33l.87 4.74-1.26.07s-2.78-5.87-10.7-5.87c-6.91 0-11.42 5.79-11.42 12.83 0 6.78 4.39 12.14 11.81 12.14 3.94 0 8.58-1.42 10.16-4.89l1.48.08L121.5 29zm205-3.78a3.18 3.18 0 0 0 2.83 2.65l1.17.08v1.52H317v-1.51l1.47-.08a2.64 2.64 0 0 0 2.53-2.65V7.41a2.64 2.64 0 0 0-2.53-2.65L317 4.68V3.31a15.59 15.59 0 0 0 6.29-2H325zm-43.86 2.87c10.26-8.41 15-14.8 15-19.06 0-3.35-3.18-5.35-6.23-5.35a8.78 8.78 0 0 0-7.43 3.6l-1.25-.87c2.1-2.6 4.73-6.07 10.83-6.07 5.5 0 8.26 3.87 8.26 7.69 0 5-5 10.19-13 17.44h11.43l1.2-1.62 1.29.58-2.49 5H282zm77.81-2.8v-2.81h2.86l2.14-4.36-1.29-.58-1.21 1.94H360v-18h-2l-15.81 19.52.79 1.48h12v2.81a3 3 0 0 1-2.76 2.65l-1.24.08v1.46h12v-1.47l-1.4-.08c-1.44-.11-2.58-2.64-2.58-2.64zm-4-5.81h-10.25L355 6.65z" class="cls-1"/>
</svg>
