<svg id="Layer_1" data-name="Layer 1" xmlns="http://www.w3.org/2000/svg" viewBox="0 0 29 29"><defs><style>.cls-1{fill:#2b2422;}</style></defs><title>cart</title><g id="Page-1"><g id="Cocina-214-Shop-Detail"><g id="Group-5"><g id="Group-4"><path class="cls-1" d="M6.79,29a3,3,0,1,1,3-3A3,3,0,0,1,6.79,29Zm0-4a1,1,0,1,0,1,1A1,1,0,0,0,6.79,25Z"/><path class="cls-1" d="M18.95,29a3,3,0,1,1,3-3A3,3,0,0,1,18.95,29Zm0-4a1,1,0,1,0,1,1A1,1,0,0,0,18.95,25Z"/><path class="cls-1" d="M20,22.12H5.78a1,1,0,0,1-1-.87L3.52,11.9a1,1,0,0,1-.21-1.55L2.87,7H1A1,1,0,1,1,1,5H3.75a1,1,0,0,1,1,.87L5.31,10H22a1,1,0,0,1,.78.37,1,1,0,0,1,.21.84L21,21.31A1,1,0,0,1,20,22.12Zm-13.3-2H19.13l1.62-8.06H5.59Z"/></g></g></g></g></svg>