<svg xmlns="http://www.w3.org/2000/svg" id="Layer_1" data-name="Layer 1" viewBox="0 0 99 20">
  <defs>
    <style>
      .cls-1{fill:#D18419;}
    </style>
  </defs>
  <path d="M16.67 19.34a.49.49 0 0 0-.41-.56h-.1C15.32 18.78 14 20 10.6 20 2.52 20 .15 14.21.15 10.64A10.35 10.35 0 0 1 10.28.08h.5a11.92 11.92 0 0 1 6.94 2.25l.55 3.2h-.8a7.4 7.4 0 0 0-6.8-4c-4.39 0-7.25 3.91-7.25 8.66 0 4.58 2.79 8.19 7.5 8.19 2.5 0 5.45-1 6.46-3.3h.94l-.72 4.22zM72.08.09h-1.79c-.81 1.4-1.66 1.57-3.34 1.73v1h.43A1.8 1.8 0 0 1 69 4.61V16.8a1.8 1.8 0 0 1-1.62 1.79h-.43v1h7.18v-1h-.42a1.8 1.8 0 0 1-1.62-1.79zm-29.84 19.5h10.62l1.58-3.37-.82-.39-.77.68H45.6c5.08-4.48 8.24-8 8.24-11.33A5 5 0 0 0 49 0h-.4c-3.87 0-5.53 2.34-6.87 4.09l.79.59a5.45 5.45 0 0 1 4.71-2.42 3.76 3.76 0 0 1 3.95 3.56c0 2.87-3 7.17-9.51 12.83zm55.07-1h.42v1h-7.18v-1H91a1.8 1.8 0 0 0 1.62-1.79v-2.33h-6.9l-.51-1L95.39.12h1.32v12.32h.55l.77-.81.82.39-1.35 2.43h-1.84v2.36a1.8 1.8 0 0 0 1.65 1.79zM92.6 3.85l-6.51 8.54h6.51zM29.74 12a3.49 3.49 0 0 0 1.26-.29 2 2 0 0 0 .35-1.19 2.88 2.88 0 0 0-.3-1.31 2.33 2.33 0 0 0-1.33-.35 3.49 3.49 0 0 0-1.28.33 2 2 0 0 0-.35 1.19 2.88 2.88 0 0 0 .3 1.31 2.33 2.33 0 0 0 1.34.37z" class="cls-1"/>
</svg>
